SplineFontDB: 3.2
FontName: u8
FullName: u8
FamilyName: u8
Weight: Regular
Copyright: copyright (c) 2021, vimal kumar<heksadesiml@gmail.com>, vith reserved font name "u5" "u5p" "u5pA" "u8".\ncopyright (c) 2010, 2011, natalia raices<nraices@gmail.com>, vith reserved font name "delius" "delius unicase".
Version: 1.000
ItalicAngle: 0
UnderlinePosition: -200
UnderlineWidth: 50
Ascent: 800
Descent: 200
InvalidEm: 0
sfntRevision: 0x00010000
LayerCount: 2
Layer: 0 1 "Back" 1
Layer: 1 1 "Fore" 0
XUID: [1021 467 -1121320856 10371308]
StyleMap: 0x0040
FSType: 0
OS2Version: 2
OS2_WeightWidthSlopeOnly: 0
OS2_UseTypoMetrics: 0
CreationTime: 1314993210
ModificationTime: 1616044208
PfmFamily: 17
TTFWeight: 400
TTFWidth: 5
LineGap: 0
VLineGap: 0
Panose: 2 0 6 3 0 0 0 0 0 0
OS2TypoAscent: 1016
OS2TypoAOffset: 0
OS2TypoDescent: -236
OS2TypoDOffset: 0
OS2TypoLinegap: 0
OS2WinAscent: 1016
OS2WinAOffset: 0
OS2WinDescent: 236
OS2WinDOffset: 0
HheadAscent: 1016
HheadAOffset: 0
HheadDescent: -236
HheadDOffset: 0
OS2SubXSize: 700
OS2SubYSize: 650
OS2SubXOff: 0
OS2SubYOff: 140
OS2SupXSize: 700
OS2SupYSize: 650
OS2SupXOff: 0
OS2SupYOff: 477
OS2StrikeYSize: 50
OS2StrikeYPos: 250
OS2CapHeight: 195
OS2XHeight: 320
OS2FamilyClass: 2560
OS2Vendor: 'pyrs'
OS2CodePages: 00000001.00000000
OS2UnicodeRanges: 00000021.00000000.00000000.00000000
Lookup: 258 0 0 "'kern' Horizontal Kerning in Latin lookup 0" { "'kern' Horizontal Kerning in Latin lookup 0 per glyph data 0"  "'kern' Horizontal Kerning in Latin lookup 0 per glyph data 1"  "'kern' Horizontal Kerning in Latin lookup 0 kerning class 2"  } ['kern' ('latn' <'dflt' > ) ]
MarkAttachClasses: 1
DEI: 91125
KernClass2: 2+ 3 "'kern' Horizontal Kerning in Latin lookup 0 kerning class 2"
 17 m n ntilde nacute
 21 r rcommaaccent rcaron
 56 a d g q agrave aacute acircumflex atilde adieresis aring
 37 e egrave eacute ecircumflex edieresis
 0 {} -20 {} -10 {} 0 {} -30 {} 0 {}
TtTable: prep
PUSHW_1
 511
SCANCTRL
PUSHB_1
 4
SCANTYPE
EndTTInstrs

StartChar: exclam
Encoding: 33 33 4
Width: 289
GlyphClass: 2
Flags: W
LayerCount: 2
Fore
SplineSet
186 95 m 128,-1,1
 199 78 199 78 199 52.5 c 128,-1,2
 199 27 199 27 182 6 c 128,-1,3
 165 -15 165 -15 141 -15 c 128,-1,4
 117 -15 117 -15 103.5 3.5 c 128,-1,5
 90 22 90 22 90 47 c 128,-1,6
 90 72 90 72 106.5 92 c 128,-1,7
 123 112 123 112 148 112 c 128,-1,0
 173 112 173 112 186 95 c 128,-1,1
188 467 m 1,8,-1
 189 266 l 2,9,10
 189 240 189 240 177 225 c 128,-1,11
 165 210 165 210 144 210 c 128,-1,12
 123 210 123 210 111 225 c 128,-1,13
 99 240 99 240 99 266 c 2,14,-1
 101 467 l 1,15,-1
 93 695 l 2,16,17
 93 725 93 725 106.5 742.5 c 128,-1,18
 120 760 120 760 144 760 c 128,-1,19
 168 760 168 760 181.5 742.5 c 128,-1,20
 195 725 195 725 195 695 c 2,21,-1
 188 467 l 1,8,-1
EndSplineSet
Validated: 1
EndChar

StartChar: quotedbl
Encoding: 34 34 5
Width: 413
GlyphClass: 2
Flags: W
LayerCount: 2
Fore
SplineSet
166 704 m 2,0,-1
 154 596 l 2,1,2
 152 553 152 553 144.5 535 c 128,-1,3
 137 517 137 517 118 517 c 128,-1,4
 99 517 99 517 91.5 535 c 128,-1,5
 84 553 84 553 82 596 c 2,6,-1
 70 704 l 2,7,8
 70 730 70 730 83 745 c 128,-1,9
 96 760 96 760 118 760 c 128,-1,10
 140 760 140 760 153 745 c 128,-1,11
 166 730 166 730 166 704 c 2,0,-1
343 704 m 2,12,-1
 331 596 l 2,13,14
 329 553 329 553 321.5 535 c 128,-1,15
 314 517 314 517 295 517 c 128,-1,16
 276 517 276 517 268.5 535 c 128,-1,17
 261 553 261 553 259 596 c 2,18,-1
 247 704 l 2,19,20
 247 730 247 730 260 745 c 128,-1,21
 273 760 273 760 295 760 c 128,-1,22
 317 760 317 760 330 745 c 128,-1,23
 343 730 343 730 343 704 c 2,12,-1
EndSplineSet
Validated: 1
EndChar

StartChar: numbersign
Encoding: 35 35 6
Width: 858
GlyphClass: 2
Flags: W
LayerCount: 2
Fore
SplineSet
361 431 m 1,0,1
 332 293 332 293 329 274 c 1,2,-1
 498 274 l 1,3,4
 504 298 504 298 515.5 357.5 c 128,-1,5
 527 417 527 417 530 431 c 1,6,-1
 361 431 l 1,0,1
691 196 m 2,7,-1
 564 199 l 1,8,9
 556 156 556 156 533 35 c 0,10,11
 525 -10 525 -10 488 -10 c 0,12,13
 470 -10 470 -10 459.5 1.5 c 128,-1,14
 449 13 449 13 449 27.5 c 128,-1,15
 449 42 449 42 484 200 c 1,16,-1
 317 200 l 1,17,18
 311 170 311 170 286 35 c 0,19,20
 278 -10 278 -10 241 -10 c 0,21,22
 223 -10 223 -10 212.5 1.5 c 128,-1,23
 202 13 202 13 202 25 c 128,-1,24
 202 37 202 37 208.5 68.5 c 128,-1,25
 215 100 215 100 223.5 140 c 128,-1,26
 232 180 232 180 235 200 c 1,27,-1
 122 196 l 2,28,29
 63 196 63 196 63 238 c 0,30,31
 63 278 63 278 122 278 c 2,32,-1
 249 274 l 1,33,34
 255 298 255 298 266.5 357 c 128,-1,35
 278 416 278 416 281 429 c 1,36,-1
 167 427 l 2,37,38
 108 427 108 427 108 466 c 0,39,40
 108 507 108 507 167 507 c 2,41,-1
 296 504 l 1,42,43
 305 547 305 547 327 668 c 0,44,45
 335 713 335 713 372 713 c 0,46,47
 390 713 390 713 400.5 701.5 c 128,-1,48
 411 690 411 690 411 675 c 128,-1,49
 411 660 411 660 376 503 c 1,50,-1
 543 503 l 1,51,52
 549 533 549 533 574 668 c 0,53,54
 582 713 582 713 619 713 c 0,55,56
 636 713 636 713 647 701.5 c 128,-1,57
 658 690 658 690 658 678 c 128,-1,58
 658 666 658 666 651.5 635 c 128,-1,59
 645 604 645 604 636 563 c 128,-1,60
 627 522 627 522 624 503 c 1,61,-1
 736 507 l 2,62,63
 795 507 795 507 795 466 c 0,64,65
 795 427 795 427 736 427 c 0,66,67
 714 427 714 427 609 430 c 1,68,69
 581 300 581 300 577 275 c 1,70,-1
 691 278 l 2,71,72
 750 278 750 278 750 238 c 0,73,74
 750 196 750 196 691 196 c 2,7,-1
EndSplineSet
Validated: 1
EndChar

StartChar: dollar
Encoding: 36 36 7
Width: 624
GlyphClass: 2
Flags: W
LayerCount: 2
Fore
SplineSet
505 64 m 128,-1,1
 452 11 452 11 366 -4 c 1,2,3
 366 -85 366 -85 320 -85 c 128,-1,4
 274 -85 274 -85 274 -7 c 1,5,6
 195 0 195 0 131 39.5 c 128,-1,7
 67 79 67 79 67 115 c 0,8,9
 67 133 67 133 79 145 c 128,-1,10
 91 157 91 157 108.5 157 c 128,-1,11
 126 157 126 157 144 146 c 128,-1,12
 162 135 162 135 176 121.5 c 128,-1,13
 190 108 190 108 217 95 c 128,-1,14
 244 82 244 82 276 78 c 1,15,16
 279 267 279 267 279 345 c 1,17,18
 199 389 199 389 160.5 421 c 128,-1,19
 122 453 122 453 107.5 482 c 128,-1,20
 93 511 93 511 93 545 c 0,21,22
 93 607 93 607 143.5 655 c 128,-1,23
 194 703 194 703 273 715 c 1,24,25
 273 802 273 802 319 802 c 128,-1,26
 365 802 365 802 365 715 c 1,27,28
 429 707 429 707 473.5 680 c 128,-1,29
 518 653 518 653 518 622 c 0,30,31
 518 603 518 603 506 592 c 128,-1,32
 494 581 494 581 473 581 c 128,-1,33
 452 581 452 581 420 602 c 128,-1,34
 388 623 388 623 362 630 c 1,35,36
 359 456 359 456 359 400 c 1,37,38
 405 375 405 375 432.5 358 c 128,-1,39
 460 341 460 341 493 314 c 0,40,41
 558 261 558 261 558 189 c 128,-1,0
 558 117 558 117 505 64 c 128,-1,1
462 188 m 0,42,43
 462 243 462 243 359 301 c 1,44,45
 359 299 359 299 363 83 c 1,46,47
 407 95 407 95 434.5 122 c 128,-1,48
 462 149 462 149 462 188 c 0,42,43
213.5 598 m 128,-1,50
 189 575 189 575 189 546 c 128,-1,51
 189 517 189 517 211.5 494 c 128,-1,52
 234 471 234 471 279 443 c 1,53,54
 275 623 275 623 275 630 c 1,55,49
 238 621 238 621 213.5 598 c 128,-1,50
EndSplineSet
Validated: 1
EndChar

StartChar: percent
Encoding: 37 37 8
Width: 874
GlyphClass: 2
Flags: W
LayerCount: 2
Fore
SplineSet
620 700 m 0,0,1
 620 650 620 650 562 589 c 0,2,3
 561 586 561 586 512 445.5 c 128,-1,4
 463 305 463 305 415 166 c 128,-1,5
 367 27 367 27 363 18 c 0,6,7
 350 -15 350 -15 317 -15 c 0,8,9
 301 -15 301 -15 289 -4 c 128,-1,10
 277 7 277 7 277 25 c 128,-1,11
 277 43 277 43 302 104 c 0,12,13
 406 361 406 361 469 555 c 1,14,15
 451 552 451 552 426.5 552 c 128,-1,16
 402 552 402 552 364 564 c 1,17,18
 366 548 366 548 366 537 c 0,19,20
 366 463 366 463 324 412.5 c 128,-1,21
 282 362 282 362 214 362 c 128,-1,22
 146 362 146 362 104.5 411 c 128,-1,23
 63 460 63 460 63 535.5 c 128,-1,24
 63 611 63 611 106 662 c 128,-1,25
 149 713 149 713 216 713 c 0,26,27
 247 713 247 713 275.5 699 c 128,-1,28
 304 685 304 685 322 668 c 0,29,30
 372 624 372 624 418 624 c 128,-1,31
 464 624 464 624 490 638 c 1,32,33
 516 735 516 735 538 752 c 0,34,35
 549 760 549 760 569 760 c 128,-1,36
 589 760 589 760 604.5 743 c 128,-1,37
 620 726 620 726 620 700 c 0,0,1
267.5 462.5 m 128,-1,39
 286 491 286 491 286 536.5 c 128,-1,40
 286 582 286 582 268 611.5 c 128,-1,41
 250 641 250 641 216 641 c 128,-1,42
 182 641 182 641 162.5 612 c 128,-1,43
 143 583 143 583 143 538 c 128,-1,44
 143 493 143 493 162 463.5 c 128,-1,45
 181 434 181 434 215 434 c 128,-1,38
 249 434 249 434 267.5 462.5 c 128,-1,39
770.5 287 m 128,-1,47
 812 238 812 238 812 162.5 c 128,-1,48
 812 87 812 87 769 36 c 128,-1,49
 726 -15 726 -15 657.5 -15 c 128,-1,50
 589 -15 589 -15 547.5 34 c 128,-1,51
 506 83 506 83 506 159 c 128,-1,52
 506 235 506 235 549 285.5 c 128,-1,53
 592 336 592 336 660.5 336 c 128,-1,46
 729 336 729 336 770.5 287 c 128,-1,47
712.5 86 m 128,-1,55
 732 115 732 115 732 160 c 128,-1,56
 732 205 732 205 713 234.5 c 128,-1,57
 694 264 694 264 659.5 264 c 128,-1,58
 625 264 625 264 605.5 235 c 128,-1,59
 586 206 586 206 586 161.5 c 128,-1,60
 586 117 586 117 605.5 87 c 128,-1,61
 625 57 625 57 659 57 c 128,-1,54
 693 57 693 57 712.5 86 c 128,-1,55
EndSplineSet
Validated: 1
EndChar

StartChar: ampersand
Encoding: 38 38 9
Width: 835
GlyphClass: 2
Flags: W
LayerCount: 2
Fore
SplineSet
455 370 m 2,0,-1
 538 368 l 1,1,2
 706 368 706 368 706 459 c 0,3,4
 706 490 706 490 687.5 510 c 128,-1,5
 669 530 669 530 647 538 c 0,6,7
 588 558 588 558 588 593 c 0,8,9
 588 611 588 611 600 622.5 c 128,-1,10
 612 634 612 634 633 634 c 0,11,12
 690 634 690 634 744 580.5 c 128,-1,13
 798 527 798 527 798 461 c 0,14,15
 798 372 798 372 734.5 330.5 c 128,-1,16
 671 289 671 289 577 287 c 1,17,18
 595 245 595 245 595 203 c 0,19,20
 595 113 595 113 521.5 49 c 128,-1,21
 448 -15 448 -15 332.5 -15 c 128,-1,22
 217 -15 217 -15 139.5 57.5 c 128,-1,23
 62 130 62 130 62 239 c 0,24,25
 62 302 62 302 93 361.5 c 128,-1,26
 124 421 124 421 176 460 c 1,27,28
 112 520 112 520 112 590.5 c 128,-1,29
 112 661 112 661 162.5 713 c 128,-1,30
 213 765 213 765 305 765 c 0,31,32
 362 765 362 765 410.5 737 c 128,-1,33
 459 709 459 709 459 677 c 0,34,35
 459 657 459 657 447 646 c 128,-1,36
 435 635 435 635 419 635 c 128,-1,37
 403 635 403 635 372.5 656.5 c 128,-1,38
 342 678 342 678 301 678 c 128,-1,39
 260 678 260 678 232.5 654.5 c 128,-1,40
 205 631 205 631 205 593 c 0,41,42
 205 536 205 536 257 501 c 1,43,44
 301 505 301 505 304 505 c 0,45,46
 334 505 334 505 353 491 c 128,-1,47
 372 477 372 477 372 452.5 c 128,-1,48
 372 428 372 428 351 413.5 c 128,-1,49
 330 399 330 399 299.5 399 c 128,-1,50
 269 399 269 399 249 409 c 1,51,52
 207 384 207 384 182 341 c 128,-1,53
 157 298 157 298 157 247 c 0,54,55
 157 169 157 169 206 120.5 c 128,-1,56
 255 72 255 72 331 72 c 128,-1,57
 407 72 407 72 454.5 111.5 c 128,-1,58
 502 151 502 151 502 202 c 0,59,60
 502 280 502 280 470 280 c 0,61,62
 452 280 452 280 431.5 270 c 128,-1,63
 411 260 411 260 392.5 260 c 128,-1,64
 374 260 374 260 362 273.5 c 128,-1,65
 350 287 350 287 350 306 c 0,66,67
 350 336 350 336 379.5 353 c 128,-1,68
 409 370 409 370 455 370 c 2,0,-1
EndSplineSet
Validated: 1
EndChar

StartChar: quotesingle
Encoding: 39 39 10
Width: 236
GlyphClass: 2
Flags: W
LayerCount: 2
Fore
SplineSet
166 704 m 2,0,-1
 154 596 l 2,1,2
 152 553 152 553 144.5 535 c 128,-1,3
 137 517 137 517 118 517 c 128,-1,4
 99 517 99 517 91.5 535 c 128,-1,5
 84 553 84 553 82 596 c 2,6,-1
 70 704 l 2,7,8
 70 730 70 730 83 745 c 128,-1,9
 96 760 96 760 118 760 c 128,-1,10
 140 760 140 760 153 745 c 128,-1,11
 166 730 166 730 166 704 c 2,0,-1
EndSplineSet
Validated: 1
EndChar

StartChar: parenleft
Encoding: 40 40 11
Width: 347
GlyphClass: 2
Flags: W
LayerCount: 2
Fore
SplineSet
84.5 209 m 128,-1,1
 62 300 62 300 62 385 c 128,-1,2
 62 470 62 470 82.5 552.5 c 128,-1,3
 103 635 103 635 133.5 695.5 c 128,-1,4
 164 756 164 756 198.5 795.5 c 128,-1,5
 233 835 233 835 258.5 835 c 128,-1,6
 284 835 284 835 298 821 c 128,-1,7
 312 807 312 807 312 789.5 c 128,-1,8
 312 772 312 772 295.5 746.5 c 128,-1,9
 279 721 279 721 256 688 c 128,-1,10
 233 655 233 655 210 612 c 128,-1,11
 187 569 187 569 170.5 502.5 c 128,-1,12
 154 436 154 436 154 352.5 c 128,-1,13
 154 269 154 269 176 190 c 128,-1,14
 198 111 198 111 224.5 67 c 128,-1,15
 251 23 251 23 273 -11.5 c 128,-1,16
 295 -46 295 -46 295 -56.5 c 128,-1,17
 295 -67 295 -67 288 -75.5 c 128,-1,18
 281 -84 281 -84 266 -84 c 0,19,20
 241 -84 241 -84 206.5 -45.5 c 128,-1,21
 172 -7 172 -7 139.5 55.5 c 128,-1,0
 107 118 107 118 84.5 209 c 128,-1,1
EndSplineSet
Validated: 1
EndChar

StartChar: parenright
Encoding: 41 41 12
Width: 347
GlyphClass: 2
Flags: W
LayerCount: 2
Fore
SplineSet
264.5 552.5 m 128,-1,1
 285 470 285 470 285 385 c 128,-1,2
 285 300 285 300 262.5 209 c 128,-1,3
 240 118 240 118 207.5 55.5 c 128,-1,4
 175 -7 175 -7 140.5 -45.5 c 128,-1,5
 106 -84 106 -84 81 -84 c 0,6,7
 66 -84 66 -84 59 -75.5 c 128,-1,8
 52 -67 52 -67 52 -56.5 c 128,-1,9
 52 -46 52 -46 74 -11.5 c 128,-1,10
 96 23 96 23 122.5 67 c 128,-1,11
 149 111 149 111 171 190 c 128,-1,12
 193 269 193 269 193 352.5 c 128,-1,13
 193 436 193 436 176.5 502.5 c 128,-1,14
 160 569 160 569 137 612 c 128,-1,15
 114 655 114 655 91 688 c 128,-1,16
 68 721 68 721 51.5 746.5 c 128,-1,17
 35 772 35 772 35 789.5 c 128,-1,18
 35 807 35 807 49 821 c 128,-1,19
 63 835 63 835 88.5 835 c 128,-1,20
 114 835 114 835 148.5 795.5 c 128,-1,21
 183 756 183 756 213.5 695.5 c 128,-1,0
 244 635 244 635 264.5 552.5 c 128,-1,1
EndSplineSet
Validated: 1
EndChar

StartChar: asterisk
Encoding: 42 42 13
Width: 476
GlyphClass: 2
Flags: W
LayerCount: 2
Fore
SplineSet
204 642 m 1,0,-1
 194 716 l 2,1,2
 194 738 194 738 206 751.5 c 128,-1,3
 218 765 218 765 238 765 c 128,-1,4
 258 765 258 765 270 751.5 c 128,-1,5
 282 738 282 738 282 721 c 128,-1,6
 282 704 282 704 277 679.5 c 128,-1,7
 272 655 272 655 272 642 c 1,8,9
 279 647 279 647 298 662 c 0,10,11
 338 694 338 694 356 694 c 128,-1,12
 374 694 374 694 386 683 c 128,-1,13
 398 672 398 672 398 653.5 c 128,-1,14
 398 635 398 635 381.5 622.5 c 128,-1,15
 365 610 365 610 334 600 c 128,-1,16
 303 590 303 590 298 587 c 1,17,18
 303 584 303 584 334 574 c 128,-1,19
 365 564 365 564 381.5 551.5 c 128,-1,20
 398 539 398 539 398 520 c 128,-1,21
 398 501 398 501 386 490.5 c 128,-1,22
 374 480 374 480 359.5 480 c 128,-1,23
 345 480 345 480 331 488 c 128,-1,24
 317 496 317 496 297.5 511.5 c 128,-1,25
 278 527 278 527 271 532 c 1,26,-1
 282 460 l 2,27,28
 282 438 282 438 270 424 c 128,-1,29
 258 410 258 410 238 410 c 128,-1,30
 218 410 218 410 206 424 c 128,-1,31
 194 438 194 438 194 454.5 c 128,-1,32
 194 471 194 471 199.5 495.5 c 128,-1,33
 205 520 205 520 205 532 c 1,34,35
 198 527 198 527 178 512 c 0,36,37
 139 480 139 480 120.5 480 c 128,-1,38
 102 480 102 480 90 490.5 c 128,-1,39
 78 501 78 501 78 520 c 128,-1,40
 78 539 78 539 94.5 551.5 c 128,-1,41
 111 564 111 564 142 574 c 128,-1,42
 173 584 173 584 178 587 c 1,43,44
 173 590 173 590 142 600 c 128,-1,45
 111 610 111 610 94.5 622.5 c 128,-1,46
 78 635 78 635 78 653.5 c 128,-1,47
 78 672 78 672 90 683 c 128,-1,48
 102 694 102 694 116 694 c 128,-1,49
 130 694 130 694 144 686 c 128,-1,50
 158 678 158 678 177.5 662.5 c 128,-1,51
 197 647 197 647 204 642 c 1,0,-1
EndSplineSet
Validated: 1
EndChar

StartChar: plus
Encoding: 43 43 14
Width: 601
GlyphClass: 2
Flags: W
LayerCount: 2
Fore
SplineSet
113 418 m 2,0,-1
 263 415 l 1,1,2
 263 485 263 485 261 522 c 128,-1,3
 259 559 259 559 259 561 c 0,4,5
 259 584 259 584 270.5 597 c 128,-1,6
 282 610 282 610 301 610 c 128,-1,7
 320 610 320 610 332 596.5 c 128,-1,8
 344 583 344 583 344 560 c 0,9,10
 344 558 344 558 343 540 c 0,11,12
 340 486 340 486 340 415 c 1,13,-1
 490 417 l 2,14,15
 512 417 512 417 526 405 c 128,-1,16
 540 393 540 393 540 375 c 128,-1,17
 540 357 540 357 526 345 c 128,-1,18
 512 333 512 333 490 333 c 2,19,-1
 340 336 l 1,20,-1
 344 177 l 2,21,22
 344 154 344 154 332.5 140 c 128,-1,23
 321 126 321 126 301.5 126 c 128,-1,24
 282 126 282 126 270.5 140.5 c 128,-1,25
 259 155 259 155 259 178 c 2,26,-1
 263 337 l 1,27,-1
 113 334 l 2,28,29
 91 334 91 334 77 346 c 128,-1,30
 63 358 63 358 63 376 c 128,-1,31
 63 394 63 394 77 406 c 128,-1,32
 91 418 91 418 113 418 c 2,0,-1
EndSplineSet
Validated: 1
EndChar

StartChar: comma
Encoding: 44 44 15
Width: 251
GlyphClass: 2
Flags: W
LayerCount: 2
Fore
SplineSet
177 117 m 4,0,1
 177 63 177 63 141 -2 c 132,-1,2
 105 -67 105 -67 74 -67 c 132,-1,3
 43 -67 43 -67 43 -41 c 4,4,5
 43 -27 43 -27 58.5 -1.5 c 132,-1,6
 74 24 74 24 74 43.5 c 132,-1,7
 74 63 74 63 70 81 c 132,-1,8
 66 99 66 99 66 121.5 c 132,-1,9
 66 144 66 144 82 164.5 c 132,-1,10
 98 185 98 185 123.5 185 c 132,-1,11
 149 185 149 185 163 166.5 c 132,-1,12
 177 148 177 148 177 117 c 4,0,1
EndSplineSet
Validated: 1
EndChar

StartChar: hyphen
Encoding: 45 45 16
Width: 498
GlyphClass: 2
Flags: W
LayerCount: 2
Fore
SplineSet
249 336 m 1,0,-1
 130 333 l 2,1,2
 108 333 108 333 94.5 345 c 128,-1,3
 81 357 81 357 81 375 c 128,-1,4
 81 393 81 393 94.5 405 c 128,-1,5
 108 417 108 417 130 417 c 2,6,-1
 249 414 l 1,7,-1
 368 417 l 2,8,9
 390 417 390 417 403.5 405 c 128,-1,10
 417 393 417 393 417 375 c 128,-1,11
 417 357 417 357 403.5 345 c 128,-1,12
 390 333 390 333 368 333 c 2,13,14
 368 333 368 333 249 336 c 1,0,-1
EndSplineSet
Validated: 1
EndChar

StartChar: period
Encoding: 46 46 17
Width: 254
GlyphClass: 2
Flags: W
LayerCount: 2
Fore
SplineSet
185.291992188 136.97265625 m 132,-1,1
 204.063476562 115.0546875 204.063476562 115.0546875 204.063476562 80.890625 c 132,-1,2
 204.063476562 46.7255859375 204.063476562 46.7255859375 180.427734375 19.6494140625 c 132,-1,3
 156.790039062 -7.423828125 156.790039062 -7.423828125 122.7265625 -7.423828125 c 132,-1,4
 88.6630859375 -7.423828125 88.6630859375 -7.423828125 69.1962890625 15.783203125 c 132,-1,5
 49.732421875 38.9892578125 49.732421875 38.9892578125 49.732421875 72.509765625 c 132,-1,6
 49.732421875 106.030273438 49.732421875 106.030273438 72.671875 132.459960938 c 132,-1,7
 95.6142578125 158.889648438 95.6142578125 158.889648438 131.068359375 158.889648438 c 132,-1,0
 166.5234375 158.889648438 166.5234375 158.889648438 185.291992188 136.97265625 c 132,-1,1
EndSplineSet
Validated: 1
EndChar

StartChar: slash
Encoding: 47 47 18
Width: 433
GlyphClass: 2
Flags: W
LayerCount: 2
Fore
SplineSet
284.5 822 m 128,-1,1
 298 835 298 835 318 835 c 128,-1,2
 338 835 338 835 349.5 820 c 128,-1,3
 361 805 361 805 361 789 c 128,-1,4
 361 773 361 773 347 717.5 c 128,-1,5
 333 662 333 662 306 558 c 0,6,7
 234 274 234 274 170 -20 c 0,8,9
 163 -51 163 -51 151.5 -67.5 c 128,-1,10
 140 -84 140 -84 118 -84 c 128,-1,11
 96 -84 96 -84 83.5 -70 c 128,-1,12
 71 -56 71 -56 71 -39.5 c 128,-1,13
 71 -23 71 -23 83 25 c 128,-1,14
 95 73 95 73 123 182 c 0,15,16
 189 439 189 439 267 787 c 0,17,0
 271 809 271 809 284.5 822 c 128,-1,1
EndSplineSet
Validated: 1
EndChar

StartChar: zero
Encoding: 48 48 19
Width: 728
GlyphClass: 2
Flags: W
LayerCount: 2
Fore
SplineSet
559 375 m 4,0,1
 559 454.84375 559 454.84375 538.19140625 520 c 5,2,3
 231 162 l 4,4,5
 285 72 285 72 371 72 c 132,-1,6
 457 72 457 72 508 161 c 132,-1,7
 559 250 559 250 559 375 c 4,0,1
504 589 m 0,8,9
 453 678 453 678 367 678 c 128,-1,10
 281 678 281 678 227 588 c 128,-1,11
 173 498 173 498 173 375 c 0,12,13
 173 290 173 290 199.072265625 220 c 1,14,-1
 504 589 l 0,8,9
574.5 650 m 128,-1,16
 651 535 651 535 651 374.5 c 128,-1,17
 651 214 651 214 574.5 99.5 c 128,-1,18
 498 -15 498 -15 367 -15 c 128,-1,19
 236 -15 236 -15 156.5 100.5 c 128,-1,20
 77 216 77 216 77 375 c 0,21,22
 77 477 77 477 110.5 565 c 128,-1,23
 144 653 144 653 211.5 709 c 128,-1,24
 279 765 279 765 366 765 c 0,25,15
 498 765 498 765 574.5 650 c 128,-1,16
EndSplineSet
Validated: 1
EndChar

StartChar: one
Encoding: 49 49 20
Width: 467
GlyphClass: 2
Flags: W
LayerCount: 2
Fore
SplineSet
331 698 m 2,0,-1
 327 380 l 2,1,2
 327 226 327 226 330.5 147.5 c 128,-1,3
 334 69 334 69 334 61 c 0,4,5
 334 -10 334 -10 283 -10 c 0,6,7
 261 -10 261 -10 249 4 c 128,-1,8
 237 18 237 18 234.5 33.5 c 128,-1,9
 232 49 232 49 232 65.5 c 128,-1,10
 232 82 232 82 235 186 c 128,-1,11
 238 290 238 290 238 379 c 2,12,-1
 237 625 l 1,13,-1
 165 517 l 2,14,15
 160 510 160 510 153 499 c 128,-1,16
 146 488 146 488 142 483 c 128,-1,17
 138 478 138 478 132.5 469.5 c 128,-1,18
 127 461 127 461 123.5 457 c 128,-1,19
 120 453 120 453 115 447 c 128,-1,20
 110 441 110 441 106.5 438.5 c 128,-1,21
 103 436 103 436 98 433 c 0,22,23
 91 428 91 428 76 428 c 128,-1,24
 61 428 61 428 49.5 440 c 128,-1,25
 38 452 38 452 38 469.5 c 128,-1,26
 38 487 38 487 52.5 510 c 128,-1,27
 67 533 67 533 92 564.5 c 128,-1,28
 117 596 117 596 119.5 599.5 c 128,-1,29
 122 603 122 603 126 608 c 128,-1,30
 130 613 130 613 141 627 c 128,-1,31
 152 641 152 641 172.5 669.5 c 128,-1,32
 193 698 193 698 202.5 711 c 128,-1,33
 212 724 212 724 225 738 c 0,34,35
 247 760 247 760 273.5 760 c 128,-1,36
 300 760 300 760 315.5 742 c 128,-1,37
 331 724 331 724 331 698 c 2,0,-1
EndSplineSet
Validated: 1
EndChar

StartChar: two
Encoding: 50 50 21
Width: 618
GlyphClass: 2
Flags: W
LayerCount: 2
Fore
SplineSet
311 0 m 1,0,-1
 126 -5 l 2,1,2
 97 -5 97 -5 79 8.5 c 128,-1,3
 61 22 61 22 61 51.5 c 128,-1,4
 61 81 61 81 97 132.5 c 128,-1,5
 133 184 133 184 184.5 241 c 128,-1,6
 236 298 236 298 288 356 c 0,7,8
 411 493 411 493 411 562 c 0,9,10
 411 617 411 617 376.5 647.5 c 128,-1,11
 342 678 342 678 292 678 c 0,12,13
 264 678 264 678 241 665.5 c 128,-1,14
 218 653 218 653 207 640.5 c 128,-1,15
 196 628 196 628 184.5 610 c 128,-1,16
 173 592 173 592 167 585 c 0,17,18
 150 565 150 565 130 565 c 128,-1,19
 110 565 110 565 97.5 578 c 128,-1,20
 85 591 85 591 85 608 c 0,21,22
 85 656 85 656 145 710.5 c 128,-1,23
 205 765 205 765 300 765 c 128,-1,24
 395 765 395 765 451 708 c 128,-1,25
 507 651 507 651 507 568 c 0,26,27
 507 518 507 518 466 447.5 c 128,-1,28
 425 377 425 377 374.5 319.5 c 128,-1,29
 324 262 324 262 263 192.5 c 128,-1,30
 202 123 202 123 178 87 c 1,31,32
 233 82 233 82 294 82 c 128,-1,33
 355 82 355 82 419 85.5 c 128,-1,34
 483 89 483 89 501 89 c 128,-1,35
 519 89 519 89 535.5 76.5 c 128,-1,36
 552 64 552 64 552 42 c 128,-1,37
 552 20 552 20 535.5 7.5 c 128,-1,38
 519 -5 519 -5 492 -5 c 2,39,-1
 311 0 l 1,0,-1
EndSplineSet
Validated: 1
EndChar

StartChar: three
Encoding: 51 51 22
Width: 628
GlyphClass: 2
Flags: W
LayerCount: 2
Fore
SplineSet
305 750 m 1,0,-1
 471 755 l 2,1,2
 498 755 498 755 515 741 c 128,-1,3
 532 727 532 727 532 705 c 0,4,5
 532 663 532 663 463.5 593.5 c 128,-1,6
 395 524 395 524 354 474 c 1,7,8
 449 449 449 449 505 384 c 128,-1,9
 561 319 561 319 561 237 c 0,10,11
 561 137 561 137 491.5 61 c 128,-1,12
 422 -15 422 -15 302 -15 c 0,13,14
 211 -15 211 -15 141.5 35.5 c 128,-1,15
 72 86 72 86 72 129 c 0,16,17
 72 143 72 143 82 154.5 c 128,-1,18
 92 166 92 166 106.5 166 c 128,-1,19
 121 166 121 166 140 151.5 c 128,-1,20
 159 137 159 137 177.5 119 c 128,-1,21
 196 101 196 101 229 86.5 c 128,-1,22
 262 72 262 72 300 72 c 0,23,24
 372 72 372 72 418.5 118.5 c 128,-1,25
 465 165 465 165 465 234.5 c 128,-1,26
 465 304 465 304 416 348 c 128,-1,27
 367 392 367 392 301 398 c 1,28,29
 268 365 268 365 246 353 c 128,-1,30
 224 341 224 341 198.5 341 c 128,-1,31
 173 341 173 341 159 355.5 c 128,-1,32
 145 370 145 370 145 395.5 c 128,-1,33
 145 421 145 421 172 445.5 c 128,-1,34
 199 470 199 470 253 482 c 1,35,36
 321 557 321 557 410 665 c 1,37,38
 381 668 381 668 324.5 668 c 128,-1,39
 268 668 268 668 214 664.5 c 128,-1,40
 160 661 160 661 143.5 661 c 128,-1,41
 127 661 127 661 110.5 673.5 c 128,-1,42
 94 686 94 686 94 708 c 128,-1,43
 94 730 94 730 110.5 742.5 c 128,-1,44
 127 755 127 755 154 755 c 2,45,-1
 305 750 l 1,0,-1
EndSplineSet
Validated: 1
EndChar

StartChar: four
Encoding: 52 52 23
Width: 648
GlyphClass: 2
Flags: W
LayerCount: 2
Fore
SplineSet
482 329 m 1,0,-1
 533 332 l 2,1,2
 561 332 561 332 577.5 319.5 c 128,-1,3
 594 307 594 307 594 287 c 128,-1,4
 594 267 594 267 577.5 254.5 c 128,-1,5
 561 242 561 242 533 242 c 2,6,-1
 482 243 l 1,7,-1
 488 50 l 2,8,9
 488 23 488 23 475 7 c 128,-1,10
 462 -9 462 -9 438.5 -9 c 128,-1,11
 415 -9 415 -9 402 7 c 128,-1,12
 389 23 389 23 389 50 c 2,13,-1
 393 243 l 1,14,-1
 324 243 l 1,15,-1
 96 242 l 2,16,17
 70 242 70 242 55 256 c 128,-1,18
 40 270 40 270 40 291.5 c 128,-1,19
 40 313 40 313 58.5 341.5 c 128,-1,20
 77 370 77 370 137 446 c 2,21,-1
 341 708 l 2,22,23
 382 760 382 760 425 760 c 0,24,25
 451 760 451 760 469.5 743.5 c 128,-1,26
 488 727 488 727 488 690 c 0,27,28
 488 681 488 681 486 634 c 0,29,30
 482 491 482 491 482 329 c 1,0,-1
157 327 m 1,31,-1
 394 327 l 1,32,33
 394 373 394 373 392.5 492.5 c 128,-1,34
 391 612 391 612 391 629 c 1,35,36
 279 496 279 496 157 327 c 1,31,-1
EndSplineSet
Validated: 1
EndChar

StartChar: five
Encoding: 53 53 24
Width: 645
GlyphClass: 2
Flags: W
LayerCount: 2
Fore
SplineSet
325 750 m 1,0,-1
 477 755 l 2,1,2
 504 755 504 755 520.5 742.5 c 128,-1,3
 537 730 537 730 537 708 c 128,-1,4
 537 686 537 686 520.5 673.5 c 128,-1,5
 504 661 504 661 487.5 661 c 128,-1,6
 471 661 471 661 416.5 665 c 128,-1,7
 362 669 362 669 331 669 c 128,-1,8
 300 669 300 669 255.5 667 c 128,-1,9
 211 665 211 665 193 665 c 1,10,11
 198 628 198 628 198 560 c 2,12,-1
 193 454 l 1,13,14
 261 498 261 498 337 498 c 0,15,16
 451 498 451 498 514 427.5 c 128,-1,17
 577 357 577 357 577 249.5 c 128,-1,18
 577 142 577 142 506 63.5 c 128,-1,19
 435 -15 435 -15 314 -15 c 0,20,21
 213 -15 213 -15 146 41.5 c 128,-1,22
 79 98 79 98 79 150 c 0,23,24
 79 168 79 168 91.5 181.5 c 128,-1,25
 104 195 104 195 118.5 195 c 128,-1,26
 133 195 133 195 142 190 c 128,-1,27
 151 185 151 185 155.5 179.5 c 128,-1,28
 160 174 160 174 168 162 c 0,29,30
 228 72 228 72 321 72 c 0,31,32
 390 72 390 72 436 126 c 128,-1,33
 482 180 482 180 482 251 c 128,-1,34
 482 322 482 322 441.5 368.5 c 128,-1,35
 401 415 401 415 332 415 c 0,36,37
 267 415 267 415 188 359 c 0,38,39
 162 340 162 340 146 340 c 0,40,41
 96 340 96 340 96 390 c 0,42,43
 96 403 96 403 103 461 c 128,-1,44
 110 519 110 519 110 559.5 c 128,-1,45
 110 600 110 600 104 641 c 128,-1,46
 98 682 98 682 98 699 c 0,47,48
 98 754 98 754 164 754 c 2,49,-1
 325 750 l 1,0,-1
EndSplineSet
Validated: 1
EndChar

StartChar: six
Encoding: 54 54 25
Width: 647
GlyphClass: 2
Flags: W
LayerCount: 2
Fore
SplineSet
517 414 m 128,-1,1
 579 341 579 341 579 240.5 c 128,-1,2
 579 140 579 140 514 63 c 128,-1,3
 449 -14 449 -14 331 -14 c 128,-1,4
 213 -14 213 -14 145 70.5 c 128,-1,5
 77 155 77 155 77 285 c 0,6,7
 77 481 77 481 188 620.5 c 128,-1,8
 299 760 299 760 466 760 c 0,9,10
 503 760 503 760 522.5 748 c 128,-1,11
 542 736 542 736 542 717 c 0,12,13
 542 669 542 669 477 669 c 0,14,15
 368 669 368 669 286.5 595.5 c 128,-1,16
 205 522 205 522 182 416 c 1,17,18
 251 487 251 487 353 487 c 128,-1,0
 455 487 455 487 517 414 c 128,-1,1
223.5 121 m 128,-1,20
 264 73 264 73 330 73 c 128,-1,21
 396 73 396 73 439.5 120 c 128,-1,22
 483 167 483 167 483 236 c 128,-1,23
 483 305 483 305 441.5 352.5 c 128,-1,24
 400 400 400 400 335 400 c 128,-1,25
 270 400 270 400 226.5 352.5 c 128,-1,26
 183 305 183 305 183 237 c 128,-1,19
 183 169 183 169 223.5 121 c 128,-1,20
EndSplineSet
Validated: 1
EndChar

StartChar: seven
Encoding: 55 55 26
Width: 560
GlyphClass: 2
Flags: W
LayerCount: 2
Fore
SplineSet
273 750 m 1,0,-1
 439 754 l 2,1,2
 520 754 520 754 520 695 c 0,3,4
 520 673 520 673 498.5 630 c 128,-1,5
 477 587 477 587 434 507 c 0,6,7
 320 295 320 295 244 31 c 0,8,9
 232 -9 232 -9 195 -9 c 0,10,11
 175 -9 175 -9 162 5 c 128,-1,12
 149 19 149 19 149 47 c 128,-1,13
 149 75 149 75 171.5 137 c 128,-1,14
 194 199 194 199 238 301.5 c 128,-1,15
 282 404 282 404 319 481.5 c 128,-1,16
 356 559 356 559 377 601 c 128,-1,17
 398 643 398 643 405 663 c 1,18,19
 353 668 353 668 292.5 668 c 128,-1,20
 232 668 232 668 172.5 664.5 c 128,-1,21
 113 661 113 661 96 661 c 128,-1,22
 79 661 79 661 62.5 673.5 c 128,-1,23
 46 686 46 686 46 708 c 128,-1,24
 46 730 46 730 62.5 742.5 c 128,-1,25
 79 755 79 755 106 755 c 2,26,-1
 273 750 l 1,0,-1
EndSplineSet
Validated: 1
EndChar

StartChar: eight
Encoding: 56 56 27
Width: 646
GlyphClass: 2
Flags: W
LayerCount: 2
Fore
SplineSet
572 204 m 0,0,1
 572 113 572 113 502 49 c 128,-1,2
 432 -15 432 -15 323 -15 c 128,-1,3
 214 -15 214 -15 144 49 c 128,-1,4
 74 113 74 113 74 204 c 0,5,6
 74 337 74 337 237 419 c 1,7,8
 114 491 114 491 114 590 c 0,9,10
 114 662 114 662 173.5 714 c 128,-1,11
 233 766 233 766 322.5 766 c 128,-1,12
 412 766 412 766 472 714 c 128,-1,13
 532 662 532 662 532 590 c 0,14,15
 532 494 532 494 416 419 c 1,16,17
 572 336 572 336 572 204 c 0,0,1
476 204 m 0,18,19
 476 304 476 304 323 371 c 1,20,21
 170 304 170 304 170 204 c 0,22,23
 170 145 170 145 214 108.5 c 128,-1,24
 258 72 258 72 323 72 c 128,-1,25
 388 72 388 72 432 108.5 c 128,-1,26
 476 145 476 145 476 204 c 0,18,19
439 590 m 128,-1,28
 439 627 439 627 403.5 653 c 128,-1,29
 368 679 368 679 323.5 679 c 128,-1,30
 279 679 279 679 243 653 c 128,-1,31
 207 627 207 627 207 590.5 c 128,-1,32
 207 554 207 554 238 525 c 128,-1,33
 269 496 269 496 325 464 c 1,34,35
 379 494 379 494 409 523.5 c 128,-1,27
 439 553 439 553 439 590 c 128,-1,28
EndSplineSet
Validated: 1
EndChar

StartChar: nine
Encoding: 57 57 28
Width: 645
GlyphClass: 2
Flags: W
LayerCount: 2
Fore
SplineSet
128 341 m 128,-1,1
 66 417 66 417 66 516.5 c 128,-1,2
 66 616 66 616 134 690.5 c 128,-1,3
 202 765 202 765 317 765 c 128,-1,4
 432 765 432 765 500 681 c 128,-1,5
 568 597 568 597 568 466 c 0,6,7
 568 263 568 263 457.5 124.5 c 128,-1,8
 347 -14 347 -14 179 -14 c 0,9,10
 143 -14 143 -14 123.5 -1 c 128,-1,11
 104 12 104 12 104 31.5 c 128,-1,12
 104 51 104 51 120 65.5 c 128,-1,13
 136 80 136 80 170 80 c 0,14,15
 279 80 279 80 359.5 153.5 c 128,-1,16
 440 227 440 227 464 337 c 1,17,18
 392 265 392 265 291 265 c 128,-1,0
 190 265 190 265 128 341 c 128,-1,1
205 631 m 128,-1,20
 162 584 162 584 162 515 c 128,-1,21
 162 446 162 446 201.5 399 c 128,-1,22
 241 352 241 352 309 352 c 128,-1,23
 377 352 377 352 421 403.5 c 128,-1,24
 465 455 465 455 465 521 c 128,-1,25
 465 587 465 587 421.5 632.5 c 128,-1,26
 378 678 378 678 313 678 c 128,-1,19
 248 678 248 678 205 631 c 128,-1,20
EndSplineSet
Validated: 1
EndChar

StartChar: colon
Encoding: 58 58 29
Width: 583
GlyphClass: 2
Flags: W
LayerCount: 2
Fore
SplineSet
336 310 m 6,0,-1
 252 313 l 1,1,2
 258 225 258 225 242 179.5 c 128,-1,3
 226 134 226 134 200 86 c 1,4,5
 235 82 235 82 287 82 c 128,-1,6
 339 82 339 82 394 85.5 c 128,-1,7
 449 89 449 89 466 89 c 128,-1,8
 483 89 483 89 499.5 76.5 c 128,-1,9
 516 64 516 64 516 42 c 128,-1,10
 516 20 516 20 500 8 c 0,11,12
 482.199115044 -5.84513274336 482.199115044 -5.84513274336 456 -5 c 2,13,-1
 301 0 l 1,14,-1
 147 -5 l 2,15,16
 120 -6 120 -6 102 10 c 0,17,18
 86 25 86 25 86 53 c 128,-1,19
 86 81 86 81 104.5 112 c 128,-1,20
 123 143 123 143 142 182 c 128,-1,21
 161 221 161 221 161.5 257.5 c 128,-1,22
 162 294 162 294 161 311 c 1,23,24
 153 310 153 310 130 310 c 0,25,26
 75 310 75 310 75 350.5 c 128,-1,27
 75 391 75 391 128 391 c 0,28,29
 132 391 132 391 139 390.5 c 128,-1,30
 146 390 146 390 149 390 c 1,31,32
 146 406 146 406 138 437 c 0,33,34
 122 505 122 505 122 544 c 0,35,36
 122 664 122 664 174.5 712.5 c 128,-1,37
 227 761 227 761 319 761 c 1,38,-1
 312 666 l 1,39,40
 269 666 269 666 243.5 643 c 128,-1,41
 218 620 218 620 218 564 c 128,-1,42
 218 508 218 508 241 388 c 1,43,-1
 336 391 l 6,44,-1
 355.5 380 l 4,45,46
 370 369 370 369 370 351 c 4,47,48
 370 328 370 328 356 322 c 4,49,-1
 336 310 l 6,0,-1
EndSplineSet
EndChar

StartChar: semicolon
Encoding: 59 59 30
Width: 593
GlyphClass: 2
Flags: W
LayerCount: 2
Fore
SplineSet
328 750 m 1,0,-1
 477 756 l 2,1,2
 504 756 504 756 520.5 743.5 c 128,-1,3
 537 731 537 731 537 709.5 c 128,-1,4
 537 688 537 688 518 675 c 128,-1,5
 499 662 499 662 469 662 c 1,6,7
 468 600 468 600 468 257 c 0,8,9
 468 184 468 184 447.5 129 c 128,-1,10
 427 74 427 74 393 44 c 0,11,12
 326 -15 326 -15 240.5 -15 c 128,-1,13
 155 -15 155 -15 100.5 19.5 c 128,-1,14
 46 54 46 54 46 87 c 0,15,16
 46 106 46 106 57 117.5 c 128,-1,17
 68 129 68 129 86 129 c 128,-1,18
 104 129 104 129 122 115 c 128,-1,19
 140 101 140 101 168 86.5 c 128,-1,20
 196 72 196 72 237 72 c 0,21,22
 295 72 295 72 336.5 121.5 c 128,-1,23
 378 171 378 171 378 278 c 2,24,-1
 375 667 l 1,25,26
 312 667 312 667 261 664 c 128,-1,27
 210 661 210 661 191 661 c 128,-1,28
 172 661 172 661 155.5 673.5 c 128,-1,29
 139 686 139 686 139 708 c 128,-1,30
 139 730 139 730 155.5 742.5 c 128,-1,31
 172 755 172 755 199 755 c 2,32,-1
 328 750 l 1,0,-1
EndSplineSet
EndChar

StartChar: less
Encoding: 60 60 31
Width: 651
GlyphClass: 2
Flags: W
LayerCount: 2
Fore
SplineSet
505 578 m 0,0,1
 498 476 498 476 491 374 c 1,2,3
 422 356 422 356 351.25 362 c 0,4,5
 317 365 317 365 257 412 c 5,6,-1
 505 578 l 0,0,1
380 679 m 0,7,8
 446 679 446 679 490 656 c 1,9,-1
 203 466 l 1,10,11
 203 598 203 598 233.5 628.75 c 0,12,13
 284 679 284 679 380 679 c 0,7,8
590 48 m 2,14,-1
 582 382 l 1,15,16
 582 629 582 629 588 629 c 0,17,18
 610 632 610 632 621 644 c 128,-1,19
 632 656 632 656 632 675.5 c 128,-1,20
 632 695 632 695 603 714 c 128,-1,21
 574 733 574 733 532 744 c 0,22,23
 448 765 448 765 386 765 c 0,24,25
 236 765 236 765 158 694 c 128,-1,26
 80 623 80 623 80 520 c 128,-1,27
 80 417 80 417 158 345.5 c 128,-1,28
 236 274 236 274 360 274 c 0,29,30
 453 274 453 274 493 285 c 1,31,-1
 488 48 l 2,32,33
 488 22 488 22 502 6 c 128,-1,34
 516 -10 516 -10 538.5 -10 c 128,-1,35
 561 -10 561 -10 575.5 6 c 128,-1,36
 590 22 590 22 590 48 c 2,14,-1
EndSplineSet
EndChar

StartChar: equal
Encoding: 61 61 32
Width: 862
GlyphClass: 2
Flags: W
LayerCount: 2
Fore
SplineSet
740.095703125 675.31640625 m 128,-1,1
 757.822265625 653.595703125 757.822265625 653.595703125 757.822265625 622.387695312 c 128,-1,2
 757.822265625 591.1796875 757.822265625 591.1796875 740.095703125 569.458984375 c 128,-1,3
 722.369140625 547.73828125 722.369140625 547.73828125 693.913085938 547.73828125 c 128,-1,4
 665.456054688 547.73828125 665.456054688 547.73828125 647.729492188 569.208984375 c 128,-1,5
 630.000976562 590.681640625 630.000976562 590.681640625 630.000976562 622.138671875 c 128,-1,6
 630.000976562 653.595703125 630.000976562 653.595703125 647.729492188 675.31640625 c 128,-1,7
 665.456054688 697.038085938 665.456054688 697.038085938 693.913085938 697.038085938 c 128,-1,0
 722.369140625 697.038085938 722.369140625 697.038085938 740.095703125 675.31640625 c 128,-1,1
569.948242188 705.837890625 m 0,8,9
 599 672 599 672 598.780273438 624.240234375 c 0,10,11
 599 576 599 576 569.948242188 542.640625 c 0,12,13
 541 509 541 509 494.830078125 509.155273438 c 0,14,15
 449 509 449 509 419.712890625 542.255859375 c 0,16,17
 391 575 391 575 390.877929688 623.856445312 c 0,18,19
 391 672 391 672 419.712890625 705.837890625 c 0,20,21
 449 739 449 739 494.830078125 739.325195312 c 0,22,23
 541 739 541 739 569.948242188 705.837890625 c 0,8,9
539.596679688 623.856445312 m 0,24,25
 540 651 540 651 527.836914062 668.50390625 c 0,26,27
 516 686 516 686 494.830078125 686.208984375 c 0,28,29
 474 686 474 686 461.444335938 668.50390625 c 128,-1,30
 449 651 449 651 449.303710938 624.240234375 c 0,31,32
 449 598 449 598 461.444335938 579.9765625 c 128,-1,33
 474 562 474 562 494.830078125 562.271484375 c 0,34,35
 516 562 516 562 527.836914062 579.591796875 c 0,36,37
 540 597 540 597 539.596679688 623.856445312 c 0,24,25
330.911132812 675.31640625 m 0,38,39
 349 654 349 654 348.637695312 622.387695312 c 0,40,41
 349 591 349 591 330.911132812 569.458984375 c 128,-1,42
 313 548 313 548 284.728515625 547.73828125 c 0,43,44
 256 548 256 548 238.544921875 569.208984375 c 0,45,46
 221 591 221 591 220.817382812 622.138671875 c 0,47,48
 221 654 221 654 238.544921875 675.31640625 c 0,49,50
 256 697 256 697 284.728515625 697.038085938 c 0,51,52
 313 697 313 697 330.911132812 675.31640625 c 0,38,39
144.375 675.31640625 m 0,53,54
 162 654 162 654 162.1015625 622.387695312 c 0,55,56
 162 591 162 591 144.375 569.458984375 c 0,57,58
 127 548 127 548 98.19140625 547.73828125 c 0,59,60
 70 548 70 548 52.0078125 569.208984375 c 0,61,62
 34 591 34 591 34.2802734375 622.138671875 c 0,63,64
 34 654 34 654 52.0078125 675.31640625 c 0,65,66
 70 697 70 697 98.19140625 697.038085938 c 0,67,68
 127 697 127 697 144.375 675.31640625 c 0,53,54
796 244 m 5,69,-1
 801 78 l 6,70,71
 802 52 802 52 787 34 c 4,72,73
 773 17 773 17 751 17 c 4,74,75
 709 17 709 17 639.5 85.5 c 132,-1,76
 570 154 570 154 520 195 c 5,77,78
 495 100 495 100 430 44 c 132,-1,79
 365 -12 365 -12 283 -12 c 4,80,81
 183 -12 183 -12 107 57.5 c 132,-1,82
 31 127 31 127 31 247 c 4,83,84
 31 338 31 338 81.5 407.5 c 132,-1,85
 132 477 132 477 175 477 c 4,86,87
 189 477 189 477 200.5 467 c 132,-1,88
 212 457 212 457 212 442.5 c 132,-1,89
 212 428 212 428 197.5 409 c 132,-1,90
 183 390 183 390 165 371.5 c 132,-1,91
 147 353 147 353 132.5 320 c 132,-1,92
 118 287 118 287 118 249 c 4,93,94
 118 177 118 177 164.5 130.5 c 132,-1,95
 211 84 211 84 280.5 84 c 132,-1,96
 350 84 350 84 394 133 c 132,-1,97
 438 182 438 182 444 248 c 5,98,99
 411 281 411 281 399 303 c 132,-1,100
 387 325 387 325 387 350.5 c 132,-1,101
 387 376 387 376 401.5 390 c 132,-1,102
 416 404 416 404 441.5 404 c 132,-1,103
 467 404 467 404 491.5 377 c 132,-1,104
 516 350 516 350 528 296 c 5,105,106
 603 228 603 228 711 139 c 5,107,108
 714 168 714 168 714 224.5 c 132,-1,109
 714 281 714 281 710.5 335 c 132,-1,110
 707 389 707 389 707 405.5 c 132,-1,111
 707 422 707 422 719.5 438.5 c 132,-1,112
 732 455 732 455 754 455 c 132,-1,113
 776 455 776 455 788.5 438.5 c 4,114,115
 801.866650988 421.172859831 801.866650988 421.172859831 801 395 c 6,116,-1
 796 244 l 5,69,-1
EndSplineSet
EndChar

StartChar: greater
Encoding: 62 62 33
Width: 696
GlyphClass: 2
Flags: W
LayerCount: 2
Fore
SplineSet
328 311 m 1,0,1
 307 278 307 278 260 201.5 c 128,-1,2
 213 125 213 125 202 108.5 c 128,-1,3
 191 92 191 92 180.5 75 c 128,-1,4
 170 58 170 58 165 50 c 2,5,6
 165 50 165 50 152 31 c 0,7,8
 143 17 143 17 131 6 c 0,9,10
 114 -10 114 -10 96.5 -10 c 128,-1,11
 79 -10 79 -10 67 2 c 128,-1,12
 55 14 55 14 55 28 c 128,-1,13
 55 42 55 42 61.5 56.5 c 128,-1,14
 68 71 68 71 86.5 99.5 c 128,-1,15
 105 128 105 128 126 160 c 0,16,17
 219 294 219 294 278 387 c 1,18,19
 188 547 188 547 130 636 c 0,20,21
 106 672 106 672 74 672 c 0,22,23
 56 672 56 672 52 678 c 128,-1,24
 48 684 48 684 48 695 c 0,25,26
 48 726 48 726 66.5 744.5 c 128,-1,27
 85 763 85 763 110 763 c 128,-1,28
 135 763 135 763 154.5 750 c 128,-1,29
 174 737 174 737 201 698 c 0,30,31
 211 682 211 682 336 465 c 1,32,33
 361 505 361 505 407.5 582.5 c 128,-1,34
 454 660 454 660 464 676.5 c 128,-1,35
 474 693 474 693 478.5 701 c 128,-1,36
 483 709 483 709 490.5 720.5 c 128,-1,37
 498 732 498 732 503 737.5 c 128,-1,38
 508 743 508 743 514 749 c 0,39,40
 526 760 526 760 544 760 c 128,-1,41
 562 760 562 760 573.5 747.5 c 128,-1,42
 585 735 585 735 585 718 c 128,-1,43
 585 701 585 701 565 666.5 c 128,-1,44
 545 632 545 632 480 532.5 c 128,-1,45
 415 433 415 433 386 388 c 1,46,47
 524 168 524 168 561.5 123 c 128,-1,48
 599 78 599 78 626 78 c 0,49,50
 641 78 641 78 644.5 72.5 c 128,-1,51
 648 67 648 67 648 57 c 0,52,53
 648 26 648 26 629.5 6.5 c 128,-1,54
 611 -13 611 -13 585 -13 c 0,55,56
 544 -13 544 -13 495 53 c 0,57,58
 468 89 468 89 328 311 c 1,0,1
EndSplineSet
EndChar

StartChar: question
Encoding: 63 63 34
Width: 616
GlyphClass: 2
Flags: W
LayerCount: 2
Fore
SplineSet
284 440 m 2,0,-1
 454 445 l 2,1,2
 481 445 481 445 497 432.5 c 128,-1,3
 513 420 513 420 513 399 c 0,4,5
 513 355 513 355 454 355 c 2,6,-1
 284 359 l 2,7,8
 240 359 240 359 217 358 c 1,9,10
 217 227 217 227 220 148 c 128,-1,11
 223 69 223 69 223 61 c 0,12,13
 223 -10 223 -10 172 -10 c 128,-1,14
 121 -10 121 -10 121 61 c 0,15,16
 121 69 121 69 122 108 c 0,17,18
 127 225 127 225 127 355 c 1,19,20
 60 355 60 355 60 399 c 0,21,22
 60 422 60 422 79 433.5 c 128,-1,23
 98 445 98 445 127 445 c 1,24,25
 125 632 125 632 120 670 c 1,26,27
 108 689 108 689 108 710 c 0,28,29
 108 755 108 755 170 755 c 2,30,-1
 355 750 l 1,31,-1
 515 756 l 2,32,33
 542 756 542 756 558.5 743.5 c 128,-1,34
 575 731 575 731 575 709 c 128,-1,35
 575 687 575 687 558.5 674.5 c 128,-1,36
 542 662 542 662 515 662 c 2,37,-1
 355 668 l 2,38,39
 277 668 277 668 217 663 c 1,40,-1
 217 441 l 1,41,42
 236 440 236 440 284 440 c 2,0,-1
EndSplineSet
EndChar

StartChar: at
Encoding: 64 64 35
Width: 938
GlyphClass: 2
Flags: W
LayerCount: 2
Fore
SplineSet
864 369 m 0,0,1
 864 266 864 266 813.5 196.5 c 128,-1,2
 763 127 763 127 692 127 c 0,3,4
 603 127 603 127 575 210 c 1,5,6
 518 127 518 127 429 127 c 0,7,8
 385 127 385 127 350 148 c 128,-1,9
 315 169 315 169 296 202 c 0,10,11
 257 267 257 267 257 342 c 0,12,13
 257 437 257 437 315.5 506.5 c 128,-1,14
 374 576 374 576 465 576 c 0,15,16
 514 576 514 576 564 540 c 1,17,18
 578 576 578 576 610 576 c 0,19,20
 664 576 664 576 664 496 c 0,21,22
 664 486 664 486 654 421 c 128,-1,23
 644 356 644 356 644 313 c 0,24,25
 644 209 644 209 691 209 c 0,26,27
 723 209 723 209 748.5 247.5 c 128,-1,28
 774 286 774 286 774 371 c 0,29,30
 774 521 774 521 685.5 599.5 c 128,-1,31
 597 678 597 678 468 678 c 128,-1,32
 339 678 339 678 249 581 c 128,-1,33
 159 484 159 484 159 338.5 c 128,-1,34
 159 193 159 193 236 109.5 c 128,-1,35
 313 26 313 26 421 26 c 0,36,37
 474 26 474 26 531 48.5 c 128,-1,38
 588 71 588 71 592 71 c 0,39,40
 608 71 608 71 618 61.5 c 128,-1,41
 628 52 628 52 628 37 c 0,42,43
 628 10 628 10 566.5 -22.5 c 128,-1,44
 505 -55 505 -55 417 -55 c 0,45,46
 268 -55 268 -55 166 54.5 c 128,-1,47
 64 164 64 164 64 338.5 c 128,-1,48
 64 513 64 513 180 639 c 128,-1,49
 296 765 296 765 467.5 765 c 128,-1,50
 639 765 639 765 751.5 658 c 128,-1,51
 864 551 864 551 864 369 c 0,0,1
561 334 m 1,52,-1
 561 453 l 1,53,54
 512 489 512 489 465.5 489 c 128,-1,55
 419 489 419 489 385.5 447.5 c 128,-1,56
 352 406 352 406 352 348.5 c 128,-1,57
 352 291 352 291 372 252 c 128,-1,58
 392 213 392 213 432.5 213 c 128,-1,59
 473 213 473 213 505.5 248 c 128,-1,60
 538 283 538 283 561 334 c 1,52,-1
EndSplineSet
Validated: 1
EndChar

StartChar: A
Encoding: 65 65 36
Width: 692
GlyphClass: 2
Flags: W
LayerCount: 2
Fore
SplineSet
476 241 m 1,0,-1
 347 244 l 2,1,2
 251 244 251 244 207 242 c 1,3,4
 196 209 196 209 175.5 138.5 c 128,-1,5
 155 68 155 68 142 29 c 128,-1,6
 129 -10 129 -10 96 -10 c 0,7,8
 77 -10 77 -10 65.5 2 c 128,-1,9
 54 14 54 14 54 28.5 c 128,-1,10
 54 43 54 43 55.5 52 c 128,-1,11
 57 61 57 61 62.5 79 c 128,-1,12
 68 97 68 97 74 113 c 0,13,14
 103 199 103 199 116 239 c 1,15,16
 87 239 87 239 70.5 251.5 c 128,-1,17
 54 264 54 264 54 285 c 0,18,19
 54 332 54 332 128 332 c 2,20,-1
 146 332 l 1,21,22
 242 600 242 600 256.5 638.5 c 128,-1,23
 271 677 271 677 273 683 c 128,-1,24
 275 689 275 689 279.5 700.5 c 128,-1,25
 284 712 284 712 287.5 717.5 c 128,-1,26
 291 723 291 723 296 731 c 128,-1,27
 301 739 301 739 305.5 743.5 c 128,-1,28
 310 748 310 748 316 752 c 0,29,30
 329 760 329 760 343.5 760 c 128,-1,31
 358 760 358 760 367 757 c 128,-1,32
 376 754 376 754 384 746 c 128,-1,33
 392 738 392 738 397.5 729 c 128,-1,34
 403 720 403 720 410.5 701 c 128,-1,35
 418 682 418 682 424 666 c 0,36,37
 472 519 472 519 544 332 c 1,38,-1
 580 333 l 2,39,40
 606 333 606 333 622.5 319 c 128,-1,41
 639 305 639 305 639 284 c 0,42,43
 639 240 639 240 573 237 c 1,44,45
 583 205 583 205 600 156 c 0,46,47
 639 50 639 50 639 33.5 c 128,-1,48
 639 17 639 17 627.5 3.5 c 128,-1,49
 616 -10 616 -10 596 -10 c 0,50,51
 560 -10 560 -10 544 29 c 0,52,53
 527 78 527 78 476 241 c 1,0,-1
232 328 m 1,54,55
 296 326 296 326 355.5 326 c 128,-1,56
 415 326 415 326 451 328 c 1,57,58
 346 630 346 630 344 630 c 0,59,60
 338 630 338 630 258 404 c 2,61,-1
 232 328 l 1,54,55
EndSplineSet
EndChar

StartChar: B
Encoding: 66 66 37
Width: 651
GlyphClass: 2
Flags: W
LayerCount: 2
Fore
SplineSet
572.393554688 55.251953125 m 5,0,-1
 572.393554688 87.54296875 l 5,1,-1
 227.163085938 87.54296875 l 5,2,3
 380 132 380 132 440.32421875 148.538085938 c 4,4,5
 465 155 465 155 464.91796875 163.287109375 c 4,6,7
 465 171 465 171 451.44921875 175.646484375 c 4,8,9
 435 182 435 182 422.169921875 180.430664062 c 4,10,11
 407 179 407 179 395.23046875 179.036132812 c 4,12,13
 390 179 390 179 367.708007812 173.055664062 c 4,14,15
 350 169 350 169 337.256835938 164.0859375 c 4,16,17
 280 145 280 145 252.931640625 136.776367188 c 4,18,19
 226 128 226 128 180.900390625 114.453125 c 4,20,21
 135 101 135 101 99.5 89.138671875 c 4,22,23
 74 81 74 81 73.7353515625 71.3974609375 c 4,24,25
 73 61 73 61 99.5 53.6572265625 c 4,26,27
 136 43 136 43 180.900390625 28.33984375 c 4,28,29
 225 14 225 14 242.9765625 9.0068359375 c 132,-1,30
 261 4 261 4 291.578125 -6.341796875 c 4,31,32
 323 -16 323 -16 337.256835938 -21.091796875 c 4,33,34
 350 -26 350 -26 367.708007812 -30.4609375 c 4,35,36
 393 -38 393 -38 416.314453125 -37.6357421875 c 4,37,38
 438 -38 438 -38 451.44921875 -32.8525390625 c 4,39,40
 465 -28 465 -28 464.91796875 -20.4951171875 c 132,-1,41
 465 -13 465 -13 440.32421875 -5.744140625 c 4,42,43
 281 39 281 39 227.163085938 55.251953125 c 5,44,-1
 572.393554688 55.251953125 l 5,0,-1
306.08984375 310 m 0,45,46
 242 310 242 310 199.389648438 327.48046875 c 1,47,48
 196 364 196 364 196.48046875 417.16015625 c 0,49,50
 196 470 196 470 198.419921875 503.799804688 c 1,51,52
 258 515 258 515 328.884765625 515.200195312 c 0,53,54
 400 515 400 515 452.075195312 481 c 128,-1,55
 504 447 504 447 503.969726562 412.219726562 c 0,56,57
 504 378 504 378 451.58984375 343.8203125 c 0,58,59
 399 310 399 310 306.08984375 310 c 0,45,46
102.389648438 703.6796875 m 2,60,-1
 110.150390625 497.719726562 l 1,61,62
 110 348 110 348 104.330078125 348 c 0,63,64
 83 346 83 346 72.3203125 336.599609375 c 0,65,66
 62 327 62 327 61.650390625 312.66015625 c 0,67,68
 62 298 62 298 89.7802734375 283.400390625 c 0,69,70
 118 269 118 269 158.650390625 260.599609375 c 0,71,72
 240 245 240 245 300.26953125 244.639648438 c 0,73,74
 446 245 446 245 521.4296875 298.599609375 c 0,75,76
 597 353 597 353 597.08984375 411.83984375 c 0,77,78
 597 471 597 471 521.4296875 525.459960938 c 128,-1,79
 446 580 446 580 325.490234375 579.799804688 c 0,80,81
 235 580 235 580 196.48046875 571.440429688 c 1,82,-1
 201.330078125 703.6796875 l 2,83,84
 202 724 202 724 187.75 735.599609375 c 0,85,86
 174 748 174 748 152.344726562 747.759765625 c 0,87,88
 131 748 131 748 116.455078125 735.599609375 c 128,-1,89
 102 723 102 723 102.389648438 703.6796875 c 2,60,-1
EndSplineSet
EndChar

StartChar: C
Encoding: 67 67 38
Width: 708
GlyphClass: 2
Flags: W
LayerCount: 2
Fore
SplineSet
658.243164062 227.880859375 m 4,0,1
 658.243164062 198.451171875 658.243164062 198.451171875 582.674804688 163.708007812 c 132,-1,2
 507.10546875 128.9609375 507.10546875 128.9609375 404.65625 128.9609375 c 4,3,4
 259.606445312 128.9609375 259.606445312 128.9609375 163.243164062 222.16015625 c 132,-1,5
 66.8798828125 315.357421875 66.8798828125 315.357421875 66.8798828125 448.612304688 c 132,-1,6
 66.8798828125 581.8671875 66.8798828125 581.8671875 163.75 674.248046875 c 132,-1,7
 260.619140625 766.627929688 260.619140625 766.627929688 406.684570312 766.627929688 c 4,8,9
 495.948242188 766.627929688 495.948242188 766.627929688 566.444335938 739.650390625 c 132,-1,10
 636.942382812 712.671875 636.942382812 712.671875 636.942382812 679.15234375 c 4,11,12
 636.942382812 662.801757812 636.942382812 662.801757812 624.770507812 652.9921875 c 132,-1,13
 612.59765625 643.182617188 612.59765625 643.182617188 591.802734375 643.182617188 c 132,-1,14
 571.009765625 643.182617188 571.009765625 643.182617188 536.522460938 661.984375 c 4,15,16
 471.603515625 695.502929688 471.603515625 695.502929688 406.684570312 695.502929688 c 4,17,18
 301.194335938 695.502929688 301.194335938 695.502929688 232.725585938 622.334960938 c 132,-1,19
 164.2578125 549.16796875 164.2578125 549.16796875 164.2578125 449.020507812 c 132,-1,20
 164.2578125 348.875 164.2578125 348.875 232.725585938 274.481445312 c 132,-1,21
 301.194335938 200.084960938 301.194335938 200.084960938 400.599609375 200.084960938 c 132,-1,22
 500.005859375 200.084960938 500.005859375 200.084960938 582.166992188 240.146484375 c 4,23,24
 615.640625 254.858398438 615.640625 254.858398438 627.305664062 254.858398438 c 132,-1,25
 638.970703125 254.858398438 638.970703125 254.858398438 648.606445312 247.094726562 c 132,-1,26
 658.243164062 239.327148438 658.243164062 239.327148438 658.243164062 227.880859375 c 4,0,1
349.5 62 m 1,27,-1
 589.5 65 l 2,28,29
 611 65 611 65 625 53 c 0,30,31
 638 41 638 41 638.5 23 c 0,32,33
 638 5 638 5 625 -7 c 0,34,35
 610.690965092 -19.2648870637 610.690965092 -19.2648870637 589.5 -19 c 2,36,-1
 349.5 -16 l 1,37,-1
 159.5 -19 l 2,38,39
 138 -19 138 -19 124 -7 c 128,-1,40
 110 5 110 5 110.5 23 c 0,41,42
 110 41 110 41 124 53 c 0,43,44
 138.388888889 65.3333333333 138.388888889 65.3333333333 159.5 65 c 2,45,-1
 349.5 62 l 1,27,-1
EndSplineSet
EndChar

StartChar: D
Encoding: 68 68 39
Width: 759
GlyphClass: 2
Flags: W
LayerCount: 2
Fore
SplineSet
128 376 m 1,0,-1
 123 636 l 1,1,2
 79 640 79 640 79 677.5 c 128,-1,3
 79 715 79 715 158 739.5 c 128,-1,4
 237 764 237 764 321.5 764 c 128,-1,5
 406 764 406 764 479 731 c 128,-1,6
 552 698 552 698 596 642 c 0,7,8
 687 528 687 528 687 372 c 0,9,10
 687 220 687 220 600 108 c 0,11,12
 557 52 557 52 486 18.5 c 128,-1,13
 415 -15 415 -15 317 -15 c 128,-1,14
 219 -15 219 -15 147 10 c 128,-1,15
 75 35 75 35 75 74 c 0,16,17
 75 111 75 111 125 111 c 1,18,-1
 128 376 l 1,0,-1
519.5 589.5 m 128,-1,20
 448 678 448 678 313 678 c 0,21,22
 256 678 256 678 222 661 c 1,23,24
 219 599 219 599 219 390.5 c 128,-1,25
 219 182 219 182 224 85 c 1,26,27
 260 72 260 72 325 72 c 128,-1,28
 390 72 390 72 442.5 98 c 128,-1,29
 495 124 495 124 526 168 c 0,30,31
 591 258 591 258 591 379.5 c 128,-1,19
 591 501 591 501 519.5 589.5 c 128,-1,20
EndSplineSet
EndChar

StartChar: E
Encoding: 69 69 40
Width: 639
GlyphClass: 2
Flags: W
LayerCount: 2
Fore
SplineSet
461.543945312 233.231445312 m 132,-1,1
 470.658203125 224.310546875 470.658203125 224.310546875 470.658203125 210.404296875 c 132,-1,2
 470.658203125 196.498046875 470.658203125 196.498046875 459.181640625 185.477539062 c 132,-1,3
 447.704101562 174.458007812 447.704101562 174.458007812 431.165039062 174.458007812 c 132,-1,4
 414.624023438 174.458007812 414.624023438 174.458007812 405.171875 183.903320312 c 132,-1,5
 395.720703125 193.349609375 395.720703125 193.349609375 395.720703125 206.993164062 c 132,-1,6
 395.720703125 220.63671875 395.720703125 220.63671875 406.860351562 231.395507812 c 132,-1,7
 418 242.153320312 418 242.153320312 435.21484375 242.153320312 c 132,-1,0
 452.430664062 242.153320312 452.430664062 242.153320312 461.543945312 233.231445312 c 132,-1,1
540.149414062 467.560546875 m 4,8,9
 540.149414062 447.040039062 540.149414062 447.040039062 532.724609375 427.600585938 c 132,-1,10
 525.299804688 408.16015625 525.299804688 408.16015625 518.325195312 398.169921875 c 132,-1,11
 511.349609375 388.180664062 511.349609375 388.180664062 496.950195312 370.360351562 c 5,12,13
 483.450195312 356.860351562 483.450195312 356.860351562 476.474609375 349.030273438 c 132,-1,14
 469.5 341.200195312 469.5 341.200195312 462.974609375 328.240234375 c 132,-1,15
 456.450195312 315.280273438 456.450195312 315.280273438 456.450195312 302.3203125 c 4,16,17
 456.450195312 266.680664062 456.450195312 266.680664062 436.200195312 266.680664062 c 4,18,19
 427.200195312 266.680664062 427.200195312 266.680664062 421.349609375 276.129882812 c 132,-1,20
 415.5 285.580078125 415.5 285.580078125 415.5 301.240234375 c 132,-1,21
 415.5 316.900390625 415.5 316.900390625 419.099609375 329.860351562 c 132,-1,22
 422.700195312 342.8203125 422.700195312 342.8203125 431.25 355.240234375 c 4,23,24
 442.950195312 371.98046875 442.950195312 371.98046875 464.549804688 395.200195312 c 5,25,26
 475.349609375 409.780273438 475.349609375 409.780273438 480.75 417.879882812 c 132,-1,27
 486.149414062 425.98046875 486.149414062 425.98046875 491.549804688 440.020507812 c 132,-1,28
 496.950195312 454.060546875 496.950195312 454.060546875 496.950195312 467.560546875 c 4,29,30
 496.950195312 490.780273438 496.950195312 490.780273438 482.325195312 505.629882812 c 132,-1,31
 467.700195312 520.48046875 467.700195312 520.48046875 449.25 520.48046875 c 4,32,33
 421.799804688 520.48046875 421.799804688 520.48046875 402 496.720703125 c 4,34,35
 391.200195312 481.600585938 391.200195312 481.600585938 382.424804688 481.600585938 c 132,-1,36
 373.649414062 481.600585938 373.649414062 481.600585938 368.700195312 488.350585938 c 132,-1,37
 363.75 495.100585938 363.75 495.100585938 363.75 504.280273438 c 4,38,39
 363.75 524.799804688 363.75 524.799804688 389.625 546.400390625 c 132,-1,40
 415.5 568 415.5 568 447 568 c 4,41,42
 488.399414062 568 488.399414062 568 514.274414062 539.110351562 c 132,-1,43
 540.149414062 510.220703125 540.149414062 510.220703125 540.149414062 467.560546875 c 4,8,9
514 662 m 2,44,-1
 355 668 l 2,45,46
 302 670 302 670 218 663 c 1,47,-1
 218 441 l 1,48,49
 280.638968481 439.011461318 280.638968481 439.011461318 284 440 c 2,50,-1
 301 445 l 2,51,52
 322 451 322 451 344 432.5 c 0,53,54
 360 420 360 420 360 399 c 0,55,56
 360 341.117647059 360 341.117647059 301 355 c 2,57,-1
 284 359 l 2,58,59
 280 360 280 360 218 358 c 1,60,-1
 218 279 l 2,61,62
 218 133 218 133 222 87 c 1,63,64
 305.688311688 80.025974026 305.688311688 80.025974026 358 82 c 2,65,-1
 517 88 l 0,66,67
 544 88 544 88 560.5 75.5 c 128,-1,68
 577 63 577 63 577 41 c 128,-1,69
 577 19 577 19 560.5 6.5 c 0,70,71
 543.023317788 -6.98201199201 543.023317788 -6.98201199201 517 -6 c 2,72,-1
 358 0 l 1,73,-1
 177 -5 l 2,74,75
 123 -6 123 -6 123 41 c 0,76,77
 123 76 123 76 125.5 155.5 c 128,-1,78
 128 235 128 235 128 355 c 1,79,80
 61 355 61 355 61 399 c 0,81,82
 61 422 61 422 80 433.5 c 128,-1,83
 99 445 99 445 128 445 c 1,84,85
 126 632 126 632 121 670 c 1,86,87
 109 689 109 689 109 710 c 0,88,89
 109 756.684782609 109 756.684782609 171 755 c 2,90,-1
 355 750 l 1,91,-1
 514 756 l 2,92,93
 540 757 540 757 557.5 743.5 c 0,94,95
 574 731 574 731 574 709 c 128,-1,96
 574 687 574 687 557.5 674.5 c 0,97,98
 540 661 540 661 514 662 c 2,44,-1
EndSplineSet
EndChar

StartChar: F
Encoding: 70 70 41
Width: 521
GlyphClass: 2
Flags: W
LayerCount: 2
Fore
SplineSet
456 580 m 0,0,1
 456 542 456 542 439.5 506 c 128,-1,2
 423 470 423 470 407.5 451.5 c 128,-1,3
 392 433 392 433 360 400 c 1,4,5
 330 375 330 375 314.5 360.5 c 128,-1,6
 299 346 299 346 284.5 322 c 128,-1,7
 270 298 270 298 270 274 c 0,8,9
 270 208 270 208 225 208 c 0,10,11
 205 208 205 208 192 225.5 c 128,-1,12
 179 243 179 243 179 272 c 128,-1,13
 179 301 179 301 187 325 c 128,-1,14
 195 349 195 349 214 372 c 0,15,16
 240 403 240 403 288 446 c 1,17,18
 312 473 312 473 324 488 c 128,-1,19
 336 503 336 503 348 529 c 128,-1,20
 360 555 360 555 360 580 c 0,21,22
 360 623 360 623 327.5 650.5 c 128,-1,23
 295 678 295 678 254 678 c 0,24,25
 193 678 193 678 149 634 c 0,26,27
 125 606 125 606 105.5 606 c 128,-1,28
 86 606 86 606 75 618.5 c 128,-1,29
 64 631 64 631 64 648 c 0,30,31
 64 686 64 686 121.5 726 c 128,-1,32
 179 766 179 766 249 766 c 0,33,34
 341 766 341 766 398.5 712.5 c 128,-1,35
 456 659 456 659 456 580 c 0,0,1
264 95 m 128,-1,37
 277 78 277 78 277 52.5 c 128,-1,38
 277 27 277 27 260 6 c 128,-1,39
 243 -15 243 -15 219 -15 c 128,-1,40
 195 -15 195 -15 181.5 3.5 c 128,-1,41
 168 22 168 22 168 47 c 128,-1,42
 168 72 168 72 184.5 92 c 128,-1,43
 201 112 201 112 226 112 c 128,-1,36
 251 112 251 112 264 95 c 128,-1,37
EndSplineSet
EndChar

StartChar: G
Encoding: 71 71 42
Width: 772
GlyphClass: 2
Flags: W
LayerCount: 2
Fore
SplineSet
561.439453125 455.98046875 m 128,-1,1
 561.439453125 446.259765625 561.439453125 446.259765625 556.169921875 438.700195312 c 128,-1,2
 550.899414062 431.140625 550.899414062 431.140625 536.639648438 423.850585938 c 128,-1,3
 522.379882812 416.560546875 522.379882812 416.560546875 511.529296875 412.240234375 c 128,-1,4
 500.6796875 407.919921875 500.6796875 407.919921875 473.709960938 399.009765625 c 128,-1,5
 446.739257812 390.100585938 446.739257812 390.100585938 430.309570312 384.16015625 c 128,-1,6
 413.879882812 378.219726562 413.879882812 378.219726562 390.319335938 369.580078125 c 128,-1,7
 366.759765625 360.940429688 366.759765625 360.940429688 354.669921875 356.350585938 c 128,-1,8
 342.580078125 351.759765625 342.580078125 351.759765625 328.319335938 347.440429688 c 0,9,10
 302.279296875 338.799804688 302.279296875 338.799804688 290.809570312 338.799804688 c 128,-1,11
 279.33984375 338.799804688 279.33984375 338.799804688 271.899414062 344.469726562 c 128,-1,12
 264.459960938 350.140625 264.459960938 350.140625 264.459960938 358.780273438 c 0,13,14
 264.459960938 373.360351562 264.459960938 373.360351562 285.540039062 381.459960938 c 0,15,16
 308.479492188 389.560546875 308.479492188 389.560546875 344.439453125 401.169921875 c 128,-1,17
 380.399414062 412.780273438 380.399414062 412.780273438 395.279296875 418.180664062 c 0,18,19
 488.899414062 450.580078125 488.899414062 450.580078125 488.899414062 455.98046875 c 0,20,21
 488.899414062 460.299804688 488.899414062 460.299804688 418.219726562 485.680664062 c 2,22,-1
 394.659179688 493.780273438 l 2,23,24
 379.779296875 499.180664062 379.779296875 499.180664062 343.819335938 510.790039062 c 128,-1,25
 307.859375 522.400390625 307.859375 522.400390625 284.919921875 530.5 c 0,26,27
 263.83984375 538.600585938 263.83984375 538.600585938 263.83984375 553.180664062 c 0,28,29
 263.83984375 561.8203125 263.83984375 561.8203125 271.279296875 567.490234375 c 128,-1,30
 278.719726562 573.16015625 278.719726562 573.16015625 287.08984375 573.16015625 c 128,-1,31
 295.459960938 573.16015625 295.459960938 573.16015625 304.44921875 571.270507812 c 128,-1,32
 313.439453125 569.379882812 313.439453125 569.379882812 327.69921875 564.790039062 c 128,-1,33
 341.959960938 560.200195312 341.959960938 560.200195312 353.739257812 555.879882812 c 0,34,35
 421.939453125 529.959960938 421.939453125 529.959960938 461 517 c 128,-1,36
 500.059570312 504.040039062 500.059570312 504.040039062 511.219726562 499.719726562 c 128,-1,37
 522.379882812 495.400390625 522.379882812 495.400390625 536.639648438 488.110351562 c 128,-1,38
 550.899414062 480.8203125 550.899414062 480.8203125 556.169921875 473.259765625 c 128,-1,0
 561.439453125 465.700195312 561.439453125 465.700195312 561.439453125 455.98046875 c 128,-1,1
413.259765625 257.259765625 m 1,39,-1
 295.459960938 255.640625 l 2,40,41
 281.819335938 255.640625 281.819335938 255.640625 273.44921875 262.120117188 c 128,-1,42
 265.080078125 268.600585938 265.080078125 268.600585938 265.080078125 278.3203125 c 128,-1,43
 265.080078125 288.040039062 265.080078125 288.040039062 273.44921875 294.520507812 c 128,-1,44
 281.819335938 301 281.819335938 301 295.459960938 301 c 2,45,-1
 413.259765625 299.379882812 l 1,46,-1
 531.059570312 301 l 2,47,48
 544.69921875 301 544.69921875 301 553.069335938 294.520507812 c 128,-1,49
 561.439453125 288.040039062 561.439453125 288.040039062 561.439453125 278.3203125 c 128,-1,50
 561.439453125 268.600585938 561.439453125 268.600585938 553.069335938 262.120117188 c 128,-1,51
 544.69921875 255.640625 544.69921875 255.640625 531.059570312 255.640625 c 2,52,-1
 413.259765625 257.259765625 l 1,39,-1
712 353 m 0,53,54
 712 183 712 183 626.5 84 c 128,-1,55
 541 -15 541 -15 401.5 -15 c 128,-1,56
 262 -15 262 -15 167 99 c 128,-1,57
 72 213 72 213 72 376 c 128,-1,58
 72 539 72 539 170 652 c 128,-1,59
 268 765 268 765 418 765 c 0,60,61
 511 765 511 765 587.5 728 c 1,62,-1
 558 634 l 1,63,64
 497 678 497 678 418 678 c 0,65,66
 310 678 310 678 239 589 c 128,-1,67
 168 500 168 500 168 377.5 c 128,-1,68
 168 255 168 255 236 163.5 c 128,-1,69
 304 72 304 72 407 72 c 0,70,71
 492 72 492 72 549 135 c 128,-1,72
 606 198 606 198 610 314 c 1,73,-1
 712 353 l 0,53,54
EndSplineSet
Validated: 1
EndChar

StartChar: H
Encoding: 72 72 43
Width: 768
GlyphClass: 2
Flags: W
LayerCount: 2
Fore
SplineSet
553 353 m 1,0,-1
 381 355 l 2,1,2
 265 355 265 355 213 354 c 1,3,4
 213 275 213 275 216 170.5 c 128,-1,5
 219 66 219 66 219 61 c 0,6,7
 219 -10 219 -10 168 -10 c 128,-1,8
 117 -10 117 -10 117 61 c 0,9,10
 117 66 117 66 120 169 c 128,-1,11
 123 272 123 272 123 351 c 1,12,13
 59 351 59 351 59 396 c 0,14,15
 59 417 59 417 75.5 429.5 c 128,-1,16
 92 442 92 442 123 442 c 1,17,18
 123 521 123 521 120 602.5 c 128,-1,19
 117 684 117 684 117 689 c 0,20,21
 117 760 117 760 168 760 c 128,-1,22
 219 760 219 760 219 689 c 0,23,24
 219 684 219 684 216 601 c 128,-1,25
 213 518 213 518 213 439 c 1,26,27
 311 437 311 437 408 437 c 128,-1,28
 505 437 505 437 553 439 c 1,29,30
 553 518 553 518 550.5 601 c 128,-1,31
 548 684 548 684 548 689 c 0,32,33
 548 760 548 760 599 760 c 128,-1,34
 650 760 650 760 650 689 c 0,35,36
 650 684 650 684 647 603 c 128,-1,37
 644 522 644 522 644 443 c 1,38,39
 674 443 674 443 691.5 430 c 128,-1,40
 709 417 709 417 709 396 c 128,-1,41
 709 375 709 375 691.5 362.5 c 128,-1,42
 674 350 674 350 644 350 c 1,43,44
 644 271 644 271 647 168.5 c 128,-1,45
 650 66 650 66 650 61 c 0,46,47
 650 -10 650 -10 599 -10 c 128,-1,48
 548 -10 548 -10 548 61 c 2,49,-1
 553 353 l 1,0,-1
EndSplineSet
Validated: 1
EndChar

StartChar: J
Encoding: 74 74 44
Width: 283
GlyphClass: 2
Flags: W
LayerCount: 2
Fore
SplineSet
197.291992188 493.97265625 m 132,-1,1
 216.063476562 472.0546875 216.063476562 472.0546875 216.063476562 437.890625 c 132,-1,2
 216.063476562 403.725585938 216.063476562 403.725585938 192.427734375 376.649414062 c 132,-1,3
 168.790039062 349.576171875 168.790039062 349.576171875 134.7265625 349.576171875 c 132,-1,4
 100.663085938 349.576171875 100.663085938 349.576171875 81.1962890625 372.783203125 c 132,-1,5
 61.732421875 395.989257812 61.732421875 395.989257812 61.732421875 429.509765625 c 132,-1,6
 61.732421875 463.030273438 61.732421875 463.030273438 84.671875 489.459960938 c 132,-1,7
 107.614257812 515.889648438 107.614257812 515.889648438 143.068359375 515.889648438 c 132,-1,0
 178.5234375 515.889648438 178.5234375 515.889648438 197.291992188 493.97265625 c 132,-1,1
196 36 m 0,8,9
 196 -18 196 -18 160 -83 c 128,-1,10
 124 -148 124 -148 93 -148 c 128,-1,11
 62 -148 62 -148 62 -122 c 0,12,13
 62 -108 62 -108 77.5 -82.5 c 128,-1,14
 93 -57 93 -57 93 -37.5 c 128,-1,15
 93 -18 93 -18 89 0 c 128,-1,16
 85 18 85 18 85 40.5 c 128,-1,17
 85 63 85 63 101 83.5 c 128,-1,18
 117 104 117 104 142.5 104 c 128,-1,19
 168 104 168 104 182 85.5 c 128,-1,20
 196 67 196 67 196 36 c 0,8,9
EndSplineSet
EndChar

StartChar: K
Encoding: 75 75 45
Width: 604
GlyphClass: 2
Flags: W
LayerCount: 2
Fore
SplineSet
554 311 m 1,0,-1
 343 237 l 1,1,-1
 558 83 l 1,2,-1
 556 0 l 1,3,-1
 343.235351562 141 l 1,4,-1
 344 50 l 2,5,6
 344 25 344 25 331 7 c 0,7,8
 318 -10 318 -10 298 -10 c 0,9,10
 274 -10 274 -10 265.5 7 c 0,11,12
 252.778237729 35.4967474867 252.778237729 35.4967474867 253 50 c 2,13,-1
 258 377 l 1,14,-1
 258 629 l 1,15,16
 220 581 220 581 105 447 c 4,17,18
 87 426 87 426 68 426 c 132,-1,19
 49 426 49 426 37 437.5 c 132,-1,20
 25 449 25 449 25 462.5 c 132,-1,21
 25 476 25 476 28.5 485.5 c 132,-1,22
 32 495 32 495 43.5 509 c 132,-1,23
 55 523 55 523 66 535 c 4,24,25
 113 585 113 585 134.5 607 c 128,-1,26
 156 629 156 629 190.5 668.5 c 128,-1,27
 225 708 225 708 254 738 c 0,28,29
 276 760 276 760 298.5 760 c 0,30,31
 323 760 323 760 343 738 c 0,32,33
 371 707 371 707 406.5 668.5 c 128,-1,34
 442 630 442 630 455 615.5 c 128,-1,35
 468 601 468 601 493.5 574 c 132,-1,36
 519 547 519 547 530.5 535 c 132,-1,37
 542 523 542 523 554 509 c 4,38,39
 572 486 572 486 572 467.5 c 132,-1,40
 572 449 572 449 560 437.5 c 132,-1,41
 548 426 548 426 529 426 c 132,-1,42
 510 426 510 426 492 447 c 4,43,44
 380 583 380 583 339 629 c 1,45,-1
 343.240234375 308 l 1,46,-1
 550 387 l 1,47,-1
 554 311 l 1,0,-1
EndSplineSet
Validated: 33
EndChar

StartChar: L
Encoding: 76 76 46
Width: 273
GlyphClass: 2
Flags: W
LayerCount: 2
Fore
SplineSet
186.291992188 501.97265625 m 132,-1,1
 205.063476562 480.0546875 205.063476562 480.0546875 205.063476562 445.890625 c 132,-1,2
 205.063476562 411.725585938 205.063476562 411.725585938 181.427734375 384.649414062 c 132,-1,3
 157.790039062 357.576171875 157.790039062 357.576171875 123.7265625 357.576171875 c 132,-1,4
 89.6630859375 357.576171875 89.6630859375 357.576171875 70.1962890625 380.783203125 c 132,-1,5
 50.732421875 403.989257812 50.732421875 403.989257812 50.732421875 437.509765625 c 132,-1,6
 50.732421875 471.030273438 50.732421875 471.030273438 73.671875 497.459960938 c 132,-1,7
 96.6142578125 523.889648438 96.6142578125 523.889648438 132.068359375 523.889648438 c 132,-1,0
 167.5234375 523.889648438 167.5234375 523.889648438 186.291992188 501.97265625 c 132,-1,1
184.291992188 131.97265625 m 128,-1,9
 203.063476562 110.0546875 203.063476562 110.0546875 203.063476562 75.890625 c 128,-1,10
 203.063476562 41.7255859375 203.063476562 41.7255859375 179.427734375 14.6494140625 c 128,-1,11
 155.790039062 -12.423828125 155.790039062 -12.423828125 121.7265625 -12.423828125 c 128,-1,12
 87.6630859375 -12.423828125 87.6630859375 -12.423828125 68.1962890625 10.783203125 c 128,-1,13
 48.732421875 33.9892578125 48.732421875 33.9892578125 48.732421875 67.509765625 c 128,-1,14
 48.732421875 101.030273438 48.732421875 101.030273438 71.671875 127.459960938 c 128,-1,15
 94.6142578125 153.889648438 94.6142578125 153.889648438 130.068359375 153.889648438 c 128,-1,8
 165.5234375 153.889648438 165.5234375 153.889648438 184.291992188 131.97265625 c 128,-1,9
EndSplineSet
EndChar

StartChar: M
Encoding: 77 77 47
Width: 673
GlyphClass: 2
Flags: W
LayerCount: 2
Fore
SplineSet
397 710 m 4,0,1
 380 760 380 760 336.5 760 c 132,-1,2
 293 760 293 760 276 710 c 4,3,4
 130 300 130 300 120.5 270.5 c 132,-1,5
 111 241 111 241 87.5 177 c 132,-1,6
 64 113 64 113 52 80.5 c 132,-1,7
 40 48 40 48 40 34 c 132,-1,8
 40 20 40 20 52.5 5 c 132,-1,9
 65 -10 65 -10 87 -10 c 4,10,11
 125 -10 125 -10 140 35 c 4,12,13
 330 617 330 617 337 617 c 4,14,15
 348 617 348 617 538 35 c 4,16,17
 553 -10 553 -10 586 -10 c 4,18,19
 608 -10 608 -10 620.5 5 c 132,-1,20
 633 20 633 20 633 34 c 132,-1,21
 633 48 633 48 621 80 c 4,22,23
 564 235 564 235 553.5 267.5 c 132,-1,24
 543 300 543 300 397 710 c 4,0,1
EndSplineSet
Validated: 9
EndChar

StartChar: N
Encoding: 78 78 48
Width: 743
GlyphClass: 2
Flags: W
LayerCount: 2
Fore
SplineSet
626 372 m 2,0,-1
 629 62 l 2,1,2
 629 -10 629 -10 576 -10 c 0,3,4
 543 -10 543 -10 526 21 c 2,5,-1
 209 567 l 1,6,7
 209 334 209 334 211.5 195 c 128,-1,8
 214 56 214 56 214 39.5 c 128,-1,9
 214 23 214 23 199 6.5 c 128,-1,10
 184 -10 184 -10 163.5 -10 c 128,-1,11
 143 -10 143 -10 128.5 6.5 c 128,-1,12
 114 23 114 23 114 48 c 2,13,-1
 118 372 l 2,14,15
 118 475 118 475 115.5 581 c 128,-1,16
 113 687 113 687 113 689 c 0,17,18
 113 760 113 760 164 760 c 0,19,20
 201 760 201 760 219 729 c 0,21,22
 510 229 510 229 536 189 c 1,23,24
 536 472 536 472 533 579 c 128,-1,25
 530 686 530 686 530 689 c 0,26,27
 530 760 530 760 581 760 c 128,-1,28
 632 760 632 760 632 689 c 0,29,30
 632 681 632 681 630 636 c 0,31,32
 626 503 626 503 626 372 c 2,0,-1
EndSplineSet
Validated: 1
EndChar

StartChar: O
Encoding: 79 79 49
Width: 824
GlyphClass: 2
Flags: W
LayerCount: 2
Fore
SplineSet
472 376 m 128,-1,1
 472 411 472 411 456.5 434 c 128,-1,2
 441 457 441 457 413 457 c 128,-1,3
 385 457 385 457 369 434 c 128,-1,4
 353 411 353 411 353 376.5 c 128,-1,5
 353 342 353 342 369 319 c 128,-1,6
 385 296 385 296 413 296 c 128,-1,7
 441 296 441 296 456.5 318.5 c 128,-1,0
 472 341 472 341 472 376 c 128,-1,1
586.5 164 m 128,-1,9
 656 256 656 256 656 377 c 128,-1,10
 656 498 656 498 587 588.5 c 128,-1,11
 518 679 518 679 412.5 679 c 128,-1,12
 307 679 307 679 237.5 588.5 c 128,-1,13
 168 498 168 498 168 377.5 c 128,-1,14
 168 257 168 257 238 164.5 c 128,-1,15
 308 72 308 72 412.5 72 c 128,-1,8
 517 72 517 72 586.5 164 c 128,-1,9
752 376 m 128,-1,17
 752 213 752 213 654.5 99 c 128,-1,18
 557 -15 557 -15 411.5 -15 c 128,-1,19
 266 -15 266 -15 169 99 c 128,-1,20
 72 213 72 213 72 376 c 128,-1,21
 72 539 72 539 170 652 c 128,-1,22
 268 765 268 765 413.5 765 c 128,-1,23
 559 765 559 765 655.5 652 c 128,-1,16
 752 539 752 539 752 376 c 128,-1,17
EndSplineSet
Validated: 9
EndChar

StartChar: P
Encoding: 80 80 50
Width: 651
GlyphClass: 2
Flags: W
LayerCount: 2
Fore
SplineSet
76.142578125 671.365234375 m 1,0,-1
 76.142578125 632.29296875 l 1,1,-1
 437.155273438 632.29296875 l 1,2,3
 236 563 236 563 221.862304688 558.489257812 c 0,4,5
 197 551 197 551 197.022460938 540.642578125 c 0,6,7
 197 531 197 531 210.625976562 525.6875 c 0,8,9
 227 519 227 519 240.198242188 519.8984375 c 0,10,11
 266 522 266 522 267.407226562 521.5859375 c 0,12,13
 270 521 270 521 295.205078125 528.822265625 c 0,14,15
 313 534 313 534 325.9609375 539.67578125 c 0,16,17
 384 562 384 562 411.12890625 572.720703125 c 0,18,19
 438 584 438 584 483.880859375 599.731445312 c 0,20,21
 530 615 530 615 566.094726562 630.362304688 c 0,22,23
 592 641 592 641 592.1171875 651.829101562 c 0,24,25
 593 664 593 664 566.094726562 673.294921875 c 0,26,27
 529 686 529 686 483.880859375 703.928710938 c 0,28,29
 439 721 439 721 421.18359375 727.321289062 c 0,30,31
 403 734 403 734 372.095703125 745.893554688 c 0,32,33
 340 758 340 758 325.9609375 763.741210938 c 0,34,35
 323 765 323 765 295.205078125 775.078125 c 0,36,37
 270 784 270 784 246.112304688 783.758789062 c 0,38,39
 227 784 227 784 210.625976562 777.971679688 c 0,40,41
 197 773 197 773 197.022460938 763.01953125 c 0,42,43
 197 754 197 754 221.862304688 745.169921875 c 0,44,45
 383 691 383 691 437.155273438 671.365234375 c 1,46,-1
 76.142578125 671.365234375 l 1,0,-1
306.08984375 378 m 0,47,48
 242 378 242 378 199.389648438 360.51953125 c 1,49,50
 196 324 196 324 196.48046875 270.83984375 c 0,51,52
 196 218 196 218 198.419921875 184.200195312 c 1,53,54
 258 173 258 173 328.884765625 172.799804688 c 0,55,56
 400 173 400 173 452.075195312 207 c 128,-1,57
 504 241 504 241 503.969726562 275.780273438 c 0,58,59
 504 310 504 310 451.58984375 344.1796875 c 0,60,61
 399 378 399 378 306.08984375 378 c 0,47,48
102.389648438 -0.6796875 m 2,62,-1
 110.150390625 190.280273438 l 1,63,64
 110 340 110 340 104.330078125 340 c 0,65,66
 83 342 83 342 72.3203125 351.400390625 c 0,67,68
 62 361 62 361 61.650390625 375.33984375 c 0,69,70
 62 390 62 390 89.7802734375 404.599609375 c 0,71,72
 118 419 118 419 158.650390625 427.400390625 c 0,73,74
 240 443 240 443 300.26953125 443.360351562 c 0,75,76
 446 443 446 443 521.4296875 389.400390625 c 0,77,78
 597 335 597 335 597.08984375 276.16015625 c 0,79,80
 597 217 597 217 521.4296875 162.540039062 c 128,-1,81
 446 108 446 108 325.490234375 108.200195312 c 0,82,83
 235 108 235 108 196.48046875 116.559570312 c 1,84,-1
 201.330078125 -0.6796875 l 2,85,86
 202 -21 202 -21 187.75 -32.599609375 c 0,87,88
 174 -45 174 -45 152.344726562 -44.759765625 c 0,89,90
 131 -45 131 -45 116.455078125 -32.599609375 c 128,-1,91
 102 -20 102 -20 102.389648438 -0.6796875 c 2,62,-1
EndSplineSet
Validated: 41
EndChar

StartChar: Q
Encoding: 81 81 51
Width: 620
GlyphClass: 2
Flags: W
LayerCount: 2
Fore
SplineSet
85 376 m 128,-1,1
 85 394 85 394 93.5 408 c 128,-1,2
 102 422 102 422 125 435.5 c 128,-1,3
 148 449 148 449 166 457 c 128,-1,4
 184 465 184 465 227.5 481.5 c 128,-1,5
 271 498 271 498 297.5 509 c 128,-1,6
 324 520 324 520 362 536 c 128,-1,7
 400 552 400 552 419.5 560.5 c 128,-1,8
 439 569 439 569 462 578 c 0,9,10
 504 593 504 593 522.5 593 c 128,-1,11
 541 593 541 593 553 582.5 c 128,-1,12
 565 572 565 572 565 556 c 0,13,14
 565 529 565 529 531 514 c 0,15,16
 494 499 494 499 436 477.5 c 128,-1,17
 378 456 378 456 354 446 c 0,18,19
 202 386 202 386 202 376 c 0,20,21
 202 368 202 368 316 322 c 2,22,-1
 353 306 l 2,23,24
 377 296 377 296 435 274.5 c 128,-1,25
 493 253 493 253 530 238 c 0,26,27
 564 223 564 223 564 196 c 0,28,29
 564 180 564 180 552 169.5 c 128,-1,30
 540 159 540 159 526.5 159 c 128,-1,31
 513 159 513 159 498.5 162.5 c 128,-1,32
 484 166 484 166 461 174.5 c 128,-1,33
 438 183 438 183 418 192 c 0,34,35
 309 239 309 239 246 263 c 128,-1,36
 183 287 183 287 165.5 295 c 128,-1,37
 148 303 148 303 125 316.5 c 128,-1,38
 102 330 102 330 93.5 344 c 128,-1,0
 85 358 85 358 85 376 c 128,-1,1
EndSplineSet
EndChar

StartChar: R
Encoding: 82 82 52
Width: 686
GlyphClass: 2
Flags: W
LayerCount: 2
Fore
SplineSet
374.5 158.5 m 132,-1,1
 388 141.5 388 141.5 388 115 c 132,-1,2
 388 88.5 388 88.5 371 67.5 c 132,-1,3
 354 46.5 354 46.5 329.5 46.5 c 132,-1,4
 305 46.5 305 46.5 291 64.5 c 132,-1,5
 277 82.5 277 82.5 277 108.5 c 132,-1,6
 277 134.5 277 134.5 293.5 155 c 132,-1,7
 310 175.5 310 175.5 335.5 175.5 c 132,-1,0
 361 175.5 361 175.5 374.5 158.5 c 132,-1,1
381.5 579 m 128,-1,9
 395 562 395 562 395 535.5 c 128,-1,10
 395 509 395 509 378 488 c 128,-1,11
 361 467 361 467 336.5 467 c 128,-1,12
 312 467 312 467 298 485 c 128,-1,13
 284 503 284 503 284 529 c 128,-1,14
 284 555 284 555 300.5 575.5 c 128,-1,15
 317 596 317 596 342.5 596 c 128,-1,8
 368 596 368 596 381.5 579 c 128,-1,9
504 533 m 0,16,17
 504 599 504 599 454 639 c 128,-1,18
 404 679 404 679 309 679 c 0,19,20
 262 679 262 679 212 661 c 1,21,22
 209 571 209 571 209 489.5 c 128,-1,23
 209 408 209 408 210 395 c 1,24,-1
 395 395 l 1,25,26
 431 405 431 405 467.5 445.5 c 128,-1,27
 504 486 504 486 504 533 c 0,16,17
629 76 m 2,28,-1
 645 78 l 2,29,30
 654 78 654 78 654 54 c 128,-1,31
 654 30 654 30 633 10 c 128,-1,32
 612 -10 612 -10 586 -10 c 0,33,34
 541 -10 541 -10 500 48 c 0,35,36
 447 120 447 120 365 301 c 1,37,-1
 211 299 l 1,38,39
 211 229 211 229 214 157.5 c 128,-1,40
 217 86 217 86 217 56 c 0,41,42
 217 -15 217 -15 166 -15 c 128,-1,43
 115 -15 115 -15 115 56 c 0,44,45
 115 96 115 96 118.5 197 c 128,-1,46
 122 298 122 298 122 394.5 c 128,-1,47
 122 491 122 491 116 627 c 1,48,49
 72 636 72 636 72 672 c 0,50,51
 72 715 72 715 155 740 c 128,-1,52
 238 765 238 765 303 765 c 0,53,54
 449 765 449 765 524.5 699.5 c 128,-1,55
 600 634 600 634 600 539 c 0,56,57
 600 478 600 478 559 419.5 c 128,-1,58
 518 361 518 361 452 330 c 1,59,60
 498 224 498 224 535.5 164 c 128,-1,61
 573 104 573 104 592 90 c 128,-1,62
 611 76 611 76 629 76 c 2,28,-1
EndSplineSet
Validated: 1
EndChar

StartChar: S
Encoding: 83 83 53
Width: 586
GlyphClass: 2
Flags: W
LayerCount: 2
Fore
SplineSet
488 407.5 m 128,-1,1
 520 371 520 371 520 329 c 128,-1,2
 520 287 520 287 494 250.5 c 128,-1,3
 468 214 468 214 426 191 c 1,4,5
 485 149 485 149 485 83 c 128,-1,6
 485 17 485 17 426 -34 c 128,-1,7
 367 -85 367 -85 272 -85 c 0,8,9
 202 -85 202 -85 135.5 -48 c 128,-1,10
 69 -11 69 -11 69 26 c 0,11,12
 69 43 69 43 80 53 c 128,-1,13
 91 63 91 63 108 63 c 128,-1,14
 125 63 125 63 146 48 c 0,15,16
 208 2 208 2 266 2 c 128,-1,17
 324 2 324 2 357 25 c 128,-1,18
 390 48 390 48 390 81 c 128,-1,19
 390 114 390 114 358 139.5 c 128,-1,20
 326 165 326 165 280.5 187 c 128,-1,21
 235 209 235 209 189.5 233.5 c 128,-1,22
 144 258 144 258 112 293.5 c 128,-1,23
 80 329 80 329 80 373 c 128,-1,24
 80 417 80 417 114 451 c 128,-1,25
 148 485 148 485 204 499 c 1,26,27
 115 561 115 561 115 620.5 c 128,-1,28
 115 680 115 680 170.5 722.5 c 128,-1,29
 226 765 226 765 301.5 765 c 128,-1,30
 377 765 377 765 429 738 c 128,-1,31
 481 711 481 711 481 675 c 0,32,33
 481 660 481 660 470.5 650 c 128,-1,34
 460 640 460 640 444.5 640 c 128,-1,35
 429 640 429 640 392 659 c 128,-1,36
 355 678 355 678 312 678 c 128,-1,37
 269 678 269 678 239.5 662 c 128,-1,38
 210 646 210 646 210 619 c 128,-1,39
 210 592 210 592 242 565.5 c 128,-1,40
 274 539 274 539 319.5 516.5 c 128,-1,41
 365 494 365 494 410.5 469 c 128,-1,0
 456 444 456 444 488 407.5 c 128,-1,1
405 276 m 128,-1,43
 429 299 429 299 429 329.5 c 128,-1,44
 429 360 429 360 376 394.5 c 128,-1,45
 323 429 323 429 277 429 c 128,-1,46
 231 429 231 429 201 414 c 128,-1,47
 171 399 171 399 171 374.5 c 128,-1,48
 171 350 171 350 206.5 323.5 c 128,-1,49
 242 297 242 297 340 243 c 1,50,42
 381 253 381 253 405 276 c 128,-1,43
EndSplineSet
Validated: 1
EndChar

StartChar: T
Encoding: 84 84 54
Width: 593
GlyphClass: 2
Flags: W
LayerCount: 2
Fore
SplineSet
102 756 m 2,0,-1
 301 750 l 1,1,-1
 494 756 l 2,2,3
 521 756 521 756 537.5 743.5 c 128,-1,4
 554 731 554 731 554 709 c 128,-1,5
 554 687 554 687 537.5 674.5 c 128,-1,6
 521 662 521 662 494 662 c 2,7,-1
 350 668 l 1,8,9
 346 571 346 571 346 372 c 2,10,-1
 352 48 l 2,11,12
 352 22 352 22 338 6 c 128,-1,13
 324 -10 324 -10 301.5 -10 c 128,-1,14
 279 -10 279 -10 264.5 6 c 128,-1,15
 250 22 250 22 250 48 c 2,16,-1
 256 372 l 2,17,18
 256 546 256 546 251 668 c 1,19,-1
 102 662 l 2,20,21
 75 662 75 662 58.5 674.5 c 128,-1,22
 42 687 42 687 42 709 c 128,-1,23
 42 731 42 731 58.5 743.5 c 128,-1,24
 75 756 75 756 102 756 c 2,0,-1
EndSplineSet
Validated: 1
EndChar

StartChar: U
Encoding: 85 85 55
Width: 743
GlyphClass: 2
Flags: W
LayerCount: 2
Fore
SplineSet
569 61.5 m 128,-1,1
 500 -15 500 -15 371.5 -15 c 128,-1,2
 243 -15 243 -15 174 62 c 128,-1,3
 105 139 105 139 103 249 c 0,4,5
 102 301 102 301 102 378 c 128,-1,6
 102 455 102 455 100.5 525.5 c 128,-1,7
 99 596 99 596 97.5 638.5 c 128,-1,8
 96 681 96 681 96 689 c 0,9,10
 96 760 96 760 147 760 c 128,-1,11
 198 760 198 760 198 689 c 0,12,13
 198 681 198 681 196 626 c 0,14,15
 192 459 192 459 192 365.5 c 128,-1,16
 192 272 192 272 199.5 230 c 128,-1,17
 207 188 207 188 226 150 c 0,18,19
 263 72 263 72 371 72 c 0,20,21
 524 72 524 72 546 249 c 0,22,23
 551 284 551 284 551 343.5 c 128,-1,24
 551 403 551 403 549.5 486.5 c 128,-1,25
 548 570 548 570 546.5 625.5 c 128,-1,26
 545 681 545 681 545 689 c 0,27,28
 545 760 545 760 596 760 c 128,-1,29
 647 760 647 760 647 689 c 0,30,31
 647 681 647 681 646 638 c 0,32,33
 641 511 641 511 641 406 c 128,-1,34
 641 301 641 301 640 249 c 0,35,0
 638 138 638 138 569 61.5 c 128,-1,1
EndSplineSet
Validated: 1
EndChar

StartChar: V
Encoding: 86 86 56
Width: 673
GlyphClass: 2
Flags: W
LayerCount: 2
Fore
SplineSet
339.719726562 327.639648438 m 5,0,1
 296.790039062 423.759765625 l 6,2,3
 282.209960938 454.01953125 282.209960938 454.01953125 247.379882812 516.3203125 c 132,-1,4
 212.549804688 578.620117188 212.549804688 578.620117188 195.540039062 615.110351562 c 132,-1,5
 178.530273438 651.599609375 178.530273438 651.599609375 178.530273438 683.639648438 c 132,-1,6
 178.530273438 715.6796875 178.530273438 715.6796875 188.655273438 736.150390625 c 132,-1,7
 198.780273438 756.620117188 198.780273438 756.620117188 212.549804688 756.620117188 c 132,-1,8
 226.3203125 756.620117188 226.3203125 756.620117188 243.330078125 724.580078125 c 132,-1,9
 260.33984375 692.540039062 260.33984375 692.540039062 292.334960938 623.120117188 c 132,-1,10
 324.330078125 553.700195312 324.330078125 553.700195312 339.719726562 523.440429688 c 5,11,12
 351.870117188 546.580078125 351.870117188 546.580078125 384.674804688 618.669921875 c 132,-1,13
 417.48046875 690.759765625 417.48046875 690.759765625 434.89453125 724.580078125 c 132,-1,14
 452.309570312 758.400390625 452.309570312 758.400390625 466.080078125 758.400390625 c 132,-1,15
 479.849609375 758.400390625 479.849609375 758.400390625 489.974609375 737.9296875 c 132,-1,16
 500.099609375 717.459960938 500.099609375 717.459960938 500.099609375 685.419921875 c 132,-1,17
 500.099609375 653.379882812 500.099609375 653.379882812 483.08984375 617.780273438 c 132,-1,18
 466.080078125 582.1796875 466.080078125 582.1796875 432.059570312 519.879882812 c 132,-1,19
 398.040039062 457.580078125 398.040039062 457.580078125 382.650390625 425.540039062 c 5,20,21
 339.719726562 327.639648438 l 5,0,1
397 34 m 128,-1,23
 380 -10 380 -10 336.5 -10 c 0,24,25
 301 -10 301 -10 276 40 c 0,26,27
 157 274 157 274 120.5 386.5 c 0,28,29
 111 416 111 416 87.5 480 c 128,-1,30
 64 544 64 544 52 576.5 c 128,-1,31
 40 609 40 609 40 623 c 128,-1,32
 40 637 40 637 52.5 652 c 128,-1,33
 65 667 65 667 87 667 c 0,34,35
 122 667 122 667 140 622 c 0,36,37
 330 133 330 133 337 133 c 0,38,39
 375 133 375 133 538 622 c 0,40,41
 553 667 553 667 586 667 c 0,42,43
 608 667 608 667 620.5 652 c 128,-1,44
 633 637 633 637 633 623 c 128,-1,45
 633 609 633 609 621 577 c 0,46,47
 567 421 567 421 553.5 389.5 c 0,48,49
 414 78 414 78 397 34 c 128,-1,23
EndSplineSet
Validated: 1
EndChar

StartChar: W
Encoding: 87 87 57
Width: 662
GlyphClass: 2
Flags: W
LayerCount: 2
Fore
SplineSet
326 412 m 1,0,-1
 142 409 l 2,1,2
 120 409 120 409 106.5 421 c 128,-1,3
 93 433 93 433 93 451 c 128,-1,4
 93 469 93 469 106.5 481 c 128,-1,5
 120 493 120 493 142 493 c 2,6,-1
 326 490 l 1,7,-1
 520 493 l 2,8,9
 542 493 542 493 555.5 481 c 128,-1,10
 569 469 569 469 569 451 c 128,-1,11
 569 433 569 433 555.5 421 c 128,-1,12
 542 409 542 409 520 409 c 2,13,-1
 326 412 l 1,0,-1
326 258 m 1,14,-1
 142 255 l 2,15,16
 120 255 120 255 106.5 267 c 128,-1,17
 93 279 93 279 93 297 c 128,-1,18
 93 315 93 315 106.5 327 c 128,-1,19
 120 339 120 339 142 339 c 2,20,-1
 326 336 l 1,21,-1
 520 339 l 2,22,23
 542 339 542 339 555.5 327 c 128,-1,24
 569 315 569 315 569 297 c 128,-1,25
 569 279 569 279 555.5 267 c 128,-1,26
 542 255 542 255 520 255 c 2,27,-1
 326 258 l 1,14,-1
EndSplineSet
EndChar

StartChar: X
Encoding: 88 88 58
Width: 620
GlyphClass: 2
Flags: W
LayerCount: 2
Fore
SplineSet
535 376 m 128,-1,1
 535 358 535 358 526.5 344 c 128,-1,2
 518 330 518 330 495 316.5 c 128,-1,3
 472 303 472 303 454.5 295 c 128,-1,4
 437 287 437 287 393.5 270.5 c 128,-1,5
 350 254 350 254 323.5 243 c 128,-1,6
 297 232 297 232 259 216 c 128,-1,7
 221 200 221 200 201.5 191.5 c 128,-1,8
 182 183 182 183 159 174 c 0,9,10
 117 159 117 159 98.5 159 c 128,-1,11
 80 159 80 159 68 169.5 c 128,-1,12
 56 180 56 180 56 196 c 0,13,14
 56 223 56 223 90 238 c 0,15,16
 127 253 127 253 185 274.5 c 128,-1,17
 243 296 243 296 267 306 c 0,18,19
 418 366 418 366 418 376 c 0,20,21
 418 384 418 384 304 430 c 2,22,-1
 266 446 l 2,23,24
 242 456 242 456 184 477.5 c 128,-1,25
 126 499 126 499 89 514 c 0,26,27
 55 529 55 529 55 556 c 0,28,29
 55 572 55 572 67 582.5 c 128,-1,30
 79 593 79 593 92.5 593 c 128,-1,31
 106 593 106 593 120.5 589.5 c 128,-1,32
 135 586 135 586 158 577.5 c 128,-1,33
 181 569 181 569 200 560 c 0,34,35
 310 513 310 513 373 489 c 128,-1,36
 436 465 436 465 454 457 c 128,-1,37
 472 449 472 449 495 435.5 c 128,-1,38
 518 422 518 422 526.5 408 c 128,-1,0
 535 394 535 394 535 376 c 128,-1,1
EndSplineSet
EndChar

StartChar: Y
Encoding: 89 89 59
Width: 646
GlyphClass: 2
Flags: W
LayerCount: 2
Fore
SplineSet
373 151 m 1,0,-1
 375 48 l 2,1,2
 375 22 375 22 361 6 c 128,-1,3
 347 -10 347 -10 324.5 -10 c 128,-1,4
 302 -10 302 -10 287.5 6 c 128,-1,5
 273 22 273 22 273 41.5 c 128,-1,6
 273 61 273 61 277 151 c 1,7,8
 197 149 197 149 139 149 c 4,9,10
 117 149 117 149 103.5 160 c 132,-1,11
 90 171 90 171 90 189 c 132,-1,12
 90 207 90 207 103.5 218 c 132,-1,13
 117 229 117 229 139 229 c 6,14,-1
 279 226 l 1,15,-1
 279 294 l 1,16,-1
 139 292 l 6,17,18
 117 292 117 292 103.5 303 c 132,-1,19
 90 314 90 314 90 332 c 132,-1,20
 90 350 90 350 103.5 361 c 132,-1,21
 117 372 117 372 137.5 372 c 132,-1,22
 158 372 158 372 189.5 371.5 c 132,-1,23
 221 371 221 371 234 371 c 1,24,25
 175 471 175 471 156.5 501 c 128,-1,26
 138 531 138 531 124.5 553.5 c 128,-1,27
 111 576 111 576 103 589 c 128,-1,28
 95 602 95 602 88 614.5 c 128,-1,29
 81 627 81 627 77.5 633.5 c 128,-1,30
 74 640 74 640 72 647 c 0,31,32
 68 657 68 657 68 671 c 128,-1,33
 68 685 68 685 82.5 699 c 128,-1,34
 97 713 97 713 119 713 c 0,35,36
 131 713 131 713 137.5 708.5 c 128,-1,37
 144 704 144 704 148 701 c 128,-1,38
 152 698 152 698 157 691 c 128,-1,39
 162 684 162 684 165 679.5 c 128,-1,40
 168 675 168 675 174 665 c 128,-1,41
 180 655 180 655 183.5 649 c 128,-1,42
 187 643 187 643 194 629.5 c 128,-1,43
 201 616 201 616 249.5 528.5 c 128,-1,44
 298 441 298 441 330 394 c 1,45,46
 351 426 351 426 393.5 504.5 c 128,-1,47
 436 583 436 583 444.5 597.5 c 128,-1,48
 453 612 453 612 460 624.5 c 128,-1,49
 467 637 467 637 470.5 644 c 128,-1,50
 474 651 474 651 480 661 c 128,-1,51
 486 671 486 671 490 676.5 c 128,-1,52
 494 682 494 682 499 689 c 128,-1,53
 504 696 504 696 508 699.5 c 128,-1,54
 512 703 512 703 517 706 c 0,55,56
 526 713 526 713 542.5 713 c 128,-1,57
 559 713 559 713 572 700 c 128,-1,58
 585 687 585 687 585 671.5 c 128,-1,59
 585 656 585 656 572 632 c 0,60,61
 560 608 560 608 417 371 c 1,62,-1
 517 372 l 2,63,64
 539 372 539 372 552.5 361 c 128,-1,65
 566 350 566 350 566 332 c 128,-1,66
 566 314 566 314 552.5 303 c 128,-1,67
 539 292 539 292 517 292 c 2,68,-1
 371 294 l 1,69,-1
 371 226 l 1,70,-1
 517 229 l 2,71,72
 539 229 539 229 552.5 218 c 128,-1,73
 566 207 566 207 566 189 c 128,-1,74
 566 171 566 171 552.5 160 c 128,-1,75
 539 149 539 149 517 149 c 0,76,77
 457 149 457 149 373 151 c 1,0,-1
EndSplineSet
Validated: 1
EndChar

StartChar: Z
Encoding: 90 90 60
Width: 618
GlyphClass: 2
Flags: W
LayerCount: 2
Fore
SplineSet
295 750 m 1,0,-1
 498 755 l 2,1,2
 555 756 555 756 555 714 c 0,3,4
 555 686.290629773 555 686.290629773 534.5 653 c 2,5,6
 423.042210668 472 l 1,7,-1
 510 472 l 1,8,-1
 510 418 l 1,9,-1
 381.894801745 418 l 1,10,-1
 351 368 l 1,11,-1
 310.227758007 301 l 1,12,-1
 510 301 l 1,13,-1
 510 231 l 1,14,-1
 267.629893238 231 l 1,15,-1
 180 87 l 1,16,17
 237 82 237 82 307.5 82 c 128,-1,18
 378 82 378 82 440 85.5 c 128,-1,19
 502 89 502 89 519.5 89 c 128,-1,20
 537 89 537 89 553.5 76.5 c 128,-1,21
 570 64 570 64 570 42 c 128,-1,22
 570 20 570 20 553.5 7.5 c 0,23,24
 536.321428571 -5.75204081633 536.321428571 -5.75204081633 510 -5 c 2,25,-1
 335 0 l 1,26,-1
 106 -5 l 2,27,28
 23.0185915759 -6.99955201022 23.0185915759 -6.99955201022 49 38 c 2,29,-1
 160.432483255 231 l 1,30,-1
 62 231 l 1,31,-1
 62 301 l 1,32,-1
 197.384187547 301 l 2,33,-1
 200.297578197 301 l 0,34,35
 266 416 266 416 273 416 c 2,36,-1
 61 416 l 1,37,-1
 61 472 l 1,38,-1
 305.701195219 472 l 1,39,-1
 425 664 l 1,40,41
 380 668 380 668 316 668 c 128,-1,42
 252 668 252 668 190 664.5 c 128,-1,43
 128 661 128 661 110.5 661 c 128,-1,44
 93 661 93 661 76.5 673.5 c 128,-1,45
 60 686 60 686 60 708 c 128,-1,46
 60 730 60 730 76.5 742.5 c 0,47,48
 93.6785714286 755.752040816 93.6785714286 755.752040816 120 755 c 2,49,-1
 295 750 l 1,0,-1
EndSplineSet
Validated: 33
EndChar

StartChar: bracketleft
Encoding: 91 91 61
Width: 438
GlyphClass: 2
Flags: W
LayerCount: 2
Fore
SplineSet
193 0 m 1,0,-1
 337 3 l 2,1,2
 364 3 364 3 380.5 -9 c 128,-1,3
 397 -21 397 -21 397 -41.5 c 128,-1,4
 397 -62 397 -62 380.5 -74 c 128,-1,5
 364 -86 364 -86 337 -86 c 2,6,-1
 243 -83 l 1,7,-1
 146 -87 l 2,8,9
 122 -87 122 -87 107 -74.5 c 128,-1,10
 92 -62 92 -62 92 -46 c 128,-1,11
 92 -30 92 -30 95 104.5 c 128,-1,12
 98 239 98 239 98 375 c 128,-1,13
 98 511 98 511 94.5 640.5 c 128,-1,14
 91 770 91 770 91 790 c 128,-1,15
 91 810 91 810 106 824.5 c 128,-1,16
 121 839 121 839 146 839 c 2,17,-1
 243 835 l 1,18,-1
 337 838 l 2,19,20
 363 838 363 838 380 825.5 c 128,-1,21
 397 813 397 813 397 793 c 128,-1,22
 397 773 397 773 380 760.5 c 128,-1,23
 363 748 363 748 337 748 c 0,24,25
 332 748 332 748 314 749 c 0,26,27
 278 751 278 751 193 751 c 1,28,29
 193 748 193 748 190 618.5 c 128,-1,30
 187 489 187 489 187 376.5 c 128,-1,31
 187 264 187 264 190 136 c 128,-1,32
 193 8 193 8 193 0 c 1,0,-1
EndSplineSet
Validated: 1
EndChar

StartChar: backslash
Encoding: 92 92 62
Width: 433
GlyphClass: 2
Flags: W
LayerCount: 2
Fore
SplineSet
82.5 820 m 128,-1,1
 94 835 94 835 114 835 c 128,-1,2
 134 835 134 835 147.5 822 c 128,-1,3
 161 809 161 809 165 787 c 0,4,5
 243 439 243 439 290 256 c 0,6,7
 361 -20 361 -20 361 -38 c 128,-1,8
 361 -56 361 -56 348.5 -70 c 128,-1,9
 336 -84 336 -84 314 -84 c 128,-1,10
 292 -84 292 -84 280.5 -67.5 c 128,-1,11
 269 -51 269 -51 262 -20 c 0,12,13
 198 274 198 274 148 468 c 0,14,15
 71 772 71 772 71 788.5 c 128,-1,0
 71 805 71 805 82.5 820 c 128,-1,1
EndSplineSet
Validated: 1
EndChar

StartChar: bracketright
Encoding: 93 93 63
Width: 438
GlyphClass: 2
Flags: W
LayerCount: 2
Fore
SplineSet
245 752 m 1,0,-1
 101 749 l 2,1,2
 74 749 74 749 57.5 761 c 128,-1,3
 41 773 41 773 41 793.5 c 128,-1,4
 41 814 41 814 57.5 826 c 128,-1,5
 74 838 74 838 101 838 c 2,6,-1
 195 835 l 1,7,-1
 292 839 l 2,8,9
 316 839 316 839 331 826.5 c 128,-1,10
 346 814 346 814 346 798 c 128,-1,11
 346 782 346 782 343 647.5 c 128,-1,12
 340 513 340 513 340 377 c 128,-1,13
 340 241 340 241 343.5 111.5 c 128,-1,14
 347 -18 347 -18 347 -38 c 128,-1,15
 347 -58 347 -58 332 -72.5 c 128,-1,16
 317 -87 317 -87 292 -87 c 2,17,-1
 195 -83 l 1,18,-1
 101 -86 l 2,19,20
 75 -86 75 -86 58 -73.5 c 128,-1,21
 41 -61 41 -61 41 -41 c 128,-1,22
 41 -21 41 -21 58 -8.5 c 128,-1,23
 75 4 75 4 101 4 c 2,24,-1
 245 1 l 2,25,26
 245 4 245 4 248 133.5 c 128,-1,27
 251 263 251 263 251 375.5 c 128,-1,28
 251 488 251 488 248 616 c 128,-1,29
 245 744 245 744 245 752 c 1,0,-1
EndSplineSet
Validated: 1
EndChar

StartChar: asciicircum
Encoding: 94 94 64
Width: 591
GlyphClass: 2
Flags: W
LayerCount: 2
Fore
SplineSet
79 458 m 132,-1,1
 101 496 101 496 162 594.5 c 132,-1,2
 223 693 223 693 243.5 726.5 c 132,-1,3
 264 760 264 760 296.5 760 c 132,-1,4
 329 760 329 760 350 725 c 4,5,6
 515 459 515 459 525.5 437 c 132,-1,7
 536 415 536 415 536 401.5 c 132,-1,8
 536 388 536 388 524 376 c 132,-1,9
 512 364 512 364 490 364 c 132,-1,10
 468 364 468 364 454 391 c 4,11,12
 417 459 417 459 359 559.5 c 132,-1,13
 301 660 301 660 296.5 660 c 132,-1,14
 292 660 292 660 234.5 560.5 c 132,-1,15
 177 461 177 461 139 391 c 4,16,17
 133 379 133 379 121.5 371.5 c 132,-1,18
 110 364 110 364 95.5 364 c 132,-1,19
 81 364 81 364 69 376 c 132,-1,20
 57 388 57 388 57 404 c 132,-1,0
 57 420 57 420 79 458 c 132,-1,1
EndSplineSet
Validated: 1
EndChar

StartChar: underscore
Encoding: 95 95 65
Width: 382
GlyphClass: 2
Flags: W
LayerCount: 2
Fore
SplineSet
189.1328125 14.1611328125 m 5,0,-1
 50.2880859375 11.26171875 l 6,1,2
 34.9384765625 11.26171875 34.9384765625 11.26171875 25.5185546875 22.859375 c 132,-1,3
 16.099609375 34.45703125 16.099609375 34.45703125 16.099609375 51.8544921875 c 132,-1,4
 16.099609375 69.2509765625 16.099609375 69.2509765625 25.5185546875 80.849609375 c 132,-1,5
 34.9384765625 92.447265625 34.9384765625 92.447265625 50.2880859375 92.447265625 c 6,6,-1
 189.1328125 89.5478515625 l 5,7,-1
 327.978515625 92.447265625 l 6,8,9
 343.328125 92.447265625 343.328125 92.447265625 352.747070312 80.849609375 c 132,-1,10
 362.166992188 69.2509765625 362.166992188 69.2509765625 362.166992188 51.8544921875 c 132,-1,11
 362.166992188 34.45703125 362.166992188 34.45703125 352.747070312 22.859375 c 132,-1,12
 343.328125 11.26171875 343.328125 11.26171875 327.978515625 11.26171875 c 6,13,14
 327.978515625 11.26171875 327.978515625 11.26171875 189.1328125 14.1611328125 c 5,0,-1
EndSplineSet
Validated: 1
EndChar

StartChar: grave
Encoding: 96 96 66
Width: 330
GlyphClass: 2
Flags: W
LayerCount: 2
Fore
SplineSet
85 696 m 0,0,1
 85 713 85 713 96.5 726.5 c 128,-1,2
 108 740 108 740 125.5 740 c 128,-1,3
 143 740 143 740 155.5 730.5 c 128,-1,4
 168 721 168 721 173.5 711.5 c 128,-1,5
 179 702 179 702 188 682 c 128,-1,6
 197 662 197 662 221 632.5 c 128,-1,7
 245 603 245 603 245 591 c 128,-1,8
 245 579 245 579 236.5 571 c 128,-1,9
 228 563 228 563 212 563 c 0,10,11
 180 563 180 563 132.5 607.5 c 128,-1,12
 85 652 85 652 85 696 c 0,0,1
EndSplineSet
Validated: 1
EndChar

StartChar: a
Encoding: 97 97 67
Width: 810
GlyphClass: 2
Flags: W
LayerCount: 2
Fore
SplineSet
648 367 m 1,0,1
 648 255 648 255 662.5 177.5 c 128,-1,2
 677 100 677 100 698 90 c 0,3,4
 706 86 706 86 717 84.5 c 128,-1,5
 728 83 728 83 733 80 c 128,-1,6
 738 77 738 77 738 69 c 0,7,8
 738 33 738 33 718 10 c 128,-1,9
 698 -13 698 -13 665 -13 c 0,10,11
 621 -13 621 -13 599 37 c 128,-1,12
 577 87 577 87 577 165 c 1,13,14
 524 81 524 81 465.5 33 c 128,-1,15
 407 -15 407 -15 334.5 -15 c 128,-1,16
 262 -15 262 -15 212 19.5 c 128,-1,17
 162 54 162 54 132 110 c 0,18,19
 72 225 72 225 72 363 c 0,20,21
 72 527 72 527 157 646 c 128,-1,22
 242 765 242 765 377 765 c 0,23,24
 429 765 429 765 478.5 745.5 c 128,-1,25
 528 726 528 726 561 696 c 1,26,27
 561 765 561 765 612 765 c 0,28,29
 675 765 675 765 675 664 c 0,30,31
 675 589 675 589 648 367 c 1,0,1
569 355 m 1,32,-1
 563 600 l 1,33,34
 478 678 478 678 377 678 c 0,35,36
 294 678 294 678 231 588.5 c 128,-1,37
 168 499 168 499 168 371 c 128,-1,38
 168 243 168 243 211.5 157.5 c 128,-1,39
 255 72 255 72 329.5 72 c 128,-1,40
 404 72 404 72 479.5 167 c 128,-1,41
 555 262 555 262 569 355 c 1,32,-1
EndSplineSet
Validated: 1
EndChar

StartChar: b
Encoding: 98 98 68
Width: 651
GlyphClass: 2
Flags: W
LayerCount: 2
Fore
SplineSet
324 93 m 4,0,1
 258 93 258 93 214 116 c 5,2,3
 211 164 211 164 211 259 c 132,-1,4
 211 354 211 354 213 398 c 5,5,6
 274 413 274 413 347.5 413 c 132,-1,7
 421 413 421 413 474.5 368 c 132,-1,8
 528 323 528 323 528 252.5 c 132,-1,9
 528 182 528 182 474 137.5 c 132,-1,10
 420 93 420 93 324 93 c 4,0,1
114 724 m 6,11,-1
 122 390 l 5,12,13
 122 143 122 143 116 143 c 4,14,15
 94 140 94 140 83 128 c 132,-1,16
 72 116 72 116 72 96.5 c 132,-1,17
 72 77 72 77 101 58 c 132,-1,18
 130 39 130 39 172 28 c 4,19,20
 256 7 256 7 318 7 c 4,21,22
 468 7 468 7 546 78 c 132,-1,23
 624 149 624 149 624 252 c 132,-1,24
 624 355 624 355 546 426.5 c 132,-1,25
 468 498 468 498 344 498 c 4,26,27
 251 498 251 498 211 487 c 5,28,-1
 216 724 l 6,29,30
 216 750 216 750 202 766 c 132,-1,31
 188 782 188 782 165.5 782 c 132,-1,32
 143 782 143 782 128.5 766 c 132,-1,33
 114 750 114 750 114 724 c 6,11,-1
EndSplineSet
Validated: 9
EndChar

StartChar: c
Encoding: 99 99 69
Width: 708
GlyphClass: 2
Flags: W
LayerCount: 2
Fore
SplineSet
515 -133 m 0,0,1
 515 -175 515 -175 477.5 -202.5 c 128,-1,2
 440 -230 440 -230 388 -230 c 128,-1,3
 336 -230 336 -230 304.5 -205.5 c 128,-1,4
 273 -181 273 -181 273 -155 c 0,5,6
 273 -146 273 -146 280.5 -138 c 128,-1,7
 288 -130 288 -130 299.5 -130 c 128,-1,8
 311 -130 311 -130 336.5 -142 c 128,-1,9
 362 -154 362 -154 381 -154 c 128,-1,10
 400 -154 400 -154 412 -147 c 128,-1,11
 424 -140 424 -140 424 -131 c 128,-1,12
 424 -122 424 -122 409.5 -111.5 c 128,-1,13
 395 -101 395 -101 378 -90.5 c 128,-1,14
 361 -80 361 -80 346 -57.5 c 128,-1,15
 331 -35 331 -35 331 -6 c 1,16,17
 215 22 215 22 143.5 128.5 c 128,-1,18
 72 235 72 235 72 376 c 0,19,20
 72 539 72 539 167.5 652 c 128,-1,21
 263 765 263 765 407 765 c 0,22,23
 495 765 495 765 564.5 732 c 128,-1,24
 634 699 634 699 634 658 c 0,25,26
 634 638 634 638 622 626 c 128,-1,27
 610 614 610 614 590.5 614 c 128,-1,28
 571 614 571 614 535 637 c 0,29,30
 477 678 477 678 407 678 c 0,31,32
 303 678 303 678 235.5 588.5 c 128,-1,33
 168 499 168 499 168 376.5 c 128,-1,34
 168 254 168 254 235.5 163 c 128,-1,35
 303 72 303 72 401 72 c 128,-1,36
 499 72 499 72 580 121 c 0,37,38
 613 139 613 139 624.5 139 c 128,-1,39
 636 139 636 139 645.5 129.5 c 128,-1,40
 655 120 655 120 655 106 c 0,41,42
 655 71 655 71 583 29 c 128,-1,43
 511 -13 511 -13 412 -15 c 1,44,45
 415 -32 415 -32 441 -49 c 128,-1,46
 467 -66 467 -66 491 -86 c 128,-1,47
 515 -106 515 -106 515 -133 c 0,0,1
EndSplineSet
Validated: 1
EndChar

StartChar: d
Encoding: 100 100 70
Width: 651
GlyphClass: 2
Flags: W
LayerCount: 2
Fore
SplineSet
368 93 m 4,0,1
 434 93 434 93 478 116 c 5,2,3
 481 164 481 164 481 259 c 132,-1,4
 481 354 481 354 479 398 c 5,5,6
 418 413 418 413 344.5 413 c 132,-1,7
 271 413 271 413 217.5 368 c 132,-1,8
 164 323 164 323 164 252.5 c 132,-1,9
 164 182 164 182 218 137.5 c 132,-1,10
 272 93 272 93 368 93 c 4,0,1
578 724 m 6,11,-1
 570 390 l 5,12,13
 570 143 570 143 576 143 c 4,14,15
 598 140 598 140 609 128 c 132,-1,16
 620 116 620 116 620 96.5 c 132,-1,17
 620 77 620 77 591 58 c 132,-1,18
 562 39 562 39 520 28 c 4,19,20
 436 7 436 7 374 7 c 4,21,22
 224 7 224 7 146 78 c 132,-1,23
 68 149 68 149 68 252 c 132,-1,24
 68 355 68 355 146 426.5 c 132,-1,25
 224 498 224 498 348 498 c 4,26,27
 441 498 441 498 481 487 c 5,28,-1
 476 724 l 6,29,30
 476 750 476 750 490 766 c 132,-1,31
 504 782 504 782 526.5 782 c 132,-1,32
 549 782 549 782 563.5 766 c 132,-1,33
 578 750 578 750 578 724 c 6,11,-1
EndSplineSet
Validated: 1
EndChar

StartChar: e
Encoding: 101 101 71
Width: 745
GlyphClass: 2
Flags: W
LayerCount: 2
Fore
SplineSet
596 553 m 0,0,1
 596 600 596 600 557.5 639 c 128,-1,2
 519 678 519 678 452 678 c 128,-1,3
 385 678 385 678 334 638 c 0,4,5
 240 565 240 565 213 421 c 1,6,7
 289 400 289 400 384.5 400 c 128,-1,8
 480 400 480 400 538 440 c 128,-1,9
 596 480 596 480 596 553 c 0,0,1
597 28 m 128,-1,11
 526 -15 526 -15 444 -15 c 128,-1,12
 362 -15 362 -15 301 16 c 128,-1,13
 240 47 240 47 201 99 c 0,14,15
 120 207 120 207 114 352 c 1,16,17
 42 374 42 374 42 423 c 0,18,19
 42 443 42 443 53.5 454.5 c 128,-1,20
 65 466 65 466 80 466 c 128,-1,21
 95 466 95 466 122 454 c 1,22,23
 153 588 153 588 238.5 676.5 c 128,-1,24
 324 765 324 765 448 765 c 0,25,26
 549 765 549 765 620.5 704 c 128,-1,27
 692 643 692 643 692 557 c 128,-1,28
 692 471 692 471 648 416 c 0,29,30
 565 315 565 315 390 315 c 0,31,32
 318 315 318 315 211 335 c 1,33,34
 220 227 220 227 282.5 149.5 c 128,-1,35
 345 72 345 72 431.5 72 c 128,-1,36
 518 72 518 72 593 121 c 0,37,38
 626 139 626 139 637.5 139 c 128,-1,39
 649 139 649 139 658.5 129.5 c 128,-1,40
 668 120 668 120 668 106 c 0,41,10
 668 71 668 71 597 28 c 128,-1,11
EndSplineSet
Validated: 1
EndChar

StartChar: f
Encoding: 102 102 72
Width: 616
GlyphClass: 2
Flags: W
LayerCount: 2
Fore
SplineSet
391 173 m 132,-1,1
 404.5 156 404.5 156 404.5 130 c 132,-1,2
 404.5 104 404.5 104 387.5 82.5 c 132,-1,3
 370.5 61 370.5 61 346 61 c 132,-1,4
 321.5 61 321.5 61 307.5 79 c 132,-1,5
 293.5 97 293.5 97 293.5 123 c 132,-1,6
 293.5 149 293.5 149 310 169.5 c 132,-1,7
 326.5 190 326.5 190 352 190 c 132,-1,0
 377.5 190 377.5 190 391 173 c 132,-1,1
393 575 m 128,-1,9
 406 558 406 558 406.5 532 c 0,10,11
 406 506 406 506 389.5 484.5 c 0,12,13
 372 463 372 463 348 463 c 128,-1,14
 324 463 324 463 309.5 481 c 0,15,16
 296 499 296 499 295.5 525 c 0,17,18
 296 551 296 551 312 571.5 c 128,-1,19
 328 592 328 592 354 592 c 128,-1,8
 380 592 380 592 393 575 c 128,-1,9
246 365 m 2,20,-1
 452 370 l 2,21,22
 478 371 478 371 495 357.5 c 0,23,24
 511 345 511 345 511 324 c 0,25,26
 511 278.854368932 511 278.854368932 452 280 c 2,27,-1
 246 284 l 2,28,29
 197 285 197 285 179 283 c 1,30,31
 179 152 179 152 182 110.5 c 128,-1,32
 185 69 185 69 185 61 c 0,33,34
 185 -10 185 -10 134 -10 c 128,-1,35
 83 -10 83 -10 83 61 c 0,36,37
 83 69 83 69 84 108 c 0,38,39
 89 225 89 225 89 280 c 2,40,41
 89 370 l 1,42,43
 87 632 87 632 82 670 c 1,44,45
 70 689 70 689 70 710 c 0,46,47
 70 756.675675676 70 756.675675676 132 755 c 2,48,-1
 317 750 l 1,49,-1
 496 756 l 2,50,51
 522 757 522 757 539.5 743.5 c 0,52,53
 556 731 556 731 556 709 c 128,-1,54
 556 687 556 687 539.5 674.5 c 0,55,56
 522.159627206 661.123140988 522.159627206 661.123140988 496 662 c 2,57,-1
 317 668 l 2,58,59
 259 670 259 670 179 663 c 1,60,-1
 179 366 l 1,61,62
 206 364 206 364 246 365 c 2,20,-1
EndSplineSet
Validated: 33
EndChar

StartChar: g
Encoding: 103 103 73
Width: 558
GlyphClass: 2
Flags: W
LayerCount: 2
Fore
SplineSet
429 482 m 1,0,-1
 429 633 l 1,1,2
 368 695 368 695 293 695 c 256,3,4
 235 695 235 695 170 624 c 0,5,6
 114 562 114 562 121.5 489.5 c 128,-1,7
 129 417 129 417 161 364 c 128,-1,8
 193 311 193 311 253 311 c 0,9,10
 318 311 318 311 350 346 c 0,11,12
 401 399 401 399 429 482 c 1,0,-1
427 714 m 1,13,14
 429 764 429 764 470 764 c 0,15,16
 525 764 525 764 521 691 c 0,17,18
 512 531 512 531 512 491 c 0,19,20
 512 490 512 490 512 298 c 0,21,22
 512 160 512 160 443 75 c 0,23,24
 373 -10 373 -10 250 -10 c 0,25,26
 182 -10 182 -10 119 17 c 0,27,28
 57 44 57 44 57 98 c 256,29,30
 57 125 57 125 82 125 c 0,31,32
 92 125 92 125 140 105 c 0,33,34
 187 86 187 86 250 86 c 128,-1,35
 313 86 313 86 378.5 139 c 4,36,37
 418 170 418 170 418 250 c 0,38,39
 418 287 418 287 412 326 c 1,40,41
 400 307 400 307 350.5 265 c 128,-1,42
 301 223 301 223 242 223 c 0,43,44
 132 223 132 223 74 311 c 0,45,46
 24 388 24 388 24 496 c 0,47,48
 24 592 24 592 99 678 c 256,49,50
 174 764 174 764 287 764 c 0,51,52
 364 764 364 764 427 714 c 1,13,14
EndSplineSet
Validated: 33
EndChar

StartChar: h
Encoding: 104 104 74
Width: 768
GlyphClass: 2
Flags: W
LayerCount: 2
Fore
SplineSet
553 353 m 1,0,-1
 381 355 l 2,1,2
 265 355 265 355 213 354 c 1,3,4
 213 275 213 275 216 170.5 c 128,-1,5
 219 66 219 66 219 61 c 0,6,7
 219 -10 219 -10 168 -10 c 128,-1,8
 117 -10 117 -10 117 61 c 0,9,10
 117 66 117 66 120 169 c 128,-1,11
 123 272 123 272 123 351 c 1,12,13
 59 351 59 351 59 396 c 0,14,15
 59 417 59 417 75.5 429.5 c 128,-1,16
 92 442 92 442 123 442 c 1,17,18
 123 521 123 521 120 602.5 c 128,-1,19
 117 684 117 684 117 689 c 0,20,21
 117 760 117 760 168 760 c 132,-1,22
 219 760 219 760 219 689 c 0,23,24
 219 684 219 684 216 601 c 128,-1,25
 213 518 213 518 213 439 c 1,26,27
 311 437 311 437 408 437 c 128,-1,28
 505 437 505 437 553 439 c 2,29,30
 644 443 l 1,31,32
 644 350 l 2,33,34
 644 271 644 271 647 168.5 c 128,-1,35
 650 66 650 66 650 61 c 0,36,37
 650 -10 650 -10 599 -10 c 128,-1,38
 548 -10 548 -10 548 61 c 2,39,-1
 553 353 l 1,0,-1
EndSplineSet
Validated: 1
EndChar

StartChar: i
Encoding: 105 105 75
Width: 267
GlyphClass: 2
Flags: W
LayerCount: 2
Fore
SplineSet
174.5 741.5 m 132,-1,1
 188 723 188 723 188 698 c 132,-1,2
 188 673 188 673 171.5 653 c 132,-1,3
 155 633 155 633 130 633 c 132,-1,4
 105 633 105 633 92 650 c 132,-1,5
 79 667 79 667 79 692.5 c 132,-1,6
 79 718 79 718 96 739 c 132,-1,7
 113 760 113 760 137 760 c 132,-1,0
 161 760 161 760 174.5 741.5 c 132,-1,1
177 278 m 1,8,-1
 185 50 l 2,9,10
 185 20 185 20 171.5 2.5 c 128,-1,11
 158 -15 158 -15 134 -15 c 128,-1,12
 110 -15 110 -15 96.5 2.5 c 128,-1,13
 83 20 83 20 83 50 c 2,14,-1
 90 278 l 1,15,-1
 89 479 l 2,16,17
 89 505 89 505 101 520 c 128,-1,18
 113 535 113 535 134 535 c 128,-1,19
 155 535 155 535 167 520 c 128,-1,20
 179 505 179 505 179 479 c 2,21,-1
 177 278 l 1,8,-1
EndSplineSet
Validated: 1
EndChar

StartChar: j
Encoding: 106 106 76
Width: 593
GlyphClass: 2
Flags: W
LayerCount: 2
Fore
SplineSet
300 425.5 m 132,-1,1
 338 382 338 382 338 319.5 c 132,-1,2
 338 257 338 257 300 213.5 c 132,-1,3
 262 170 262 170 201 170 c 132,-1,4
 140 170 140 170 102 213 c 132,-1,5
 64 256 64 256 64 319 c 132,-1,6
 64 382 64 382 102 425.5 c 132,-1,7
 140 469 140 469 201 469 c 132,-1,0
 262 469 262 469 300 425.5 c 132,-1,1
260 319 m 132,-1,9
 260 354 260 354 244.5 377 c 132,-1,10
 229 400 229 400 201 400 c 132,-1,11
 173 400 173 400 157 377 c 132,-1,12
 141 354 141 354 141 319.5 c 132,-1,13
 141 285 141 285 157 262 c 132,-1,14
 173 239 173 239 201 239 c 132,-1,15
 229 239 229 239 244.5 261.5 c 132,-1,8
 260 284 260 284 260 319 c 132,-1,9
328 750 m 1,16,-1
 477 756 l 2,17,18
 504 756 504 756 520.5 743.5 c 128,-1,19
 537 731 537 731 537 709.5 c 128,-1,20
 537 688 537 688 518 675 c 128,-1,21
 499 662 499 662 469 662 c 1,22,23
 468 600 468 600 468 257 c 0,24,25
 468 184 468 184 447.5 129 c 128,-1,26
 427 74 427 74 393 44 c 0,27,28
 326 -15 326 -15 240.5 -15 c 128,-1,29
 155 -15 155 -15 100.5 19.5 c 128,-1,30
 46 54 46 54 46 87 c 0,31,32
 46 106 46 106 57 117.5 c 128,-1,33
 68 129 68 129 86 129 c 128,-1,34
 104 129 104 129 122 115 c 128,-1,35
 140 101 140 101 168 86.5 c 128,-1,36
 196 72 196 72 237 72 c 0,37,38
 295 72 295 72 336.5 121.5 c 128,-1,39
 378 171 378 171 378 278 c 2,40,-1
 375 667 l 1,41,42
 312 667 312 667 261 664 c 128,-1,43
 210 661 210 661 191 661 c 128,-1,44
 172 661 172 661 155.5 673.5 c 128,-1,45
 139 686 139 686 139 708 c 128,-1,46
 139 730 139 730 155.5 742.5 c 128,-1,47
 172 755 172 755 199 755 c 2,48,-1
 328 750 l 1,16,-1
EndSplineSet
Validated: 1
EndChar

StartChar: k
Encoding: 107 107 77
Width: 604
GlyphClass: 2
Flags: W
LayerCount: 2
Fore
SplineSet
33.5859375 260.245117188 m 132,-1,1
 33.5859375 280.750976562 33.5859375 280.750976562 42.69921875 296.698242188 c 132,-1,2
 51.810546875 312.646484375 51.810546875 312.646484375 76.46875 328.025390625 c 132,-1,3
 101.127929688 343.403320312 101.127929688 343.403320312 120.42578125 352.518554688 c 132,-1,4
 139.723632812 361.629882812 139.723632812 361.629882812 186.360351562 380.426757812 c 132,-1,5
 232.99609375 399.22265625 232.99609375 399.22265625 261.407226562 411.75390625 c 132,-1,6
 289.817382812 424.28515625 289.817382812 424.28515625 330.557617188 442.509765625 c 132,-1,7
 371.296875 460.737304688 371.296875 460.737304688 392.204101562 470.418945312 c 132,-1,8
 413.109375 480.102539062 413.109375 480.102539062 437.767578125 490.354492188 c 4,9,10
 482.795898438 507.442382812 482.795898438 507.442382812 502.629882812 507.442382812 c 132,-1,11
 522.462890625 507.442382812 522.462890625 507.442382812 535.328125 495.481445312 c 132,-1,12
 548.193359375 483.518554688 548.193359375 483.518554688 548.193359375 465.29296875 c 4,13,14
 548.193359375 434.537109375 548.193359375 434.537109375 511.743164062 417.448242188 c 4,15,16
 472.07421875 400.361328125 472.07421875 400.361328125 409.893554688 375.869140625 c 132,-1,17
 347.709960938 351.377929688 347.709960938 351.377929688 321.981445312 339.987304688 c 4,18,19
 159.020507812 271.638671875 159.020507812 271.638671875 159.020507812 260.245117188 c 4,20,21
 159.020507812 251.133789062 159.020507812 251.133789062 281.241210938 198.731445312 c 6,22,-1
 320.908203125 180.504882812 l 6,23,24
 346.638671875 169.114257812 346.638671875 169.114257812 408.821289062 144.623046875 c 132,-1,25
 471.001953125 120.130859375 471.001953125 120.130859375 510.670898438 103.043945312 c 4,26,27
 547.122070312 85.9560546875 547.122070312 85.9560546875 547.122070312 55.19921875 c 4,28,29
 547.122070312 36.9736328125 547.122070312 36.9736328125 534.255859375 25.01171875 c 132,-1,30
 521.391601562 13.05078125 521.391601562 13.05078125 506.91796875 13.05078125 c 132,-1,31
 492.444335938 13.05078125 492.444335938 13.05078125 476.899414062 17.037109375 c 132,-1,32
 461.353515625 21.0244140625 461.353515625 21.0244140625 436.6953125 30.70703125 c 132,-1,33
 412.037109375 40.3896484375 412.037109375 40.3896484375 390.594726562 50.6416015625 c 4,34,35
 273.736328125 104.181640625 273.736328125 104.181640625 206.193359375 131.5234375 c 132,-1,36
 138.65234375 158.861328125 138.65234375 158.861328125 119.888671875 167.975585938 c 132,-1,37
 101.127929688 177.087890625 101.127929688 177.087890625 76.46875 192.466796875 c 132,-1,38
 51.810546875 207.844726562 51.810546875 207.844726562 42.69921875 223.79296875 c 132,-1,0
 33.5859375 239.740234375 33.5859375 239.740234375 33.5859375 260.245117188 c 132,-1,1
182 50 m 2,39,40
 182.073321734 25.101522401 182.073321734 25.101522401 169 7 c 0,41,42
 156 -10 156 -10 136 -10 c 0,43,44
 112 -10 112 -10 103.5 7 c 0,45,46
 90.7782377292 35.4967474867 90.7782377292 35.4967474867 91 50 c 2,47,-1
 96 377 l 1,48,-1
 96 629 l 1,49,50
 92 738 l 1,51,52
 114 760 114 760 136.5 760 c 0,53,54
 161 760 161 760 181 738 c 1,55,56
 177 629 l 1,57,-1
 181.240234375 308 l 1,58,-1
 182 50 l 2,39,40
EndSplineSet
Validated: 37
EndChar

StartChar: l
Encoding: 108 108 78
Width: 267
GlyphClass: 2
Flags: W
LayerCount: 2
Fore
SplineSet
176 337 m 5,0,-1
 181 47 l 6,1,2
 181 23 181 23 166 6.5 c 132,-1,3
 151 -10 151 -10 130.5 -10 c 132,-1,4
 110 -10 110 -10 95.5 6.5 c 132,-1,5
 81 23 81 23 81 47 c 6,6,7
 81 47 81 47 85 372 c 5,8,-1
 81 702 l 6,9,10
 81 726 81 726 95.5 742.5 c 132,-1,11
 110 759 110 759 130.5 759 c 132,-1,12
 151 759 151 759 166 742.5 c 132,-1,13
 181 726 181 726 181 702 c 6,14,-1
 178 612 l 6,15,16
 176 522 176 522 176 434 c 6,17,18
 176 337 l 5,0,-1
EndSplineSet
Validated: 513
PairPos2: "'kern' Horizontal Kerning in Latin lookup 0 per glyph data 1" edieresis dx=0 dy=0 dh=-50 dv=0 dx=0 dy=0 dh=0 dv=0
PairPos2: "'kern' Horizontal Kerning in Latin lookup 0 per glyph data 1" ecircumflex dx=0 dy=0 dh=-50 dv=0 dx=0 dy=0 dh=0 dv=0
PairPos2: "'kern' Horizontal Kerning in Latin lookup 0 per glyph data 1" eacute dx=0 dy=0 dh=-50 dv=0 dx=0 dy=0 dh=0 dv=0
PairPos2: "'kern' Horizontal Kerning in Latin lookup 0 per glyph data 1" egrave dx=0 dy=0 dh=-50 dv=0 dx=0 dy=0 dh=0 dv=0
PairPos2: "'kern' Horizontal Kerning in Latin lookup 0 per glyph data 1" o dx=0 dy=0 dh=-20 dv=0 dx=0 dy=0 dh=0 dv=0
PairPos2: "'kern' Horizontal Kerning in Latin lookup 0 per glyph data 1" e dx=0 dy=0 dh=-50 dv=0 dx=0 dy=0 dh=0 dv=0
EndChar

StartChar: m
Encoding: 109 109 79
Width: 1218
GlyphClass: 2
Flags: W
LayerCount: 2
Fore
SplineSet
1083 460 m 2,0,-1
 1076 218 l 2,1,2
 1076 180 1076 180 1077 161 c 128,-1,3
 1078 142 1078 142 1085 121 c 128,-1,4
 1092 100 1092 100 1106 94 c 0,5,6
 1114 90 1114 90 1125 88.5 c 128,-1,7
 1136 87 1136 87 1141 84 c 128,-1,8
 1146 81 1146 81 1146 73 c 0,9,10
 1146 38 1146 38 1124 14.5 c 128,-1,11
 1102 -9 1102 -9 1072 -9 c 0,12,13
 1021 -9 1021 -9 1001.5 31 c 128,-1,14
 982 71 982 71 982 150 c 2,15,-1
 987 429 l 2,16,17
 987 538 987 538 950 604.5 c 128,-1,18
 913 671 913 671 847 671 c 128,-1,19
 781 671 781 671 718.5 583 c 128,-1,20
 656 495 656 495 631 383 c 1,21,-1
 635 60 l 2,22,23
 635 26 635 26 624 8.5 c 128,-1,24
 613 -9 613 -9 584 -9 c 0,25,26
 522 -9 522 -9 522 91 c 128,-1,27
 522 191 522 191 549 383 c 1,28,29
 549 671 549 671 406 671 c 0,30,31
 342 671 342 671 279.5 583 c 128,-1,32
 217 495 217 495 192 383 c 1,33,-1
 196 60 l 2,34,35
 196 -9 196 -9 145 -9 c 0,36,37
 83 -9 83 -9 83 91 c 128,-1,38
 83 191 83 191 110 383 c 1,39,40
 110 449 110 449 98.5 560.5 c 128,-1,41
 87 672 87 672 87 697.5 c 128,-1,42
 87 723 87 723 101 741.5 c 128,-1,43
 115 760 115 760 139.5 760 c 128,-1,44
 164 760 164 760 178 741.5 c 128,-1,45
 192 723 192 723 192 700 c 128,-1,46
 192 677 192 677 191.5 644.5 c 128,-1,47
 191 612 191 612 191 589 c 1,48,49
 283 760 283 760 425 760 c 0,50,51
 507 760 507 760 558.5 713.5 c 128,-1,52
 610 667 610 667 630 589 c 1,53,54
 725 760 725 760 865 760 c 0,55,56
 969 760 969 760 1026 672.5 c 128,-1,57
 1083 585 1083 585 1083 460 c 2,0,-1
EndSplineSet
Validated: 1
PairPos2: "'kern' Horizontal Kerning in Latin lookup 0 per glyph data 1" aring dx=0 dy=0 dh=-30 dv=0 dx=0 dy=0 dh=0 dv=0
PairPos2: "'kern' Horizontal Kerning in Latin lookup 0 per glyph data 1" adieresis dx=0 dy=0 dh=-30 dv=0 dx=0 dy=0 dh=0 dv=0
PairPos2: "'kern' Horizontal Kerning in Latin lookup 0 per glyph data 1" atilde dx=0 dy=0 dh=-30 dv=0 dx=0 dy=0 dh=0 dv=0
PairPos2: "'kern' Horizontal Kerning in Latin lookup 0 per glyph data 1" acircumflex dx=0 dy=0 dh=-30 dv=0 dx=0 dy=0 dh=0 dv=0
PairPos2: "'kern' Horizontal Kerning in Latin lookup 0 per glyph data 1" aacute dx=0 dy=0 dh=-30 dv=0 dx=0 dy=0 dh=0 dv=0
PairPos2: "'kern' Horizontal Kerning in Latin lookup 0 per glyph data 1" agrave dx=0 dy=0 dh=-30 dv=0 dx=0 dy=0 dh=0 dv=0
PairPos2: "'kern' Horizontal Kerning in Latin lookup 0 per glyph data 1" q dx=0 dy=0 dh=-30 dv=0 dx=0 dy=0 dh=0 dv=0
PairPos2: "'kern' Horizontal Kerning in Latin lookup 0 per glyph data 1" o dx=0 dy=0 dh=-20 dv=0 dx=0 dy=0 dh=0 dv=0
PairPos2: "'kern' Horizontal Kerning in Latin lookup 0 per glyph data 1" g dx=0 dy=0 dh=-30 dv=0 dx=0 dy=0 dh=0 dv=0
PairPos2: "'kern' Horizontal Kerning in Latin lookup 0 per glyph data 1" d dx=0 dy=0 dh=-30 dv=0 dx=0 dy=0 dh=0 dv=0
PairPos2: "'kern' Horizontal Kerning in Latin lookup 0 per glyph data 1" a dx=0 dy=0 dh=-30 dv=0 dx=0 dy=0 dh=0 dv=0
EndChar

StartChar: n
Encoding: 110 110 80
Width: 805
GlyphClass: 2
Flags: W
LayerCount: 2
Fore
SplineSet
670 497 m 2,0,-1
 663 215 l 2,1,2
 663 177 663 177 664 158 c 128,-1,3
 665 139 665 139 672 118 c 128,-1,4
 679 97 679 97 693 91 c 0,5,6
 701 87 701 87 712 85.5 c 128,-1,7
 723 84 723 84 728 81 c 128,-1,8
 733 78 733 78 733 70 c 0,9,10
 733 35 733 35 711 11.5 c 128,-1,11
 689 -12 689 -12 659 -12 c 0,12,13
 607 -12 607 -12 587.5 28 c 128,-1,14
 568 68 568 68 568 147 c 2,15,-1
 574 431 l 2,16,17
 574 540 574 540 536 605.5 c 128,-1,18
 498 671 498 671 425.5 671 c 128,-1,19
 353 671 353 671 285 583.5 c 128,-1,20
 217 496 217 496 191 385 c 1,21,-1
 195 57 l 2,22,23
 195 -12 195 -12 144 -12 c 0,24,25
 82 -12 82 -12 82 92.5 c 128,-1,26
 82 197 82 197 109 385 c 1,27,28
 109 450 109 450 97.5 561.5 c 128,-1,29
 86 673 86 673 86 698 c 128,-1,30
 86 723 86 723 100 741.5 c 128,-1,31
 114 760 114 760 138.5 760 c 128,-1,32
 163 760 163 760 177 741.5 c 128,-1,33
 191 723 191 723 191 700 c 128,-1,34
 191 677 191 677 190.5 644.5 c 128,-1,35
 190 612 190 612 190 589 c 1,36,37
 288 760 288 760 438 760 c 0,38,39
 549 760 549 760 609.5 683.5 c 128,-1,40
 670 607 670 607 670 497 c 2,0,-1
EndSplineSet
Validated: 1
EndChar

StartChar: o
Encoding: 111 111 81
Width: 824
GlyphClass: 2
Flags: W
LayerCount: 2
Fore
SplineSet
586.5 164 m 128,-1,1
 656 256 656 256 656 377 c 128,-1,2
 656 498 656 498 587 588.5 c 128,-1,3
 518 679 518 679 412.5 679 c 128,-1,4
 307 679 307 679 237.5 588.5 c 128,-1,5
 168 498 168 498 168 377.5 c 128,-1,6
 168 257 168 257 238 164.5 c 128,-1,7
 308 72 308 72 412.5 72 c 128,-1,0
 517 72 517 72 586.5 164 c 128,-1,1
752 376 m 128,-1,9
 752 213 752 213 654.5 99 c 128,-1,10
 557 -15 557 -15 411.5 -15 c 128,-1,11
 266 -15 266 -15 169 99 c 128,-1,12
 72 213 72 213 72 376 c 128,-1,13
 72 539 72 539 170 652 c 128,-1,14
 268 765 268 765 413.5 765 c 128,-1,15
 559 765 559 765 655.5 652 c 128,-1,8
 752 539 752 539 752 376 c 128,-1,9
EndSplineSet
Validated: 1
EndChar

StartChar: p
Encoding: 112 112 82
Width: 617
GlyphClass: 2
Flags: W
LayerCount: 2
Fore
SplineSet
209 524 m 1,0,1
 208 487 208 487 208 429.5 c 128,-1,2
 208 372 208 372 210 298 c 1,3,4
 262 284 262 284 329 284 c 128,-1,5
 396 284 396 284 437.5 319 c 128,-1,6
 479 354 479 354 479 411 c 128,-1,7
 479 468 479 468 437 503 c 128,-1,8
 395 538 395 538 328 538 c 128,-1,9
 261 538 261 538 209 524 c 1,0,1
119 375 m 1,10,-1
 113 689 l 2,11,12
 113 760 113 760 164 760 c 128,-1,13
 215 760 215 760 215 689 c 0,14,15
 215 674 215 674 212.5 650.5 c 128,-1,16
 210 627 210 627 210 612 c 1,17,18
 258 625 258 625 328 625 c 0,19,20
 438 625 438 625 506 563.5 c 128,-1,21
 574 502 574 502 574 410.5 c 128,-1,22
 574 319 574 319 506.5 258 c 128,-1,23
 439 197 439 197 329 197 c 0,24,25
 261 197 261 197 210 209 c 1,26,27
 215 96 215 96 215 61 c 0,28,29
 215 -10 215 -10 164 -10 c 128,-1,30
 113 -10 113 -10 113 61 c 2,31,-1
 119 375 l 1,10,-1
EndSplineSet
Validated: 1
EndChar

StartChar: q
Encoding: 113 113 83
Width: 930
GlyphClass: 2
Flags: W
LayerCount: 2
Fore
SplineSet
564.740234375 526.11328125 m 4,0,1
 564.740234375 489.5703125 564.740234375 489.5703125 540.997070312 449.877929688 c 132,-1,2
 517.25390625 410.185546875 517.25390625 410.185546875 492.663085938 410.185546875 c 132,-1,3
 468.072265625 410.185546875 468.072265625 410.185546875 436.4140625 445.467773438 c 132,-1,4
 404.755859375 480.75 404.755859375 480.75 390.057617188 480.75 c 132,-1,5
 375.360351562 480.75 375.360351562 480.75 356.138671875 443.578125 c 132,-1,6
 336.91796875 406.405273438 336.91796875 406.405273438 323.350585938 406.405273438 c 132,-1,7
 309.783203125 406.405273438 309.783203125 406.405273438 302.999023438 420.266601562 c 132,-1,8
 296.215820312 434.126953125 296.215820312 434.126953125 296.215820312 456.809570312 c 4,9,10
 296.215820312 498.390625 296.215820312 498.390625 323.350585938 537.453125 c 132,-1,11
 350.486328125 576.515625 350.486328125 576.515625 381.861328125 576.515625 c 132,-1,12
 413.235351562 576.515625 413.235351562 576.515625 445.458984375 540.603515625 c 132,-1,13
 477.682617188 504.69140625 477.682617188 504.69140625 491.815429688 504.69140625 c 132,-1,14
 505.948242188 504.69140625 505.948242188 504.69140625 520.928710938 535.563476562 c 132,-1,15
 535.909179688 566.434570312 535.909179688 566.434570312 545.237304688 566.434570312 c 132,-1,16
 554.565429688 566.434570312 554.565429688 566.434570312 559.65234375 554.463867188 c 132,-1,17
 564.740234375 542.493164062 564.740234375 542.493164062 564.740234375 526.11328125 c 4,0,1
594.740234375 304.299804688 m 0,18,19
 595 268 595 268 570.997070312 228.06640625 c 128,-1,20
 547 188 547 188 522.663085938 188.372070312 c 0,21,22
 498 188 498 188 466.4140625 223.655273438 c 0,23,24
 435 259 435 259 420.057617188 258.936523438 c 128,-1,25
 405 259 405 259 386.138671875 221.765625 c 0,26,27
 367 185 367 185 353.350585938 184.59375 c 0,28,29
 340 185 340 185 332.999023438 198.454101562 c 128,-1,30
 326 212 326 212 326.215820312 234.99609375 c 0,31,32
 326 277 326 277 353.350585938 315.639648438 c 0,33,34
 380 355 380 355 411.861328125 354.702148438 c 0,35,36
 443 355 443 355 475.458984375 318.790039062 c 0,37,38
 508 283 508 283 521.815429688 282.877929688 c 0,39,40
 536 283 536 283 550.928710938 313.75 c 0,41,42
 566 345 566 345 575.237304688 344.622070312 c 0,43,44
 585 345 585 345 589.65234375 332.650390625 c 0,45,46
 595 321 595 321 594.740234375 304.299804688 c 0,18,19
780 376 m 0,47,48
 780 271 780 271 736.5 183 c 128,-1,49
 693 95 693 95 620 43 c 1,50,51
 627 31 627 31 642 8 c 0,52,53
 672 -37 672 -37 672 -54 c 128,-1,54
 672 -71 672 -71 661 -82.5 c 128,-1,55
 650 -94 650 -94 630 -94 c 128,-1,56
 610 -94 610 -94 594 -67 c 2,57,-1
 555 3 l 1,58,59
 496 -15 496 -15 439 -15 c 0,60,61
 294 -15 294 -15 197 99 c 128,-1,62
 100 213 100 213 100 376 c 128,-1,63
 100 539 100 539 198 652 c 128,-1,64
 296 765 296 765 441.5 765 c 128,-1,65
 587 765 587 765 683.5 652 c 128,-1,66
 780 539 780 539 780 376 c 0,47,48
684 376 m 0,67,68
 684 498 684 498 615 588.5 c 128,-1,69
 546 679 546 679 440.5 679 c 128,-1,70
 335 679 335 679 265.5 588.5 c 128,-1,71
 196 498 196 498 196 377.5 c 128,-1,72
 196 257 196 257 266 164.5 c 128,-1,73
 336 72 336 72 440 72 c 0,74,75
 479 72 479 72 512 81 c 1,76,-1
 566 116 l 1,77,78
 621 158 621 158 652.5 228 c 128,-1,79
 684 298 684 298 684 376 c 0,67,68
EndSplineSet
EndChar

StartChar: r
Encoding: 114 114 84
Width: 563
GlyphClass: 2
Flags: W
LayerCount: 2
Fore
SplineSet
192 355 m 1,0,1
 192 355 192 355 195 57 c 0,2,3
 195 -12 195 -12 144 -12 c 0,4,5
 82 -12 82 -12 82 92.5 c 128,-1,6
 82 197 82 197 109 385 c 1,7,8
 109 450 109 450 97.5 561.5 c 128,-1,9
 86 673 86 673 86 698 c 128,-1,10
 86 723 86 723 100 741.5 c 128,-1,11
 114 760 114 760 138.5 760 c 128,-1,12
 163 760 163 760 177 741.5 c 128,-1,13
 191 723 191 723 191 700 c 128,-1,14
 191 677 191 677 190.5 644.5 c 128,-1,15
 190 612 190 612 190 590 c 1,16,17
 219 659 219 659 279 711.5 c 128,-1,18
 339 764 339 764 401.5 764 c 128,-1,19
 464 764 464 764 497 739.5 c 128,-1,20
 530 715 530 715 530 686.5 c 128,-1,21
 530 658 530 658 514.5 641.5 c 128,-1,22
 499 625 499 625 476 625 c 128,-1,23
 453 625 453 625 425.5 650 c 128,-1,24
 398 675 398 675 381 675 c 0,25,26
 335 675 335 675 272 568.5 c 128,-1,27
 209 462 209 462 192 355 c 1,0,1
EndSplineSet
Validated: 1
EndChar

StartChar: s
Encoding: 115 115 85
Width: 606
GlyphClass: 2
Flags: W
LayerCount: 2
Fore
SplineSet
547 204 m 0,0,1
 547 111 547 111 476.5 48 c 128,-1,2
 406 -15 406 -15 294 -15 c 0,3,4
 207 -15 207 -15 132 27 c 128,-1,5
 57 69 57 69 57 109 c 0,6,7
 57 127 57 127 69 139 c 128,-1,8
 81 151 81 151 99.5 151 c 128,-1,9
 118 151 118 151 137 138.5 c 128,-1,10
 156 126 156 126 172 111.5 c 128,-1,11
 188 97 188 97 220.5 84.5 c 128,-1,12
 253 72 253 72 294 72 c 0,13,14
 362 72 362 72 406.5 107 c 128,-1,15
 451 142 451 142 451 204 c 0,16,17
 451 245 451 245 413 282 c 128,-1,18
 375 319 375 319 321 349 c 128,-1,19
 267 379 267 379 213 410.5 c 128,-1,20
 159 442 159 442 121 487.5 c 128,-1,21
 83 533 83 533 83 586 c 0,22,23
 83 659 83 659 147 712 c 128,-1,24
 211 765 211 765 298 765 c 128,-1,25
 385 765 385 765 446 735.5 c 128,-1,26
 507 706 507 706 507 668 c 0,27,28
 507 649 507 649 495 638 c 128,-1,29
 483 627 483 627 463 627 c 128,-1,30
 443 627 443 627 424 640 c 128,-1,31
 405 653 405 653 377 666 c 128,-1,32
 349 679 349 679 302 679 c 128,-1,33
 255 679 255 679 217 653 c 128,-1,34
 179 627 179 627 179 589 c 128,-1,35
 179 551 179 551 217 518.5 c 128,-1,36
 255 486 255 486 309 456 c 128,-1,37
 363 426 363 426 417 393 c 128,-1,38
 471 360 471 360 509 311 c 128,-1,39
 547 262 547 262 547 204 c 0,0,1
EndSplineSet
Validated: 1
EndChar

StartChar: t
Encoding: 116 116 86
Width: 616
GlyphClass: 2
Flags: W
LayerCount: 2
Fore
SplineSet
293 302 m 6,0,-1
 430 297 l 6,1,2
 456 296 456 296 473 309.5 c 4,3,4
 489 322 489 322 489 343 c 4,5,6
 489 388.72265625 489 388.72265625 430 387 c 6,7,-1
 293 383 l 6,8,9
 258 382 258 382 226 384 c 5,10,11
 226 515 226 515 229 594 c 132,-1,12
 232 673 232 673 232 681 c 4,13,14
 232 752 232 752 181 752 c 132,-1,15
 130 752 130 752 130 681 c 4,16,17
 130 673 130 673 131 634 c 4,18,19
 136 517 136 517 136 387 c 5,20,21
 45 387 45 387 45 343 c 4,22,23
 45 320 45 320 64 308.5 c 132,-1,24
 83 297 83 297 136 297 c 5,25,26
 134 110 134 110 129 72 c 5,27,28
 117 53 117 53 117 32 c 4,29,30
 117 -14.67578125 117 -14.67578125 179 -13 c 6,31,-1
 364 -8 l 5,32,-1
 491 -14 l 6,33,34
 517 -15 517 -15 534.5 -1.5 c 4,35,36
 551 11 551 11 551 33 c 132,-1,37
 551 55 551 55 534.5 67.5 c 4,38,39
 516.720703125 81.21484375 516.720703125 81.21484375 491 80 c 6,40,-1
 364 74 l 6,41,42
 321 72 321 72 226 79 c 5,43,-1
 226 301 l 5,44,45
 265 303 265 303 293 302 c 6,0,-1
EndSplineSet
Validated: 553
PairPos2: "'kern' Horizontal Kerning in Latin lookup 0 per glyph data 1" edieresis dx=0 dy=0 dh=-30 dv=0 dx=0 dy=0 dh=0 dv=0
PairPos2: "'kern' Horizontal Kerning in Latin lookup 0 per glyph data 1" ecircumflex dx=0 dy=0 dh=-30 dv=0 dx=0 dy=0 dh=0 dv=0
PairPos2: "'kern' Horizontal Kerning in Latin lookup 0 per glyph data 1" eacute dx=0 dy=0 dh=-30 dv=0 dx=0 dy=0 dh=0 dv=0
PairPos2: "'kern' Horizontal Kerning in Latin lookup 0 per glyph data 1" egrave dx=0 dy=0 dh=-30 dv=0 dx=0 dy=0 dh=0 dv=0
PairPos2: "'kern' Horizontal Kerning in Latin lookup 0 per glyph data 1" aring dx=0 dy=0 dh=-20 dv=0 dx=0 dy=0 dh=0 dv=0
PairPos2: "'kern' Horizontal Kerning in Latin lookup 0 per glyph data 1" adieresis dx=0 dy=0 dh=-20 dv=0 dx=0 dy=0 dh=0 dv=0
PairPos2: "'kern' Horizontal Kerning in Latin lookup 0 per glyph data 1" atilde dx=0 dy=0 dh=-20 dv=0 dx=0 dy=0 dh=0 dv=0
PairPos2: "'kern' Horizontal Kerning in Latin lookup 0 per glyph data 1" acircumflex dx=0 dy=0 dh=-20 dv=0 dx=0 dy=0 dh=0 dv=0
PairPos2: "'kern' Horizontal Kerning in Latin lookup 0 per glyph data 1" aacute dx=0 dy=0 dh=-20 dv=0 dx=0 dy=0 dh=0 dv=0
PairPos2: "'kern' Horizontal Kerning in Latin lookup 0 per glyph data 1" agrave dx=0 dy=0 dh=-20 dv=0 dx=0 dy=0 dh=0 dv=0
PairPos2: "'kern' Horizontal Kerning in Latin lookup 0 per glyph data 1" q dx=0 dy=0 dh=-20 dv=0 dx=0 dy=0 dh=0 dv=0
PairPos2: "'kern' Horizontal Kerning in Latin lookup 0 per glyph data 1" o dx=0 dy=0 dh=-30 dv=0 dx=0 dy=0 dh=0 dv=0
PairPos2: "'kern' Horizontal Kerning in Latin lookup 0 per glyph data 1" g dx=0 dy=0 dh=-20 dv=0 dx=0 dy=0 dh=0 dv=0
PairPos2: "'kern' Horizontal Kerning in Latin lookup 0 per glyph data 1" e dx=0 dy=0 dh=-30 dv=0 dx=0 dy=0 dh=0 dv=0
PairPos2: "'kern' Horizontal Kerning in Latin lookup 0 per glyph data 1" d dx=0 dy=0 dh=-20 dv=0 dx=0 dy=0 dh=0 dv=0
PairPos2: "'kern' Horizontal Kerning in Latin lookup 0 per glyph data 1" a dx=0 dy=0 dh=-20 dv=0 dx=0 dy=0 dh=0 dv=0
EndChar

StartChar: u
Encoding: 117 117 87
Width: 819
GlyphClass: 2
Flags: W
LayerCount: 2
Fore
SplineSet
202 646 m 2,0,-1
 191 314 l 2,1,2
 191 205 191 205 228.5 138.5 c 128,-1,3
 266 72 266 72 342.5 72 c 128,-1,4
 419 72 419 72 490 161.5 c 128,-1,5
 561 251 561 251 574 360 c 1,6,-1
 570 688 l 2,7,8
 570 757 570 757 621 757 c 0,9,10
 683 757 683 757 683 655 c 128,-1,11
 683 553 683 553 656 360 c 1,12,13
 656 250 656 250 670.5 173.5 c 128,-1,14
 685 97 685 97 706 88 c 0,15,16
 714 84 714 84 725.5 82.5 c 128,-1,17
 737 81 737 81 742 78 c 128,-1,18
 747 75 747 75 747 67 c 0,19,20
 747 30 747 30 725 7.5 c 128,-1,21
 703 -15 703 -15 669 -15 c 0,22,23
 584 -15 584 -15 584 158 c 1,24,25
 484 -15 484 -15 332 -15 c 0,26,27
 251 -15 251 -15 196 30 c 0,28,29
 96 114 96 114 96 297 c 1,30,-1
 104 536 l 2,31,32
 104 590 104 590 93 636 c 128,-1,33
 82 682 82 682 82 702.5 c 128,-1,34
 82 723 82 723 98 740 c 128,-1,35
 114 757 114 757 140 757 c 0,36,37
 202 757 202 757 202 646 c 2,0,-1
EndSplineSet
Validated: 1
EndChar

StartChar: v
Encoding: 118 118 88
Width: 673
GlyphClass: 2
Flags: W
LayerCount: 2
Fore
SplineSet
397 40 m 0,0,1
 380 -10 380 -10 336.5 -10 c 128,-1,2
 293 -10 293 -10 276 40 c 0,3,4
 130 450 130 450 120.5 479.5 c 128,-1,5
 111 509 111 509 87.5 573 c 128,-1,6
 64 637 64 637 52 669.5 c 128,-1,7
 40 702 40 702 40 716 c 128,-1,8
 40 730 40 730 52.5 745 c 128,-1,9
 65 760 65 760 87 760 c 0,10,11
 125 760 125 760 140 715 c 0,12,13
 330 133 330 133 337 133 c 0,14,15
 348 133 348 133 538 715 c 0,16,17
 553 760 553 760 586 760 c 0,18,19
 608 760 608 760 620.5 745 c 128,-1,20
 633 730 633 730 633 716 c 128,-1,21
 633 702 633 702 621 670 c 0,22,23
 564 515 564 515 553.5 482.5 c 128,-1,24
 543 450 543 450 397 40 c 0,0,1
EndSplineSet
Validated: 1
EndChar

StartChar: w
Encoding: 119 119 89
Width: 959
GlyphClass: 2
Flags: W
LayerCount: 2
Fore
SplineSet
313.5 434 m 128,-1,1
 331 476 331 476 380 585.5 c 128,-1,2
 429 695 429 695 445 732 c 128,-1,3
 461 769 461 769 487 769 c 128,-1,4
 513 769 513 769 530 730 c 0,5,6
 662 435 662 435 670.5 410.5 c 128,-1,7
 679 386 679 386 679 371 c 128,-1,8
 679 356 679 356 669.5 343 c 128,-1,9
 660 330 660 330 642.5 330 c 128,-1,10
 625 330 625 330 613 360 c 0,11,12
 584 435 584 435 537.5 546.5 c 128,-1,13
 491 658 491 658 487.5 658 c 128,-1,14
 484 658 484 658 438 547.5 c 128,-1,15
 392 437 392 437 361 360 c 0,16,17
 357 346 357 346 347.5 338 c 128,-1,18
 338 330 338 330 326.5 330 c 128,-1,19
 315 330 315 330 305.5 343 c 128,-1,20
 296 356 296 356 296 374 c 128,-1,0
 296 392 296 392 313.5 434 c 128,-1,1
714 38 m 0,21,22
 697 -10 697 -10 653.5 -10 c 128,-1,23
 610 -10 610 -10 593 35 c 0,24,25
 580 71 580 71 530.5 178 c 128,-1,26
 481 285 481 285 479 285 c 128,-1,27
 477 285 477 285 455.5 212 c 128,-1,28
 434 139 434 139 407 104.5 c 128,-1,29
 380 70 380 70 370 38 c 0,30,31
 355 -10 355 -10 310 -10 c 0,32,33
 267 -10 267 -10 250 35 c 0,34,35
 245 48 245 48 227 106.5 c 128,-1,36
 209 165 209 165 183.5 246 c 128,-1,37
 158 327 158 327 146 364.5 c 128,-1,38
 134 402 134 402 117 453.5 c 0,39,40
 89 538 89 538 89 538.5 c 0,41,42
 77 587 77 587 66 611 c 0,43,44
 42 653 l 0,45,46
 42 675 42 675 55 688.5 c 128,-1,47
 68 702 68 702 86 702 c 0,48,49
 126 702 126 702 140 657 c 0,50,51
 202 460 202 460 258 289.5 c 128,-1,52
 314 119 314 119 315 119 c 0,53,54
 319 119 319 119 365 198.5 c 128,-1,55
 411 278 411 278 425 340 c 4,56,57
 430 362 430 362 445.5 378.5 c 132,-1,58
 461 395 461 395 483 395 c 4,59,60
 517 395 517 395 542 344 c 4,61,62
 647 119 647 119 660 119 c 1,63,-1
 695 247 l 2,64,65
 730 375 730 375 771 498 c 128,-1,66
 812 621 812 621 822 657 c 0,67,68
 834 702 834 702 867 702 c 0,69,70
 890 702 890 702 902 687.5 c 128,-1,71
 914 673 914 673 914 651 c 128,-1,72
 914 629 914 629 867 504 c 128,-1,73
 820 379 820 379 790 280 c 0,74,75
 722 59 722 59 714 38 c 0,21,22
EndSplineSet
EndChar

StartChar: x
Encoding: 120 120 90
Width: 573
GlyphClass: 2
Flags: W
LayerCount: 2
Fore
SplineSet
286 322 m 1,0,1
 283 319 283 319 243.5 282.5 c 128,-1,2
 204 246 204 246 161 203 c 0,3,4
 145 187 145 187 127 187 c 128,-1,5
 109 187 109 187 97 199 c 128,-1,6
 85 211 85 211 85 227.5 c 128,-1,7
 85 244 85 244 105.5 264 c 128,-1,8
 126 284 126 284 170.5 321.5 c 128,-1,9
 215 359 215 359 233 376 c 1,10,11
 215 393 215 393 172 428 c 128,-1,12
 129 463 129 463 108 483.5 c 128,-1,13
 87 504 87 504 87 522 c 128,-1,14
 87 540 87 540 99.5 551.5 c 128,-1,15
 112 563 112 563 129 563 c 128,-1,16
 146 563 146 563 167 545 c 128,-1,17
 188 527 188 527 227.5 488 c 128,-1,18
 267 449 267 449 286 432 c 1,19,20
 301 445 301 445 341.5 485.5 c 128,-1,21
 382 526 382 526 403.5 545 c 128,-1,22
 425 564 425 564 442 564 c 128,-1,23
 459 564 459 564 471.5 552.5 c 128,-1,24
 484 541 484 541 484 523 c 128,-1,25
 484 505 484 505 463 485 c 128,-1,26
 442 465 442 465 400 430 c 128,-1,27
 358 395 358 395 339 377 c 1,28,29
 356 361 356 361 400.5 323.5 c 128,-1,30
 445 286 445 286 472 261 c 0,31,32
 488 245 488 245 488 228.5 c 128,-1,33
 488 212 488 212 476 200 c 128,-1,34
 464 188 464 188 446 188 c 128,-1,35
 428 188 428 188 412 204 c 0,36,37
 359 257 359 257 286 322 c 1,0,1
EndSplineSet
Validated: 1
EndChar

StartChar: y
Encoding: 121 121 91
Width: 607
GlyphClass: 2
Flags: W
LayerCount: 2
Fore
SplineSet
347 303 m 1,0,1
 347 223 347 223 350 142 c 2,2,-1
 352 61 l 2,3,4
 352 -10 352 -10 301 -10 c 128,-1,5
 250 -10 250 -10 250 61 c 2,6,-1
 252 144 l 2,7,8
 255 227 255 227 255 304 c 1,9,10
 56 646 56 646 43 673 c 128,-1,11
 30 700 30 700 30 717 c 128,-1,12
 30 734 30 734 42 747 c 128,-1,13
 54 760 54 760 76.5 760 c 128,-1,14
 99 760 99 760 115 738.5 c 128,-1,15
 131 717 131 717 189.5 603 c 128,-1,16
 248 489 248 489 306 401 c 1,17,18
 330 437 330 437 390.5 549 c 128,-1,19
 451 661 451 661 460.5 677.5 c 128,-1,20
 470 694 470 694 474 701.5 c 128,-1,21
 478 709 478 709 485.5 721 c 128,-1,22
 493 733 493 733 497.5 738.5 c 128,-1,23
 502 744 502 744 508 750 c 0,24,25
 518 760 518 760 536 760 c 128,-1,26
 554 760 554 760 565.5 748 c 128,-1,27
 577 736 577 736 577 719 c 128,-1,28
 577 702 577 702 562.5 674.5 c 128,-1,29
 548 647 548 647 499.5 564 c 128,-1,30
 451 481 451 481 437 457.5 c 128,-1,31
 423 434 423 434 397.5 389.5 c 128,-1,32
 372 345 372 345 347 303 c 1,0,1
EndSplineSet
Validated: 1
EndChar

StartChar: z
Encoding: 122 122 92
Width: 618
GlyphClass: 2
Flags: W
LayerCount: 2
Fore
SplineSet
295 750 m 1,0,-1
 498 755 l 2,1,2
 555 755 555 755 555 714 c 0,3,4
 555 689 555 689 534.5 653 c 128,-1,5
 514 617 514 617 455.5 530.5 c 128,-1,6
 397 444 397 444 351 368 c 2,7,-1
 180 87 l 1,8,9
 237 82 237 82 307.5 82 c 128,-1,10
 378 82 378 82 440 85.5 c 128,-1,11
 502 89 502 89 519.5 89 c 128,-1,12
 537 89 537 89 553.5 76.5 c 128,-1,13
 570 64 570 64 570 42 c 128,-1,14
 570 20 570 20 553.5 7.5 c 128,-1,15
 537 -5 537 -5 510 -5 c 2,16,-1
 335 0 l 1,17,-1
 106 -5 l 2,18,19
 49 -5 49 -5 49 38 c 0,20,21
 49 62 49 62 73.5 103.5 c 128,-1,22
 98 145 98 145 160.5 238 c 128,-1,23
 223 331 223 331 273 413 c 2,24,-1
 425 664 l 1,25,26
 380 668 380 668 316 668 c 128,-1,27
 252 668 252 668 190 664.5 c 128,-1,28
 128 661 128 661 110.5 661 c 128,-1,29
 93 661 93 661 76.5 673.5 c 128,-1,30
 60 686 60 686 60 708 c 128,-1,31
 60 730 60 730 76.5 742.5 c 128,-1,32
 93 755 93 755 120 755 c 2,33,-1
 295 750 l 1,0,-1
EndSplineSet
Validated: 1
EndChar

StartChar: braceleft
Encoding: 123 123 93
Width: 369
GlyphClass: 2
Flags: W
LayerCount: 2
Fore
SplineSet
307.5 -7.5 m 128,-1,1
 322 -18 322 -18 322 -38 c 128,-1,2
 322 -58 322 -58 310 -70.5 c 128,-1,3
 298 -83 298 -83 277 -83 c 0,4,5
 219 -83 219 -83 175.5 -51 c 128,-1,6
 132 -19 132 -19 132 39 c 0,7,8
 132 66 132 66 139.5 122.5 c 128,-1,9
 147 179 147 179 147 210 c 0,10,11
 147 303 147 303 125 322 c 1,12,13
 108 315 108 315 86.5 315 c 128,-1,14
 65 315 65 315 47 329.5 c 128,-1,15
 29 344 29 344 29 374 c 128,-1,16
 29 404 29 404 47.5 418.5 c 128,-1,17
 66 433 66 433 87.5 433 c 128,-1,18
 109 433 109 433 126 426 c 1,19,20
 148 445 148 445 148 538 c 0,21,22
 148 569 148 569 140.5 627.5 c 128,-1,23
 133 686 133 686 133 713 c 0,24,25
 133 771 133 771 176.5 803 c 128,-1,26
 220 835 220 835 278 835 c 0,27,28
 299 835 299 835 311 822.5 c 128,-1,29
 323 810 323 810 323 790 c 128,-1,30
 323 770 323 770 308.5 759.5 c 128,-1,31
 294 749 294 749 277 747 c 128,-1,32
 260 745 260 745 245.5 734.5 c 128,-1,33
 231 724 231 724 231 705.5 c 128,-1,34
 231 687 231 687 238 633.5 c 128,-1,35
 245 580 245 580 245 533.5 c 128,-1,36
 245 487 245 487 237.5 453.5 c 128,-1,37
 230 420 230 420 223 408 c 128,-1,38
 216 396 216 396 199 376 c 1,39,40
 215 357 215 357 222 344 c 0,41,42
 244 305 244 305 244 210 c 0,43,44
 244 168 244 168 237 116.5 c 128,-1,45
 230 65 230 65 230 46.5 c 128,-1,46
 230 28 230 28 244.5 17.5 c 128,-1,47
 259 7 259 7 276 5 c 128,-1,0
 293 3 293 3 307.5 -7.5 c 128,-1,1
EndSplineSet
Validated: 1
EndChar

StartChar: bar
Encoding: 124 124 94
Width: 279
GlyphClass: 2
Flags: W
LayerCount: 2
Fore
SplineSet
178 603 m 1,0,-1
 183 499 l 2,1,2
 183 475 183 475 171 460.5 c 128,-1,3
 159 446 159 446 138 446 c 0,4,5
 96 446 96 446 96 499 c 2,6,-1
 100 603 l 1,7,-1
 97 707 l 2,8,9
 97 760 97 760 138 760 c 0,10,11
 159 760 159 760 170.5 745.5 c 128,-1,12
 182 731 182 731 182 707 c 2,13,-1
 178 603 l 1,0,-1
178 147 m 1,14,-1
 183 43 l 2,15,16
 183 19 183 19 171 4.5 c 128,-1,17
 159 -10 159 -10 138 -10 c 0,18,19
 96 -10 96 -10 96 43 c 2,20,-1
 100 147 l 1,21,-1
 97 251 l 2,22,23
 97 304 97 304 138 304 c 0,24,25
 159 304 159 304 170.5 289.5 c 128,-1,26
 182 275 182 275 182 251 c 2,27,-1
 178 147 l 1,14,-1
EndSplineSet
Validated: 1
EndChar

StartChar: braceright
Encoding: 125 125 95
Width: 369
GlyphClass: 2
Flags: W
LayerCount: 2
Fore
SplineSet
180 376 m 1,0,1
 163 396 163 396 156 408 c 128,-1,2
 149 420 149 420 141.5 453.5 c 128,-1,3
 134 487 134 487 134 533.5 c 128,-1,4
 134 580 134 580 141 633.5 c 128,-1,5
 148 687 148 687 148 705.5 c 128,-1,6
 148 724 148 724 133.5 734.5 c 128,-1,7
 119 745 119 745 102 747 c 128,-1,8
 85 749 85 749 70.5 759.5 c 128,-1,9
 56 770 56 770 56 790 c 128,-1,10
 56 810 56 810 68 822.5 c 128,-1,11
 80 835 80 835 101 835 c 0,12,13
 155 835 155 835 195.5 803 c 128,-1,14
 236 771 236 771 236 713 c 0,15,16
 236 686 236 686 228.5 627.5 c 128,-1,17
 221 569 221 569 221 538 c 0,18,19
 221 445 221 445 243 426 c 1,20,21
 260 433 260 433 281.5 433 c 128,-1,22
 303 433 303 433 321.5 418.5 c 128,-1,23
 340 404 340 404 340 374 c 128,-1,24
 340 344 340 344 322 329.5 c 128,-1,25
 304 315 304 315 283 315 c 128,-1,26
 262 315 262 315 244 322 c 1,27,28
 222 303 222 303 222 210 c 0,29,30
 222 179 222 179 229.5 122.5 c 128,-1,31
 237 66 237 66 237 39 c 0,32,33
 237 -19 237 -19 196.5 -51 c 128,-1,34
 156 -83 156 -83 102 -83 c 0,35,36
 81 -83 81 -83 69 -70.5 c 128,-1,37
 57 -58 57 -58 57 -38 c 128,-1,38
 57 -18 57 -18 71.5 -7.5 c 128,-1,39
 86 3 86 3 103 5 c 128,-1,40
 120 7 120 7 134.5 17.5 c 128,-1,41
 149 28 149 28 149 46.5 c 128,-1,42
 149 65 149 65 142 116.5 c 128,-1,43
 135 168 135 168 135 214.5 c 128,-1,44
 135 261 135 261 142 295.5 c 128,-1,45
 149 330 149 330 156.5 343.5 c 128,-1,46
 164 357 164 357 180 376 c 1,0,1
EndSplineSet
Validated: 1
EndChar

StartChar: asciitilde
Encoding: 126 126 96
Width: 622
GlyphClass: 2
Flags: W
LayerCount: 2
Fore
SplineSet
549 404 m 0,0,1
 549 375 549 375 507 343.5 c 128,-1,2
 465 312 465 312 421.5 312 c 128,-1,3
 378 312 378 312 322 340 c 128,-1,4
 266 368 266 368 240 368 c 128,-1,5
 214 368 214 368 180 338.5 c 128,-1,6
 146 309 146 309 122 309 c 128,-1,7
 98 309 98 309 86 320 c 128,-1,8
 74 331 74 331 74 349 c 0,9,10
 74 382 74 382 122 413 c 128,-1,11
 170 444 170 444 225 444 c 128,-1,12
 280 444 280 444 337 415.5 c 128,-1,13
 394 387 394 387 419.5 387 c 128,-1,14
 445 387 445 387 471.5 411.5 c 128,-1,15
 498 436 498 436 514.5 436 c 128,-1,16
 531 436 531 436 540 426.5 c 128,-1,17
 549 417 549 417 549 404 c 0,0,1
EndSplineSet
Validated: 1
EndChar

StartChar: sterling
Encoding: 163 163 98
Width: 583
GlyphClass: 2
Flags: W
LayerCount: 2
Fore
SplineSet
395 310 m 2,0,-1
 252 313 l 1,1,2
 258 225 258 225 242 179.5 c 128,-1,3
 226 134 226 134 200 86 c 1,4,5
 235 82 235 82 287 82 c 128,-1,6
 339 82 339 82 394 85.5 c 128,-1,7
 449 89 449 89 466 89 c 128,-1,8
 483 89 483 89 499.5 76.5 c 128,-1,9
 516 64 516 64 516 42 c 128,-1,10
 516 20 516 20 499.5 7.5 c 128,-1,11
 483 -5 483 -5 456 -5 c 2,12,-1
 301 0 l 1,13,-1
 147 -5 l 2,14,15
 119 -5 119 -5 102.5 10 c 128,-1,16
 86 25 86 25 86 53 c 128,-1,17
 86 81 86 81 104.5 112 c 128,-1,18
 123 143 123 143 142 182 c 128,-1,19
 161 221 161 221 161.5 257.5 c 128,-1,20
 162 294 162 294 161 311 c 1,21,22
 153 310 153 310 130 310 c 0,23,24
 75 310 75 310 75 350.5 c 128,-1,25
 75 391 75 391 128 391 c 0,26,27
 132 391 132 391 139 390.5 c 128,-1,28
 146 390 146 390 149 390 c 1,29,30
 146 406 146 406 138 437 c 0,31,32
 122 505 122 505 122 544 c 0,33,34
 122 616 122 616 174.5 664.5 c 128,-1,35
 227 713 227 713 319 713 c 0,36,37
 378 713 378 713 434 683 c 128,-1,38
 490 653 490 653 490 621 c 0,39,40
 490 604 490 604 480 590.5 c 128,-1,41
 470 577 470 577 450 577 c 128,-1,42
 430 577 430 577 392 601.5 c 128,-1,43
 354 626 354 626 311.5 626 c 128,-1,44
 269 626 269 626 243.5 603 c 128,-1,45
 218 580 218 580 218 544 c 128,-1,46
 218 508 218 508 241 388 c 1,47,-1
 395 391 l 2,48,49
 417 391 417 391 431.5 380 c 128,-1,50
 446 369 446 369 446 351 c 128,-1,51
 446 333 446 333 431.5 321.5 c 128,-1,52
 417 310 417 310 395 310 c 2,0,-1
EndSplineSet
Validated: 33
EndChar

StartChar: currency
Encoding: 164 164 99
Width: 701
GlyphClass: 2
Flags: W
LayerCount: 2
Fore
SplineSet
487 189 m 1,0,1
 432 147 432 147 350 147 c 128,-1,2
 268 147 268 147 213 189 c 1,3,4
 205 180 205 180 193.5 168 c 128,-1,5
 182 156 182 156 177.5 151 c 128,-1,6
 173 146 173 146 165.5 138.5 c 128,-1,7
 158 131 158 131 154.5 128.5 c 128,-1,8
 151 126 151 126 146 124 c 0,9,10
 136 119 136 119 120.5 119 c 128,-1,11
 105 119 105 119 91 132 c 128,-1,12
 77 145 77 145 77 162 c 128,-1,13
 77 179 77 179 89 193.5 c 128,-1,14
 101 208 101 208 156 256 c 1,15,16
 128 309 128 309 128 371 c 128,-1,17
 128 433 128 433 157 488 c 1,18,19
 102 536 102 536 90 550.5 c 128,-1,20
 78 565 78 565 78 582 c 128,-1,21
 78 599 78 599 92 612 c 128,-1,22
 106 625 106 625 118.5 625 c 128,-1,23
 131 625 131 625 136 624 c 128,-1,24
 141 623 141 623 146.5 620.5 c 128,-1,25
 152 618 152 618 155.5 615.5 c 128,-1,26
 159 613 159 613 166.5 605.5 c 128,-1,27
 174 598 174 598 178.5 593 c 128,-1,28
 183 588 183 588 194.5 576 c 128,-1,29
 206 564 206 564 214 555 c 1,30,31
 268 596 268 596 350 596 c 128,-1,32
 432 596 432 596 486 555 c 1,33,34
 539 611 539 611 550 618 c 128,-1,35
 561 625 561 625 577.5 625 c 128,-1,36
 594 625 594 625 608 612 c 128,-1,37
 622 599 622 599 622 582 c 128,-1,38
 622 565 622 565 610 550.5 c 128,-1,39
 598 536 598 536 543 488 c 1,40,41
 572 433 572 433 572 369.5 c 128,-1,42
 572 306 572 306 544 256 c 1,43,44
 599 208 599 208 611 193.5 c 128,-1,45
 623 179 623 179 623 162 c 128,-1,46
 623 145 623 145 609.5 132 c 128,-1,47
 596 119 596 119 585 119 c 128,-1,48
 574 119 574 119 570 119.5 c 128,-1,49
 566 120 566 120 561.5 121.5 c 128,-1,50
 557 123 557 123 554 124.5 c 128,-1,51
 551 126 551 126 546 130 c 128,-1,52
 541 134 541 134 538 137 c 128,-1,53
 535 140 535 140 528 146.5 c 128,-1,54
 521 153 521 153 516.5 157.5 c 128,-1,55
 512 162 512 162 503 172 c 128,-1,56
 494 182 494 182 487 189 c 1,0,1
445.5 475 m 128,-1,58
 405 518 405 518 350 518 c 128,-1,59
 295 518 295 518 254.5 475 c 128,-1,60
 214 432 214 432 214 372 c 128,-1,61
 214 312 214 312 254 269 c 128,-1,62
 294 226 294 226 350 226 c 128,-1,63
 406 226 406 226 446 269 c 128,-1,64
 486 312 486 312 486 372 c 128,-1,57
 486 432 486 432 445.5 475 c 128,-1,58
EndSplineSet
Validated: 1
EndChar

StartChar: yen
Encoding: 165 165 100
Width: 646
GlyphClass: 2
Flags: W
LayerCount: 2
Fore
SplineSet
373 151 m 1,0,-1
 375 48 l 2,1,2
 375 22 375 22 361 6 c 128,-1,3
 347 -10 347 -10 324.5 -10 c 128,-1,4
 302 -10 302 -10 287.5 6 c 128,-1,5
 273 22 273 22 273 41.5 c 128,-1,6
 273 61 273 61 277 151 c 1,7,8
 197 149 197 149 139 149 c 0,9,10
 117 149 117 149 103.5 160 c 128,-1,11
 90 171 90 171 90 189 c 128,-1,12
 90 207 90 207 103.5 218 c 128,-1,13
 117 229 117 229 139 229 c 2,14,-1
 279 226 l 1,15,-1
 279 294 l 1,16,-1
 139 292 l 2,17,18
 117 292 117 292 103.5 303 c 128,-1,19
 90 314 90 314 90 332 c 128,-1,20
 90 350 90 350 103.5 361 c 128,-1,21
 117 372 117 372 137.5 372 c 128,-1,22
 158 372 158 372 189.5 371.5 c 128,-1,23
 221 371 221 371 234 371 c 1,24,25
 175 471 175 471 156.5 501 c 128,-1,26
 138 531 138 531 124.5 553.5 c 128,-1,27
 111 576 111 576 103 589 c 128,-1,28
 95 602 95 602 88 614.5 c 128,-1,29
 81 627 81 627 77.5 633.5 c 128,-1,30
 74 640 74 640 72 647 c 0,31,32
 68 657 68 657 68 671 c 128,-1,33
 68 685 68 685 82.5 699 c 128,-1,34
 97 713 97 713 119 713 c 0,35,36
 131 713 131 713 137.5 708.5 c 128,-1,37
 144 704 144 704 148 701 c 128,-1,38
 152 698 152 698 157 691 c 128,-1,39
 162 684 162 684 165 679.5 c 128,-1,40
 168 675 168 675 174 665 c 128,-1,41
 180 655 180 655 183.5 649 c 128,-1,42
 187 643 187 643 194 629.5 c 128,-1,43
 201 616 201 616 249.5 528.5 c 128,-1,44
 298 441 298 441 330 394 c 1,45,46
 351 426 351 426 393.5 504.5 c 128,-1,47
 436 583 436 583 444.5 597.5 c 128,-1,48
 453 612 453 612 460 624.5 c 128,-1,49
 467 637 467 637 470.5 644 c 128,-1,50
 474 651 474 651 480 661 c 128,-1,51
 486 671 486 671 490 676.5 c 128,-1,52
 494 682 494 682 499 689 c 128,-1,53
 504 696 504 696 508 699.5 c 128,-1,54
 512 703 512 703 517 706 c 0,55,56
 526 713 526 713 542.5 713 c 128,-1,57
 559 713 559 713 572 700 c 128,-1,58
 585 687 585 687 585 671.5 c 128,-1,59
 585 656 585 656 572 632 c 0,60,61
 560 608 560 608 417 371 c 1,62,-1
 517 372 l 2,63,64
 539 372 539 372 552.5 361 c 128,-1,65
 566 350 566 350 566 332 c 128,-1,66
 566 314 566 314 552.5 303 c 128,-1,67
 539 292 539 292 517 292 c 2,68,-1
 371 294 l 1,69,-1
 371 226 l 1,70,-1
 517 229 l 2,71,72
 539 229 539 229 552.5 218 c 128,-1,73
 566 207 566 207 566 189 c 128,-1,74
 566 171 566 171 552.5 160 c 128,-1,75
 539 149 539 149 517 149 c 0,76,77
 457 149 457 149 373 151 c 1,0,-1
EndSplineSet
Validated: 1
EndChar

StartChar: brokenbar
Encoding: 166 166 101
Width: 279
GlyphClass: 2
Flags: W
LayerCount: 2
Fore
SplineSet
178 603 m 1,0,-1
 183 499 l 2,1,2
 183 475 183 475 171 460.5 c 128,-1,3
 159 446 159 446 138 446 c 0,4,5
 96 446 96 446 96 499 c 2,6,-1
 100 603 l 1,7,-1
 97 707 l 2,8,9
 97 760 97 760 138 760 c 0,10,11
 159 760 159 760 170.5 745.5 c 128,-1,12
 182 731 182 731 182 707 c 2,13,-1
 178 603 l 1,0,-1
178 147 m 1,14,-1
 183 43 l 2,15,16
 183 19 183 19 171 4.5 c 128,-1,17
 159 -10 159 -10 138 -10 c 0,18,19
 96 -10 96 -10 96 43 c 2,20,-1
 100 147 l 1,21,-1
 97 251 l 2,22,23
 97 304 97 304 138 304 c 0,24,25
 159 304 159 304 170.5 289.5 c 128,-1,26
 182 275 182 275 182 251 c 2,27,-1
 178 147 l 1,14,-1
EndSplineSet
Validated: 1
EndChar

StartChar: section
Encoding: 167 167 102
Width: 586
GlyphClass: 2
Flags: W
LayerCount: 2
Fore
SplineSet
488 407.5 m 128,-1,1
 520 371 520 371 520 329 c 128,-1,2
 520 287 520 287 494 250.5 c 128,-1,3
 468 214 468 214 426 191 c 1,4,5
 485 149 485 149 485 83 c 128,-1,6
 485 17 485 17 426 -34 c 128,-1,7
 367 -85 367 -85 272 -85 c 0,8,9
 202 -85 202 -85 135.5 -48 c 128,-1,10
 69 -11 69 -11 69 26 c 0,11,12
 69 43 69 43 80 53 c 128,-1,13
 91 63 91 63 108 63 c 128,-1,14
 125 63 125 63 146 48 c 0,15,16
 208 2 208 2 266 2 c 128,-1,17
 324 2 324 2 357 25 c 128,-1,18
 390 48 390 48 390 81 c 128,-1,19
 390 114 390 114 358 139.5 c 128,-1,20
 326 165 326 165 280.5 187 c 128,-1,21
 235 209 235 209 189.5 233.5 c 128,-1,22
 144 258 144 258 112 293.5 c 128,-1,23
 80 329 80 329 80 373 c 128,-1,24
 80 417 80 417 114 451 c 128,-1,25
 148 485 148 485 204 499 c 1,26,27
 115 561 115 561 115 620.5 c 128,-1,28
 115 680 115 680 170.5 722.5 c 128,-1,29
 226 765 226 765 301.5 765 c 128,-1,30
 377 765 377 765 429 738 c 128,-1,31
 481 711 481 711 481 675 c 0,32,33
 481 660 481 660 470.5 650 c 128,-1,34
 460 640 460 640 444.5 640 c 128,-1,35
 429 640 429 640 392 659 c 128,-1,36
 355 678 355 678 312 678 c 128,-1,37
 269 678 269 678 239.5 662 c 128,-1,38
 210 646 210 646 210 619 c 128,-1,39
 210 592 210 592 242 565.5 c 128,-1,40
 274 539 274 539 319.5 516.5 c 128,-1,41
 365 494 365 494 410.5 469 c 128,-1,0
 456 444 456 444 488 407.5 c 128,-1,1
405 276 m 128,-1,43
 429 299 429 299 429 329.5 c 128,-1,44
 429 360 429 360 376 394.5 c 128,-1,45
 323 429 323 429 277 429 c 128,-1,46
 231 429 231 429 201 414 c 128,-1,47
 171 399 171 399 171 374.5 c 128,-1,48
 171 350 171 350 206.5 323.5 c 128,-1,49
 242 297 242 297 340 243 c 1,50,42
 381 253 381 253 405 276 c 128,-1,43
EndSplineSet
Validated: 1
EndChar

StartChar: dieresis
Encoding: 168 168 103
Width: 476
GlyphClass: 2
Flags: W
LayerCount: 2
Fore
SplineSet
377.5 690 m 128,-1,1
 391 673 391 673 391 646.5 c 128,-1,2
 391 620 391 620 374 599 c 128,-1,3
 357 578 357 578 332.5 578 c 128,-1,4
 308 578 308 578 294 596 c 128,-1,5
 280 614 280 614 280 640 c 128,-1,6
 280 666 280 666 296.5 686.5 c 128,-1,7
 313 707 313 707 338.5 707 c 128,-1,0
 364 707 364 707 377.5 690 c 128,-1,1
182.5 690 m 128,-1,9
 196 673 196 673 196 646.5 c 128,-1,10
 196 620 196 620 179 599 c 128,-1,11
 162 578 162 578 137.5 578 c 128,-1,12
 113 578 113 578 99 596 c 128,-1,13
 85 614 85 614 85 640 c 128,-1,14
 85 666 85 666 101.5 686.5 c 128,-1,15
 118 707 118 707 143.5 707 c 128,-1,8
 169 707 169 707 182.5 690 c 128,-1,9
EndSplineSet
Validated: 1
EndChar

StartChar: ordfeminine
Encoding: 170 170 104
Width: 651
GlyphClass: 2
Flags: W
LayerCount: 2
Fore
SplineSet
505 578 m 0,0,1
 498 476 498 476 491 374 c 1,2,3
 422 356 422 356 351.25 362 c 0,4,5
 317 365 317 365 257 412 c 5,6,-1
 505 578 l 0,0,1
380 679 m 0,7,8
 446 679 446 679 490 656 c 1,9,-1
 203 466 l 1,10,11
 203 598 203 598 233.5 628.75 c 0,12,13
 284 679 284 679 380 679 c 0,7,8
590 48 m 2,14,-1
 582 382 l 1,15,16
 582 629 582 629 588 629 c 0,17,18
 610 632 610 632 621 644 c 128,-1,19
 632 656 632 656 632 675.5 c 128,-1,20
 632 695 632 695 603 714 c 128,-1,21
 574 733 574 733 532 744 c 0,22,23
 448 765 448 765 386 765 c 0,24,25
 236 765 236 765 158 694 c 128,-1,26
 80 623 80 623 80 520 c 128,-1,27
 80 417 80 417 158 345.5 c 128,-1,28
 236 274 236 274 360 274 c 0,29,30
 453 274 453 274 493 285 c 1,31,-1
 488 48 l 2,32,33
 488 22 488 22 502 6 c 128,-1,34
 516 -10 516 -10 538.5 -10 c 128,-1,35
 561 -10 561 -10 575.5 6 c 128,-1,36
 590 22 590 22 590 48 c 2,14,-1
EndSplineSet
Validated: 41
EndChar

StartChar: logicalnot
Encoding: 172 172 105
Width: 583
GlyphClass: 2
Flags: W
LayerCount: 2
Fore
SplineSet
289 310 m 2,0,-1
 252 313 l 1,1,2
 258 225 258 225 242 179.5 c 128,-1,3
 226 134 226 134 200 86 c 1,4,5
 235 82 235 82 287 82 c 128,-1,6
 339 82 339 82 394 85.5 c 128,-1,7
 449 89 449 89 466 89 c 128,-1,8
 483 89 483 89 499.5 76.5 c 128,-1,9
 516 64 516 64 516 42 c 128,-1,10
 516 20 516 20 500 8 c 0,11,12
 482.199115044 -5.84513274336 482.199115044 -5.84513274336 456 -5 c 2,13,-1
 301 0 l 1,14,-1
 147 -5 l 2,15,16
 120 -6 120 -6 102 10 c 0,17,18
 86 25 86 25 86 53 c 128,-1,19
 86 81 86 81 104.5 112 c 128,-1,20
 123 143 123 143 142 182 c 128,-1,21
 161 221 161 221 161.5 257.5 c 128,-1,22
 162 294 162 294 161 311 c 1,23,24
 153 310 153 310 130 310 c 0,25,26
 75 310 75 310 75 350.5 c 128,-1,27
 75 391 75 391 128 391 c 0,28,29
 132 391 132 391 139 390.5 c 128,-1,30
 146 390 146 390 149 390 c 1,31,32
 146 406 146 406 138 437 c 0,33,34
 122 505 122 505 122 544 c 0,35,36
 122 664 122 664 174.5 712.5 c 128,-1,37
 227 761 227 761 319 761 c 1,38,-1
 312 666 l 1,39,40
 269 666 269 666 243.5 643 c 128,-1,41
 218 620 218 620 218 564 c 128,-1,42
 218 508 218 508 241 388 c 1,43,-1
 289 391 l 2,44,-1
 308.5 380 l 0,45,46
 323 369 323 369 323 351 c 0,47,48
 323 328 323 328 309 322 c 0,49,-1
 289 310 l 2,0,-1
EndSplineSet
Validated: 33
EndChar

StartChar: uni00AD
Encoding: 173 173 106
Width: 438
GlyphClass: 2
Flags: W
LayerCount: 2
Fore
SplineSet
317 219 m 2,0,-1
 218 222 l 1,1,-1
 119 219 l 2,2,3
 97 219 97 219 83.5 231 c 128,-1,4
 70 243 70 243 70 261 c 128,-1,5
 70 279 70 279 83.5 291 c 128,-1,6
 97 303 97 303 119 303 c 2,7,-1
 218 300 l 1,8,9
 218 300 218 300 317 303 c 0,10,11
 339 303 339 303 352.5 291 c 128,-1,12
 366 279 366 279 366 261 c 128,-1,13
 366 243 366 243 352.5 231 c 128,-1,14
 339 219 339 219 317 219 c 2,0,-1
EndSplineSet
Validated: 1
EndChar

StartChar: macron
Encoding: 175 175 107
Width: 496
GlyphClass: 2
Flags: W
LayerCount: 2
Fore
SplineSet
248 630 m 1,0,-1
 114 627 l 2,1,2
 93 627 93 627 79 639 c 128,-1,3
 65 651 65 651 65 669 c 128,-1,4
 65 687 65 687 78.5 699 c 128,-1,5
 92 711 92 711 114 711 c 2,6,-1
 248 708 l 1,7,-1
 382 711 l 2,8,9
 403 711 403 711 417 699 c 128,-1,10
 431 687 431 687 431 669 c 128,-1,11
 431 651 431 651 417.5 639 c 128,-1,12
 404 627 404 627 382 627 c 2,13,14
 382 627 382 627 248 630 c 1,0,-1
EndSplineSet
Validated: 1
EndChar

StartChar: degree
Encoding: 176 176 108
Width: 402
GlyphClass: 2
Flags: W
LayerCount: 2
Fore
SplineSet
300 719.5 m 132,-1,1
 338 676 338 676 338 613.5 c 132,-1,2
 338 551 338 551 300 507.5 c 132,-1,3
 262 464 262 464 201 464 c 132,-1,4
 140 464 140 464 102 507 c 132,-1,5
 64 550 64 550 64 613 c 132,-1,6
 64 676 64 676 102 719.5 c 132,-1,7
 140 763 140 763 201 763 c 132,-1,0
 262 763 262 763 300 719.5 c 132,-1,1
260 613 m 132,-1,9
 260 648 260 648 244.5 671 c 132,-1,10
 229 694 229 694 201 694 c 132,-1,11
 173 694 173 694 157 671 c 132,-1,12
 141 648 141 648 141 613.5 c 132,-1,13
 141 579 141 579 157 556 c 132,-1,14
 173 533 173 533 201 533 c 132,-1,15
 229 533 229 533 244.5 555.5 c 132,-1,8
 260 578 260 578 260 613 c 132,-1,9
EndSplineSet
Validated: 1
EndChar

StartChar: plusminus
Encoding: 177 177 109
Width: 645
GlyphClass: 2
Flags: W
LayerCount: 2
Fore
SplineSet
132 502 m 2,0,-1
 284 499 l 1,1,2
 284 557 284 557 282 586 c 128,-1,3
 280 615 280 615 280 617 c 0,4,5
 280 640 280 640 291.5 653 c 128,-1,6
 303 666 303 666 322 666 c 128,-1,7
 341 666 341 666 353 652.5 c 128,-1,8
 365 639 365 639 365 616 c 0,9,10
 365 614 365 614 364 600 c 0,11,12
 361 556 361 556 361 498 c 1,13,-1
 513 501 l 2,14,15
 535 501 535 501 549 489 c 128,-1,16
 563 477 563 477 563 459 c 128,-1,17
 563 441 563 441 549 429 c 128,-1,18
 535 417 535 417 513 417 c 2,19,-1
 361 420 l 1,20,-1
 365 289 l 2,21,22
 365 266 365 266 353.5 252 c 128,-1,23
 342 238 342 238 322.5 238 c 128,-1,24
 303 238 303 238 291.5 252.5 c 128,-1,25
 280 267 280 267 280 290 c 2,26,-1
 284 421 l 1,27,-1
 132 418 l 2,28,29
 110 418 110 418 96 430 c 128,-1,30
 82 442 82 442 82 460 c 128,-1,31
 82 478 82 478 96 490 c 128,-1,32
 110 502 110 502 132 502 c 2,0,-1
321 91 m 1,33,-1
 131 88 l 2,34,35
 109 88 109 88 95.5 100 c 128,-1,36
 82 112 82 112 82 130 c 128,-1,37
 82 148 82 148 95.5 160 c 128,-1,38
 109 172 109 172 131 172 c 2,39,-1
 321 169 l 1,40,-1
 511 172 l 2,41,42
 533 172 533 172 546.5 160 c 128,-1,43
 560 148 560 148 560 130 c 128,-1,44
 560 112 560 112 546.5 100 c 128,-1,45
 533 88 533 88 511 88 c 2,46,-1
 321 91 l 1,33,-1
EndSplineSet
Validated: 1
EndChar

StartChar: mu
Encoding: 181 181 110
AltUni2: 0003bc.ffffffff.0
Width: 871
GlyphClass: 2
Flags: W
LayerCount: 2
Fore
SplineSet
595 360 m 1,0,-1
 591 688 l 2,1,2
 591 757 591 757 642 757 c 0,3,4
 704 757 704 757 704 655 c 128,-1,5
 704 553 704 553 677 360 c 1,6,7
 677 250 677 250 691.5 173.5 c 128,-1,8
 706 97 706 97 727 88 c 0,9,10
 735 84 735 84 746.5 82.5 c 128,-1,11
 758 81 758 81 763 78 c 128,-1,12
 768 75 768 75 768 67 c 0,13,14
 768 30 768 30 746 7.5 c 128,-1,15
 724 -15 724 -15 690 -15 c 0,16,17
 646 -15 646 -15 625 35 c 128,-1,18
 604 85 604 85 604 164 c 1,19,20
 584 127 584 127 571 107 c 128,-1,21
 558 87 558 87 529 53 c 0,22,23
 471 -15 471 -15 380 -15 c 0,24,25
 345 -15 345 -15 298 3.5 c 128,-1,26
 251 22 251 22 223 51 c 1,27,28
 225 -9 225 -9 225 -12 c 0,29,30
 225 -83 225 -83 174 -83 c 128,-1,31
 123 -83 123 -83 123 -12 c 0,32,33
 123 -2 123 -2 124 52 c 0,34,35
 128 178 128 178 128 317.5 c 128,-1,36
 128 457 128 457 126.5 527.5 c 128,-1,37
 125 598 125 598 123.5 640.5 c 128,-1,38
 122 683 122 683 122 691 c 0,39,40
 122 762 122 762 173 762 c 128,-1,41
 224 762 224 762 224 691 c 0,42,43
 224 685 224 685 222 638 c 0,44,45
 218 499 218 499 218 307 c 0,46,47
 218 211 218 211 271.5 141.5 c 128,-1,48
 325 72 325 72 388.5 72 c 128,-1,49
 452 72 452 72 510.5 159 c 128,-1,50
 569 246 569 246 595 360 c 1,0,-1
EndSplineSet
Validated: 1
EndChar

StartChar: Oslash
Encoding: 216 216 111
Width: 824
GlyphClass: 2
Flags: W
LayerCount: 2
Fore
SplineSet
656 376 m 0,0,1
 656 464 656 464 618 539 c 128,-1,2
 580 614 580 614 516 651 c 1,3,4
 431 329 431 329 376 75 c 1,5,6
 392 72 392 72 412 72 c 0,7,8
 517 72 517 72 586.5 164 c 128,-1,9
 656 256 656 256 656 376 c 0,0,1
429 678 m 1,10,-1
 412 679 l 1,11,12
 307 679 307 679 237.5 588.5 c 128,-1,13
 168 498 168 498 168 376 c 0,14,15
 168 297 168 297 201 225 c 128,-1,16
 234 153 234 153 291 112 c 1,17,18
 327 224 327 224 429 678 c 1,10,-1
752 376 m 0,19,20
 752 213 752 213 654.5 99 c 128,-1,21
 557 -15 557 -15 411 -15 c 0,22,23
 393 -15 393 -15 357 -11 c 1,24,25
 339 -84 339 -84 298 -84 c 0,26,27
 279 -84 279 -84 267.5 -70 c 128,-1,28
 256 -56 256 -56 256 -33.5 c 128,-1,29
 256 -11 256 -11 267 20 c 1,30,31
 178 66 178 66 125 162 c 128,-1,32
 72 258 72 258 72 376 c 0,33,34
 72 539 72 539 170 652 c 128,-1,35
 268 765 268 765 413 765 c 0,36,37
 425 765 425 765 447 763 c 1,38,39
 457 803 457 803 470 819 c 128,-1,40
 483 835 483 835 504 835 c 128,-1,41
 525 835 525 835 536.5 821 c 128,-1,42
 548 807 548 807 548 787 c 128,-1,43
 548 767 548 767 538 739 c 1,44,45
 635 697 635 697 693.5 598 c 128,-1,46
 752 499 752 499 752 376 c 0,19,20
EndSplineSet
Validated: 1
EndChar

StartChar: oacute
Encoding: 243 243 114
Width: 824
GlyphClass: 2
Flags: W
LayerCount: 2
Fore
SplineSet
586.5 164 m 128,-1,1
 656 256 656 256 656 377 c 128,-1,2
 656 498 656 498 587 588.5 c 128,-1,3
 518 679 518 679 412.5 679 c 128,-1,4
 307 679 307 679 237.5 588.5 c 128,-1,5
 168 498 168 498 168 377.5 c 128,-1,6
 168 257 168 257 238 164.5 c 128,-1,7
 308 72 308 72 412.5 72 c 128,-1,0
 517 72 517 72 586.5 164 c 128,-1,1
752 376 m 128,-1,9
 752 213 752 213 654.5 99 c 128,-1,10
 557 -15 557 -15 411.5 -15 c 128,-1,11
 266 -15 266 -15 169 99 c 128,-1,12
 72 213 72 213 72 376 c 128,-1,13
 72 539 72 539 170 652 c 128,-1,14
 268 765 268 765 413.5 765 c 128,-1,15
 559 765 559 765 655.5 652 c 128,-1,8
 752 539 752 539 752 376 c 128,-1,9
522 946 m 0,16,17
 522 902 522 902 474.5 857.5 c 128,-1,18
 427 813 427 813 395 813 c 0,19,20
 379 813 379 813 370.5 821 c 128,-1,21
 362 829 362 829 362 841 c 128,-1,22
 362 853 362 853 386 882.5 c 128,-1,23
 410 912 410 912 419 932 c 128,-1,24
 428 952 428 952 433.5 961.5 c 128,-1,25
 439 971 439 971 451.5 980.5 c 128,-1,26
 464 990 464 990 481.5 990 c 128,-1,27
 499 990 499 990 510.5 976.5 c 128,-1,28
 522 963 522 963 522 946 c 0,16,17
EndSplineSet
Validated: 1
EndChar

StartChar: odieresis
Encoding: 246 246 116
Width: 604
GlyphClass: 2
Flags: W
LayerCount: 2
Fore
SplineSet
403 661 m 2,0,-1
 304 664 l 1,1,-1
 205 661 l 2,2,3
 183 661 183 661 169.5 673 c 128,-1,4
 156 685 156 685 156 703 c 128,-1,5
 156 721 156 721 169.5 733 c 128,-1,6
 183 745 183 745 205 745 c 2,7,-1
 304 742 l 1,8,9
 304 742 304 742 403 745 c 0,10,11
 425 745 425 745 438.5 733 c 128,-1,12
 452 721 452 721 452 703 c 128,-1,13
 452 685 452 685 438.5 673 c 128,-1,14
 425 661 425 661 403 661 c 2,0,-1
351 589 m 2,15,-1
 346 373 l 1,16,-1
 325.719726562 122.26953125 l 5,17,18
 349 170 349 170 419.049804688 302.450195312 c 4,19,20
 430 323 430 323 441.620117188 323.240234375 c 4,21,22
 453 323 453 323 460.530273438 311.85546875 c 4,23,24
 468 300 468 300 467.849609375 287.10546875 c 4,25,26
 468 274 468 274 465.71484375 264.334960938 c 4,27,28
 464 255 464 255 456.565429688 241.0703125 c 4,29,30
 450 227 450 227 442.83984375 215.330078125 c 4,31,32
 414 166 414 166 401.0546875 144.049804688 c 132,-1,33
 388 122 388 122 366.89453125 83.1650390625 c 4,34,35
 346 44 346 44 328.16015625 14.3603515625 c 4,36,37
 315 -7 315 -7 301.014648438 -7.419921875 c 4,38,39
 286 -7 286 -7 273.870117188 14.3603515625 c 4,40,41
 257 45 257 45 235.134765625 83.1650390625 c 4,42,43
 213 121 213 121 205.549804688 135.634765625 c 4,44,45
 198 150 198 150 182.065429688 176.719726562 c 4,46,47
 167 203 167 203 159.495117188 215.330078125 c 4,48,49
 152 227 152 227 145.16015625 241.0703125 c 4,50,51
 134 264 134 264 134.1796875 282.155273438 c 4,52,53
 134 300 134 300 141.5 311.85546875 c 4,54,55
 149 323 149 323 160.41015625 323.240234375 c 4,56,57
 172 323 172 323 182.98046875 302.450195312 c 4,58,59
 251 168 251 168 276.309570312 122.26953125 c 5,60,-1
 265 373 l 1,61,-1
 260 589 l 2,62,63
 259 615 259 615 272.5 632 c 0,64,65
 285 649 285 649 305 649 c 0,66,67
 331 649 331 649 338 632 c 0,68,69
 351 595 351 595 351 589 c 2,15,-1
EndSplineSet
Validated: 33
EndChar

StartChar: oslash
Encoding: 248 248 117
Width: 824
GlyphClass: 2
Flags: W
LayerCount: 2
Fore
SplineSet
656 376 m 0,0,1
 656 464 656 464 618 539 c 128,-1,2
 580 614 580 614 516 651 c 1,3,4
 431 329 431 329 376 75 c 1,5,6
 392 72 392 72 412 72 c 0,7,8
 517 72 517 72 586.5 164 c 128,-1,9
 656 256 656 256 656 376 c 0,0,1
429 678 m 1,10,-1
 412 679 l 1,11,12
 307 679 307 679 237.5 588.5 c 128,-1,13
 168 498 168 498 168 376 c 0,14,15
 168 297 168 297 201 225 c 128,-1,16
 234 153 234 153 291 112 c 1,17,18
 327 224 327 224 429 678 c 1,10,-1
752 376 m 0,19,20
 752 213 752 213 654.5 99 c 128,-1,21
 557 -15 557 -15 411 -15 c 0,22,23
 393 -15 393 -15 357 -11 c 1,24,25
 339 -84 339 -84 298 -84 c 0,26,27
 279 -84 279 -84 267.5 -70 c 128,-1,28
 256 -56 256 -56 256 -33.5 c 128,-1,29
 256 -11 256 -11 267 20 c 1,30,31
 178 66 178 66 125 162 c 128,-1,32
 72 258 72 258 72 376 c 0,33,34
 72 539 72 539 170 652 c 128,-1,35
 268 765 268 765 413 765 c 0,36,37
 425 765 425 765 447 763 c 1,38,39
 457 803 457 803 470 819 c 128,-1,40
 483 835 483 835 504 835 c 128,-1,41
 525 835 525 835 536.5 821 c 128,-1,42
 548 807 548 807 548 787 c 128,-1,43
 548 767 548 767 538 739 c 1,44,45
 635 697 635 697 693.5 598 c 128,-1,46
 752 499 752 499 752 376 c 0,19,20
EndSplineSet
Validated: 1
EndChar

StartChar: Hbar
Encoding: 294 294 118
Width: 802
GlyphClass: 2
Flags: W
LayerCount: 2
Fore
SplineSet
569 353 m 1,0,-1
 397 355 l 2,1,2
 282 355 282 355 230 354 c 1,3,4
 230 275 230 275 233 170.5 c 128,-1,5
 236 66 236 66 236 61 c 0,6,7
 236 -10 236 -10 185 -10 c 128,-1,8
 134 -10 134 -10 134 61 c 0,9,10
 134 66 134 66 137 169 c 128,-1,11
 140 272 140 272 140 351 c 1,12,13
 76 351 76 351 76 396 c 0,14,15
 76 417 76 417 92.5 429.5 c 128,-1,16
 109 442 109 442 140 442 c 1,17,18
 140 477 140 477 137 600 c 1,19,-1
 81 600 l 2,20,21
 59 600 59 600 45.5 611 c 128,-1,22
 32 622 32 622 32 640 c 128,-1,23
 32 658 32 658 45.5 669 c 128,-1,24
 59 680 59 680 81 680 c 2,25,-1
 134 680 l 1,26,27
 134 760 134 760 185 760 c 128,-1,28
 236 760 236 760 236 679 c 1,29,-1
 401 677 l 1,30,-1
 564 679 l 1,31,32
 564 760 564 760 615 760 c 128,-1,33
 666 760 666 760 666 680 c 1,34,-1
 721 680 l 2,35,36
 743 680 743 680 756.5 669 c 128,-1,37
 770 658 770 658 770 640 c 128,-1,38
 770 622 770 622 756.5 611 c 128,-1,39
 743 600 743 600 721 600 c 2,40,-1
 663 600 l 1,41,42
 660 540 660 540 660 443 c 1,43,44
 690 443 690 443 707.5 430 c 128,-1,45
 725 417 725 417 725 396 c 128,-1,46
 725 375 725 375 707.5 362.5 c 128,-1,47
 690 350 690 350 660 350 c 1,48,49
 660 271 660 271 663 168.5 c 128,-1,50
 666 66 666 66 666 61 c 0,51,52
 666 -10 666 -10 615 -10 c 128,-1,53
 564 -10 564 -10 564 61 c 2,54,-1
 569 353 l 1,0,-1
569 439 m 1,55,56
 569 538 569 538 566 601 c 1,57,58
 507 603 507 603 400 603 c 128,-1,59
 293 603 293 603 233 601 c 1,60,61
 230 538 230 538 230 439 c 1,62,63
 328 437 328 437 424.5 437 c 128,-1,64
 521 437 521 437 569 439 c 1,55,56
EndSplineSet
Validated: 1
EndChar

StartChar: hbar
Encoding: 295 295 119
Width: 802
GlyphClass: 2
Flags: W
LayerCount: 2
Fore
SplineSet
569 353 m 1,0,-1
 397 355 l 2,1,2
 282 355 282 355 230 354 c 1,3,4
 230 275 230 275 233 170.5 c 128,-1,5
 236 66 236 66 236 61 c 0,6,7
 236 -10 236 -10 185 -10 c 128,-1,8
 134 -10 134 -10 134 61 c 0,9,10
 134 66 134 66 137 169 c 128,-1,11
 140 272 140 272 140 351 c 1,12,13
 76 351 76 351 76 396 c 0,14,15
 76 417 76 417 92.5 429.5 c 128,-1,16
 109 442 109 442 140 442 c 1,17,18
 140 477 140 477 137 600 c 1,19,-1
 81 600 l 2,20,21
 59 600 59 600 45.5 611 c 128,-1,22
 32 622 32 622 32 640 c 128,-1,23
 32 658 32 658 45.5 669 c 128,-1,24
 59 680 59 680 81 680 c 2,25,-1
 134 680 l 1,26,27
 134 760 134 760 185 760 c 128,-1,28
 236 760 236 760 236 679 c 1,29,-1
 401 677 l 1,30,-1
 564 679 l 1,31,32
 564 760 564 760 615 760 c 128,-1,33
 666 760 666 760 666 680 c 1,34,-1
 721 680 l 2,35,36
 743 680 743 680 756.5 669 c 128,-1,37
 770 658 770 658 770 640 c 128,-1,38
 770 622 770 622 756.5 611 c 128,-1,39
 743 600 743 600 721 600 c 2,40,-1
 663 600 l 1,41,42
 660 540 660 540 660 443 c 1,43,44
 690 443 690 443 707.5 430 c 128,-1,45
 725 417 725 417 725 396 c 128,-1,46
 725 375 725 375 707.5 362.5 c 128,-1,47
 690 350 690 350 660 350 c 1,48,49
 660 271 660 271 663 168.5 c 128,-1,50
 666 66 666 66 666 61 c 0,51,52
 666 -10 666 -10 615 -10 c 128,-1,53
 564 -10 564 -10 564 61 c 2,54,-1
 569 353 l 1,0,-1
569 439 m 1,55,56
 569 538 569 538 566 601 c 1,57,58
 507 603 507 603 400 603 c 128,-1,59
 293 603 293 603 233 601 c 1,60,61
 230 538 230 538 230 439 c 1,62,63
 328 437 328 437 424.5 437 c 128,-1,64
 521 437 521 437 569 439 c 1,55,56
EndSplineSet
Validated: 1
EndChar

StartChar: itilde
Encoding: 297 297 121
Width: 486
GlyphClass: 2
Flags: W
LayerCount: 2
Fore
SplineSet
374 661 m 2,0,-1
 292 665 l 1,1,2
 288 568 288 568 288 386.5 c 128,-1,3
 288 205 288 205 293 83 c 1,4,-1
 374 87 l 2,5,6
 401 87 401 87 417.5 74.5 c 128,-1,7
 434 62 434 62 434 40.5 c 128,-1,8
 434 19 434 19 417.5 6.5 c 128,-1,9
 401 -6 401 -6 374 -6 c 2,10,-1
 243 0 l 1,11,-1
 112 -6 l 2,12,13
 85 -6 85 -6 68.5 6.5 c 128,-1,14
 52 19 52 19 52 40.5 c 128,-1,15
 52 62 52 62 68.5 74.5 c 128,-1,16
 85 87 85 87 112 87 c 2,17,-1
 193 82 l 1,18,19
 198 204 198 204 198 386 c 128,-1,20
 198 568 198 568 194 665 c 1,21,-1
 112 661 l 2,22,23
 85 661 85 661 68.5 674 c 128,-1,24
 52 687 52 687 52 709 c 128,-1,25
 52 731 52 731 68.5 743.5 c 128,-1,26
 85 756 85 756 112 756 c 2,27,-1
 243 750 l 1,28,-1
 374 756 l 2,29,30
 401 756 401 756 417.5 743.5 c 128,-1,31
 434 731 434 731 434 709 c 128,-1,32
 434 687 434 687 417.5 674 c 128,-1,33
 401 661 401 661 374 661 c 2,0,-1
442 924 m 0,34,35
 442 888 442 888 411 861 c 128,-1,36
 380 834 380 834 341 834 c 128,-1,37
 302 834 302 834 248 865 c 0,38,39
 204 887 204 887 182 887 c 128,-1,40
 160 887 160 887 135.5 857.5 c 128,-1,41
 111 828 111 828 90.5 828 c 128,-1,42
 70 828 70 828 57.5 840.5 c 128,-1,43
 45 853 45 853 45 871 c 0,44,45
 45 907 45 907 82 935.5 c 128,-1,46
 119 964 119 964 168 964 c 128,-1,47
 217 964 217 964 270 936.5 c 128,-1,48
 323 909 323 909 340.5 909 c 128,-1,49
 358 909 358 909 378.5 934 c 128,-1,50
 399 959 399 959 412.5 959 c 128,-1,51
 426 959 426 959 434 948.5 c 128,-1,52
 442 938 442 938 442 924 c 0,34,35
EndSplineSet
Validated: 1
EndChar

StartChar: dotlessi
Encoding: 305 305 122
Width: 502
GlyphClass: 2
Flags: W
LayerCount: 2
Fore
SplineSet
390 661 m 2,0,-1
 300 665 l 1,1,2
 296 568 296 568 296 386.5 c 128,-1,3
 296 205 296 205 301 83 c 1,4,-1
 390 88 l 2,5,6
 417 88 417 88 433.5 75.5 c 128,-1,7
 450 63 450 63 450 41 c 128,-1,8
 450 19 450 19 433.5 6.5 c 128,-1,9
 417 -6 417 -6 390 -6 c 2,10,11
 390 -6 390 -6 251 0 c 1,12,13
 251 0 251 0 112 -7 c 0,14,15
 85 -7 85 -7 68.5 5.5 c 128,-1,16
 52 18 52 18 52 40 c 128,-1,17
 52 62 52 62 68.5 74.5 c 128,-1,18
 85 87 85 87 112 87 c 2,19,-1
 201 82 l 1,20,21
 206 204 206 204 206 386 c 128,-1,22
 206 568 206 568 202 665 c 1,23,-1
 112 661 l 2,24,25
 85 661 85 661 68.5 673.5 c 128,-1,26
 52 686 52 686 52 708 c 128,-1,27
 52 730 52 730 68.5 742.5 c 128,-1,28
 85 755 85 755 112 755 c 2,29,-1
 251 750 l 1,30,-1
 390 756 l 2,31,32
 417 756 417 756 433.5 743.5 c 128,-1,33
 450 731 450 731 450 709 c 128,-1,34
 450 687 450 687 433.5 674 c 128,-1,35
 417 661 417 661 390 661 c 2,0,-1
EndSplineSet
Validated: 1
EndChar

StartChar: IJ
Encoding: 306 306 123
Width: 1010
GlyphClass: 2
Flags: W
LayerCount: 2
Fore
SplineSet
374 661 m 2,0,-1
 292 665 l 1,1,2
 288 568 288 568 288 386.5 c 128,-1,3
 288 205 288 205 293 83 c 1,4,-1
 374 87 l 2,5,6
 401 87 401 87 417.5 74.5 c 128,-1,7
 434 62 434 62 434 40.5 c 128,-1,8
 434 19 434 19 417.5 6.5 c 128,-1,9
 401 -6 401 -6 374 -6 c 2,10,-1
 243 0 l 1,11,-1
 112 -6 l 2,12,13
 85 -6 85 -6 68.5 6.5 c 128,-1,14
 52 19 52 19 52 40.5 c 128,-1,15
 52 62 52 62 68.5 74.5 c 128,-1,16
 85 87 85 87 112 87 c 2,17,-1
 193 82 l 1,18,19
 198 204 198 204 198 386 c 128,-1,20
 198 568 198 568 194 665 c 1,21,-1
 112 661 l 2,22,23
 85 661 85 661 68.5 674 c 128,-1,24
 52 687 52 687 52 709 c 128,-1,25
 52 731 52 731 68.5 743.5 c 128,-1,26
 85 756 85 756 112 756 c 2,27,-1
 243 750 l 1,28,-1
 374 756 l 2,29,30
 401 756 401 756 417.5 743.5 c 128,-1,31
 434 731 434 731 434 709 c 128,-1,32
 434 687 434 687 417.5 674 c 128,-1,33
 401 661 401 661 374 661 c 2,0,-1
745 750 m 1,34,-1
 894 756 l 2,35,36
 921 756 921 756 937.5 743.5 c 128,-1,37
 954 731 954 731 954 709.5 c 128,-1,38
 954 688 954 688 935 675 c 128,-1,39
 916 662 916 662 886 662 c 1,40,41
 885 600 885 600 885 257 c 0,42,43
 885 184 885 184 864.5 129 c 128,-1,44
 844 74 844 74 810 44 c 0,45,46
 743 -15 743 -15 657.5 -15 c 128,-1,47
 572 -15 572 -15 517.5 19.5 c 128,-1,48
 463 54 463 54 463 87 c 0,49,50
 463 106 463 106 474 117.5 c 128,-1,51
 485 129 485 129 503 129 c 128,-1,52
 521 129 521 129 539 115 c 128,-1,53
 557 101 557 101 585 86.5 c 128,-1,54
 613 72 613 72 654 72 c 0,55,56
 712 72 712 72 753.5 121.5 c 128,-1,57
 795 171 795 171 795 278 c 2,58,-1
 792 667 l 1,59,60
 730 667 730 667 679 664 c 128,-1,61
 628 661 628 661 608.5 661 c 128,-1,62
 589 661 589 661 572.5 673.5 c 128,-1,63
 556 686 556 686 556 708 c 128,-1,64
 556 730 556 730 572.5 742.5 c 128,-1,65
 589 755 589 755 616 755 c 2,66,-1
 745 750 l 1,34,-1
EndSplineSet
Validated: 1
EndChar

StartChar: ij
Encoding: 307 307 124
Width: 1010
GlyphClass: 2
Flags: W
LayerCount: 2
Fore
SplineSet
374 661 m 2,0,-1
 292 665 l 1,1,2
 288 568 288 568 288 386.5 c 128,-1,3
 288 205 288 205 293 83 c 1,4,-1
 374 87 l 2,5,6
 401 87 401 87 417.5 74.5 c 128,-1,7
 434 62 434 62 434 40.5 c 128,-1,8
 434 19 434 19 417.5 6.5 c 128,-1,9
 401 -6 401 -6 374 -6 c 2,10,-1
 243 0 l 1,11,-1
 112 -6 l 2,12,13
 85 -6 85 -6 68.5 6.5 c 128,-1,14
 52 19 52 19 52 40.5 c 128,-1,15
 52 62 52 62 68.5 74.5 c 128,-1,16
 85 87 85 87 112 87 c 2,17,-1
 193 82 l 1,18,19
 198 204 198 204 198 386 c 128,-1,20
 198 568 198 568 194 665 c 1,21,-1
 112 661 l 2,22,23
 85 661 85 661 68.5 674 c 128,-1,24
 52 687 52 687 52 709 c 128,-1,25
 52 731 52 731 68.5 743.5 c 128,-1,26
 85 756 85 756 112 756 c 2,27,-1
 243 750 l 1,28,-1
 374 756 l 2,29,30
 401 756 401 756 417.5 743.5 c 128,-1,31
 434 731 434 731 434 709 c 128,-1,32
 434 687 434 687 417.5 674 c 128,-1,33
 401 661 401 661 374 661 c 2,0,-1
745 750 m 1,34,-1
 894 756 l 2,35,36
 921 756 921 756 937.5 743.5 c 128,-1,37
 954 731 954 731 954 709.5 c 128,-1,38
 954 688 954 688 935 675 c 128,-1,39
 916 662 916 662 886 662 c 1,40,41
 885 600 885 600 885 257 c 0,42,43
 885 184 885 184 864.5 129 c 128,-1,44
 844 74 844 74 810 44 c 0,45,46
 743 -15 743 -15 657.5 -15 c 128,-1,47
 572 -15 572 -15 517.5 19.5 c 128,-1,48
 463 54 463 54 463 87 c 0,49,50
 463 106 463 106 474 117.5 c 128,-1,51
 485 129 485 129 503 129 c 128,-1,52
 521 129 521 129 539 115 c 128,-1,53
 557 101 557 101 585 86.5 c 128,-1,54
 613 72 613 72 654 72 c 0,55,56
 712 72 712 72 753.5 121.5 c 128,-1,57
 795 171 795 171 795 278 c 2,58,-1
 792 667 l 1,59,60
 730 667 730 667 679 664 c 128,-1,61
 628 661 628 661 608.5 661 c 128,-1,62
 589 661 589 661 572.5 673.5 c 128,-1,63
 556 686 556 686 556 708 c 128,-1,64
 556 730 556 730 572.5 742.5 c 128,-1,65
 589 755 589 755 616 755 c 2,66,-1
 745 750 l 1,34,-1
EndSplineSet
Validated: 1
EndChar

StartChar: jcircumflex
Encoding: 309 309 126
Width: 593
GlyphClass: 2
Flags: W
LayerCount: 2
Fore
SplineSet
328 750 m 1,0,-1
 477 756 l 2,1,2
 504 756 504 756 520.5 743.5 c 128,-1,3
 537 731 537 731 537 709.5 c 128,-1,4
 537 688 537 688 518 675 c 128,-1,5
 499 662 499 662 469 662 c 1,6,7
 468 600 468 600 468 257 c 0,8,9
 468 184 468 184 447.5 129 c 128,-1,10
 427 74 427 74 393 44 c 0,11,12
 326 -15 326 -15 240.5 -15 c 128,-1,13
 155 -15 155 -15 100.5 19.5 c 128,-1,14
 46 54 46 54 46 87 c 0,15,16
 46 106 46 106 57 117.5 c 128,-1,17
 68 129 68 129 86 129 c 128,-1,18
 104 129 104 129 122 115 c 128,-1,19
 140 101 140 101 168 86.5 c 128,-1,20
 196 72 196 72 237 72 c 0,21,22
 295 72 295 72 336.5 121.5 c 128,-1,23
 378 171 378 171 378 278 c 2,24,-1
 375 667 l 1,25,26
 312 667 312 667 261 664 c 128,-1,27
 210 661 210 661 191 661 c 128,-1,28
 172 661 172 661 155.5 673.5 c 128,-1,29
 139 686 139 686 139 708 c 128,-1,30
 139 730 139 730 155.5 742.5 c 128,-1,31
 172 755 172 755 199 755 c 2,32,-1
 328 750 l 1,0,-1
426 842 m 0,33,34
 357 923 357 923 342 923 c 256,35,36
 327 923 327 923 263 846 c 0,37,38
 258 840 258 840 256 838 c 2,39,-1
 248 830 l 2,40,41
 235 817 235 817 217.5 817 c 128,-1,42
 200 817 200 817 189 827.5 c 128,-1,43
 178 838 178 838 178 856.5 c 128,-1,44
 178 875 178 875 204 896.5 c 128,-1,45
 230 918 230 918 256.5 948 c 128,-1,46
 283 978 283 978 302 994 c 128,-1,47
 321 1010 321 1010 342.5 1010 c 128,-1,48
 364 1010 364 1010 383.5 994 c 128,-1,49
 403 978 403 978 429 948 c 128,-1,50
 455 918 455 918 481.5 896 c 128,-1,51
 508 874 508 874 508 856 c 128,-1,52
 508 838 508 838 497 827.5 c 128,-1,53
 486 817 486 817 473 817 c 128,-1,54
 460 817 460 817 452 822 c 0,55,56
 438 829 438 829 426 842 c 0,33,34
EndSplineSet
Validated: 1
EndChar

StartChar: Kcommaaccent
Encoding: 310 310 127
Width: 688
GlyphClass: 2
Flags: W
LayerCount: 2
Fore
SplineSet
241 -63.5 m 128,-1,1
 253 -47 253 -47 275.5 -47 c 128,-1,2
 298 -47 298 -47 310.5 -61.5 c 128,-1,3
 323 -76 323 -76 323 -97 c 0,4,5
 323 -141 323 -141 282 -188.5 c 128,-1,6
 241 -236 241 -236 214 -236 c 0,7,8
 200 -236 200 -236 191 -228 c 128,-1,9
 182 -220 182 -220 182 -210.5 c 128,-1,10
 182 -201 182 -201 211 -148 c 0,11,12
 216 -139 216 -139 222.5 -109.5 c 128,-1,0
 229 -80 229 -80 241 -63.5 c 128,-1,1
208 337 m 1,13,-1
 213 47 l 2,14,15
 213 23 213 23 198 6.5 c 128,-1,16
 183 -10 183 -10 162.5 -10 c 128,-1,17
 142 -10 142 -10 127.5 6.5 c 128,-1,18
 113 23 113 23 113 47 c 2,19,-1
 117 372 l 1,20,-1
 113 702 l 2,21,22
 113 726 113 726 127.5 742.5 c 128,-1,23
 142 759 142 759 162.5 759 c 128,-1,24
 183 759 183 759 198 742.5 c 128,-1,25
 213 726 213 726 213 702 c 2,26,-1
 210 612 l 2,27,28
 208 522 208 522 208 434 c 1,29,30
 235 442 235 442 277 442 c 1,31,-1
 333 436 l 1,32,33
 380 471 380 471 428.5 556.5 c 128,-1,34
 477 642 477 642 493 714 c 0,35,36
 504 760 504 760 541 760 c 0,37,38
 558 760 558 760 570.5 747 c 128,-1,39
 583 734 583 734 583 715 c 0,40,41
 583 653 583 653 527.5 552 c 128,-1,42
 472 451 472 451 408 386 c 1,43,44
 510 202 510 202 575 119 c 0,45,46
 610 75 610 75 641 75 c 2,47,-1
 652 76 l 2,48,49
 659 76 659 76 659 54 c 128,-1,50
 659 32 659 32 641 11 c 128,-1,51
 623 -10 623 -10 595 -10 c 128,-1,52
 567 -10 567 -10 540 14 c 0,53,54
 485 61 485 61 324 341 c 1,55,-1
 260 334 l 2,56,57
 224 334 224 334 208 337 c 1,13,-1
EndSplineSet
Validated: 1
EndChar

StartChar: kcedilla
Encoding: 311 311 128
Width: 688
GlyphClass: 2
Flags: W
LayerCount: 2
Fore
SplineSet
241 -63.5 m 128,-1,1
 253 -47 253 -47 275.5 -47 c 128,-1,2
 298 -47 298 -47 310.5 -61.5 c 128,-1,3
 323 -76 323 -76 323 -97 c 0,4,5
 323 -141 323 -141 282 -188.5 c 128,-1,6
 241 -236 241 -236 214 -236 c 0,7,8
 200 -236 200 -236 191 -228 c 128,-1,9
 182 -220 182 -220 182 -210.5 c 128,-1,10
 182 -201 182 -201 211 -148 c 0,11,12
 216 -139 216 -139 222.5 -109.5 c 128,-1,0
 229 -80 229 -80 241 -63.5 c 128,-1,1
208 337 m 1,13,-1
 213 47 l 2,14,15
 213 23 213 23 198 6.5 c 128,-1,16
 183 -10 183 -10 162.5 -10 c 128,-1,17
 142 -10 142 -10 127.5 6.5 c 128,-1,18
 113 23 113 23 113 47 c 2,19,-1
 117 372 l 1,20,-1
 113 702 l 2,21,22
 113 726 113 726 127.5 742.5 c 128,-1,23
 142 759 142 759 162.5 759 c 128,-1,24
 183 759 183 759 198 742.5 c 128,-1,25
 213 726 213 726 213 702 c 2,26,-1
 210 612 l 2,27,28
 208 522 208 522 208 434 c 1,29,30
 235 442 235 442 277 442 c 1,31,-1
 333 436 l 1,32,33
 380 471 380 471 428.5 556.5 c 128,-1,34
 477 642 477 642 493 714 c 0,35,36
 504 760 504 760 541 760 c 0,37,38
 558 760 558 760 570.5 747 c 128,-1,39
 583 734 583 734 583 715 c 0,40,41
 583 653 583 653 527.5 552 c 128,-1,42
 472 451 472 451 408 386 c 1,43,44
 510 202 510 202 575 119 c 0,45,46
 610 75 610 75 641 75 c 2,47,-1
 652 76 l 2,48,49
 659 76 659 76 659 54 c 128,-1,50
 659 32 659 32 641 11 c 128,-1,51
 623 -10 623 -10 595 -10 c 128,-1,52
 567 -10 567 -10 540 14 c 0,53,54
 485 61 485 61 324 341 c 1,55,-1
 260 334 l 2,56,57
 224 334 224 334 208 337 c 1,13,-1
EndSplineSet
Validated: 1
EndChar

StartChar: kgreenlandic
Encoding: 312 312 129
Width: 688
GlyphClass: 2
Flags: W
LayerCount: 2
Fore
SplineSet
208 337 m 1,0,-1
 213 47 l 2,1,2
 213 23 213 23 198 6.5 c 128,-1,3
 183 -10 183 -10 162.5 -10 c 128,-1,4
 142 -10 142 -10 127.5 6.5 c 128,-1,5
 113 23 113 23 113 47 c 2,6,7
 113 47 113 47 117 372 c 1,8,-1
 113 702 l 2,9,10
 113 726 113 726 127.5 742.5 c 128,-1,11
 142 759 142 759 162.5 759 c 128,-1,12
 183 759 183 759 198 742.5 c 128,-1,13
 213 726 213 726 213 702 c 2,14,-1
 210 612 l 2,15,16
 208 522 208 522 208 434 c 1,17,18
 235 442 235 442 277 442 c 1,19,-1
 333 436 l 1,20,21
 380 471 380 471 428.5 556.5 c 128,-1,22
 477 642 477 642 493 714 c 0,23,24
 504 760 504 760 541 760 c 0,25,26
 558 760 558 760 570.5 747 c 128,-1,27
 583 734 583 734 583 715 c 0,28,29
 583 653 583 653 527.5 552 c 128,-1,30
 472 451 472 451 408 386 c 1,31,32
 510 202 510 202 575 119 c 0,33,34
 610 75 610 75 641 75 c 2,35,-1
 652 76 l 2,36,37
 659 76 659 76 659 54 c 128,-1,38
 659 32 659 32 641 11 c 128,-1,39
 623 -10 623 -10 595 -10 c 128,-1,40
 567 -10 567 -10 540 14 c 0,41,42
 485 61 485 61 324 341 c 1,43,-1
 260 334 l 2,44,45
 224 334 224 334 208 337 c 1,0,-1
EndSplineSet
Validated: 1
EndChar

StartChar: Ldot
Encoding: 319 319 130
Width: 594
GlyphClass: 2
Flags: W
LayerCount: 2
Fore
SplineSet
408.5 428 m 128,-1,1
 422 411 422 411 422 384.5 c 128,-1,2
 422 358 422 358 405 337 c 128,-1,3
 388 316 388 316 363.5 316 c 128,-1,4
 339 316 339 316 325 334 c 128,-1,5
 311 352 311 352 311 378 c 128,-1,6
 311 404 311 404 327.5 424.5 c 128,-1,7
 344 445 344 445 369.5 445 c 128,-1,0
 395 445 395 445 408.5 428 c 128,-1,1
115 54 m 2,8,-1
 119 380 l 2,9,10
 119 511 119 511 116 596 c 128,-1,11
 113 681 113 681 113 689 c 0,12,13
 113 760 113 760 164 760 c 128,-1,14
 215 760 215 760 215 689 c 0,15,16
 215 681 215 681 214 638 c 0,17,18
 209 511 209 511 209 405.5 c 128,-1,19
 209 300 209 300 210 240.5 c 128,-1,20
 211 181 211 181 213 139.5 c 128,-1,21
 215 98 215 98 215 87 c 1,22,23
 263 82 263 82 319 82 c 128,-1,24
 375 82 375 82 428 85.5 c 128,-1,25
 481 89 481 89 497.5 89 c 128,-1,26
 514 89 514 89 530.5 76.5 c 128,-1,27
 547 64 547 64 547 42 c 128,-1,28
 547 20 547 20 530.5 7.5 c 128,-1,29
 514 -5 514 -5 487 -5 c 2,30,-1
 338 0 l 1,31,-1
 176 -5 l 2,32,33
 146 -5 146 -5 130.5 7.5 c 128,-1,34
 115 20 115 20 115 54 c 2,8,-1
EndSplineSet
Validated: 1
EndChar

StartChar: ldot
Encoding: 320 320 131
Width: 594
GlyphClass: 2
Flags: W
LayerCount: 2
Fore
SplineSet
408.5 428 m 128,-1,1
 422 411 422 411 422 384.5 c 128,-1,2
 422 358 422 358 405 337 c 128,-1,3
 388 316 388 316 363.5 316 c 128,-1,4
 339 316 339 316 325 334 c 128,-1,5
 311 352 311 352 311 378 c 128,-1,6
 311 404 311 404 327.5 424.5 c 128,-1,7
 344 445 344 445 369.5 445 c 128,-1,0
 395 445 395 445 408.5 428 c 128,-1,1
115 54 m 2,8,-1
 119 380 l 2,9,10
 119 511 119 511 116 596 c 128,-1,11
 113 681 113 681 113 689 c 0,12,13
 113 760 113 760 164 760 c 128,-1,14
 215 760 215 760 215 689 c 0,15,16
 215 681 215 681 214 638 c 0,17,18
 209 511 209 511 209 405.5 c 128,-1,19
 209 300 209 300 210 240.5 c 128,-1,20
 211 181 211 181 213 139.5 c 128,-1,21
 215 98 215 98 215 87 c 1,22,23
 263 82 263 82 319 82 c 128,-1,24
 375 82 375 82 428 85.5 c 128,-1,25
 481 89 481 89 497.5 89 c 128,-1,26
 514 89 514 89 530.5 76.5 c 128,-1,27
 547 64 547 64 547 42 c 128,-1,28
 547 20 547 20 530.5 7.5 c 128,-1,29
 514 -5 514 -5 487 -5 c 2,30,-1
 338 0 l 1,31,-1
 176 -5 l 2,32,33
 146 -5 146 -5 130.5 7.5 c 128,-1,34
 115 20 115 20 115 54 c 2,8,-1
EndSplineSet
Validated: 1
EndChar

StartChar: Lslash
Encoding: 321 321 132
Width: 611
GlyphClass: 2
Flags: W
LayerCount: 2
Fore
SplineSet
135 449 m 1,0,-1
 130 689 l 2,1,2
 130 760 130 760 181 760 c 128,-1,3
 232 760 232 760 232 689 c 0,4,5
 232 682 232 682 231 660 c 0,6,7
 228 587 228 587 226 527 c 1,8,-1
 285 582 l 2,9,10
 306 599 306 599 321 599 c 128,-1,11
 336 599 336 599 348.5 586.5 c 128,-1,12
 361 574 361 574 361 557 c 128,-1,13
 361 540 361 540 339 522 c 2,14,-1
 226 429 l 1,15,-1
 226 380 l 2,16,17
 226 222 226 222 229 160 c 128,-1,18
 232 98 232 98 232 87 c 1,19,20
 280 82 280 82 336.5 82 c 128,-1,21
 393 82 393 82 445.5 85.5 c 128,-1,22
 498 89 498 89 514.5 89 c 128,-1,23
 531 89 531 89 547.5 76.5 c 128,-1,24
 564 64 564 64 564 42 c 128,-1,25
 564 20 564 20 547.5 7.5 c 128,-1,26
 531 -5 531 -5 504 -5 c 2,27,-1
 356 0 l 1,28,-1
 193 -5 l 2,29,30
 163 -5 163 -5 147.5 7.5 c 128,-1,31
 132 20 132 20 132 54 c 0,32,33
 132 62 132 62 133 102 c 0,34,35
 135 182 135 182 135 350 c 1,36,-1
 99 317 l 2,37,38
 82 302 82 302 65 302 c 128,-1,39
 48 302 48 302 36 313.5 c 128,-1,40
 24 325 24 325 24 343 c 128,-1,41
 24 361 24 361 44 377 c 2,42,-1
 135 449 l 1,0,-1
EndSplineSet
Validated: 1
EndChar

StartChar: Nacute
Encoding: 323 323 133
Width: 743
GlyphClass: 2
Flags: W
LayerCount: 2
Fore
SplineSet
626 372 m 2,0,-1
 629 62 l 2,1,2
 629 -10 629 -10 576 -10 c 0,3,4
 543 -10 543 -10 526 21 c 2,5,-1
 209 567 l 1,6,7
 209 334 209 334 211.5 195 c 128,-1,8
 214 56 214 56 214 39.5 c 128,-1,9
 214 23 214 23 199 6.5 c 128,-1,10
 184 -10 184 -10 163.5 -10 c 128,-1,11
 143 -10 143 -10 128.5 6.5 c 128,-1,12
 114 23 114 23 114 48 c 2,13,-1
 118 372 l 2,14,15
 118 475 118 475 115.5 581 c 128,-1,16
 113 687 113 687 113 689 c 0,17,18
 113 760 113 760 164 760 c 0,19,20
 201 760 201 760 219 729 c 0,21,22
 510 229 510 229 536 189 c 1,23,24
 536 472 536 472 533 579 c 128,-1,25
 530 686 530 686 530 689 c 0,26,27
 530 760 530 760 581 760 c 128,-1,28
 632 760 632 760 632 689 c 0,29,30
 632 681 632 681 630 636 c 0,31,32
 626 503 626 503 626 372 c 2,0,-1
491 947 m 0,33,34
 491 903 491 903 443.5 858.5 c 128,-1,35
 396 814 396 814 364 814 c 0,36,37
 348 814 348 814 339.5 822 c 128,-1,38
 331 830 331 830 331 842 c 128,-1,39
 331 854 331 854 355 883.5 c 128,-1,40
 379 913 379 913 388 933 c 128,-1,41
 397 953 397 953 402.5 962.5 c 128,-1,42
 408 972 408 972 420.5 981.5 c 128,-1,43
 433 991 433 991 450.5 991 c 128,-1,44
 468 991 468 991 479.5 977.5 c 128,-1,45
 491 964 491 964 491 947 c 0,33,34
EndSplineSet
Validated: 1
EndChar

StartChar: OE
Encoding: 338 338 135
Width: 997
GlyphClass: 2
Flags: W
LayerCount: 2
Fore
SplineSet
540 164.5 m 128,-1,1
 602 257 602 257 602 377.5 c 128,-1,2
 602 498 602 498 540.5 588 c 128,-1,3
 479 678 479 678 387 678 c 128,-1,4
 295 678 295 678 231.5 588 c 128,-1,5
 168 498 168 498 168 377.5 c 128,-1,6
 168 257 168 257 231.5 164.5 c 128,-1,7
 295 72 295 72 386.5 72 c 128,-1,0
 478 72 478 72 540 164.5 c 128,-1,1
878 665 m 2,8,-1
 638 670 l 2,9,10
 613 670 613 670 597 668 c 1,11,12
 676 578 676 578 693 441 c 1,13,14
 791 443 791 443 824 443 c 0,15,16
 883 443 883 443 883 399 c 128,-1,17
 883 355 883 355 824 355 c 0,18,19
 796 355 796 355 698 357 c 1,20,21
 694 196 694 196 596 82 c 1,22,23
 660 80 660 80 714 80 c 2,24,-1
 878 85 l 2,25,26
 937 85 937 85 937 40 c 0,27,28
 937 19 937 19 921 7 c 128,-1,29
 905 -5 905 -5 878 -5 c 2,30,-1
 714 0 l 1,31,32
 714 0 714 0 539 -5 c 0,33,34
 513 -5 513 -5 498 8 c 1,35,36
 451 -15 451 -15 387 -15 c 0,37,38
 253 -15 253 -15 162.5 99.5 c 128,-1,39
 72 214 72 214 72 376 c 128,-1,40
 72 538 72 538 163 651.5 c 128,-1,41
 254 765 254 765 389 765 c 0,42,43
 445 765 445 765 489 746 c 1,44,45
 502 755 502 755 533 755 c 2,46,-1
 725 750 l 1,47,-1
 878 755 l 2,48,49
 905 755 905 755 921 743 c 128,-1,50
 937 731 937 731 937 710 c 128,-1,51
 937 689 937 689 921 677 c 128,-1,52
 905 665 905 665 878 665 c 2,8,-1
EndSplineSet
Validated: 1
EndChar

StartChar: oe
Encoding: 339 339 136
Width: 1262
GlyphClass: 2
Flags: W
LayerCount: 2
Fore
SplineSet
790 151.5 m 128,-1,1
 856 73 856 73 938.5 73 c 128,-1,2
 1021 73 1021 73 1102 121 c 0,3,4
 1134 139 1134 139 1146 139 c 128,-1,5
 1158 139 1158 139 1167.5 129.5 c 128,-1,6
 1177 120 1177 120 1177 106 c 0,7,8
 1177 71 1177 71 1105.5 28 c 128,-1,9
 1034 -15 1034 -15 940.5 -15 c 128,-1,10
 847 -15 847 -15 777 30 c 128,-1,11
 707 75 707 75 665 151 c 1,12,13
 622 75 622 75 549 30 c 128,-1,14
 476 -15 476 -15 388 -15 c 0,15,16
 245 -15 245 -15 153 97.5 c 128,-1,17
 61 210 61 210 61 373 c 128,-1,18
 61 536 61 536 154 650.5 c 128,-1,19
 247 765 247 765 387 765 c 0,20,21
 481 765 481 765 555 719.5 c 128,-1,22
 629 674 629 674 671 595 c 1,23,24
 716 673 716 673 788 719 c 128,-1,25
 860 765 860 765 958 765 c 128,-1,26
 1056 765 1056 765 1127 703 c 128,-1,27
 1198 641 1198 641 1198 555 c 128,-1,28
 1198 469 1198 469 1154 415 c 0,29,30
 1072 316 1072 316 897 316 c 0,31,32
 822 316 822 316 715 336 c 1,33,0
 724 230 724 230 790 151.5 c 128,-1,1
550.5 163 m 128,-1,35
 619 253 619 253 619 378 c 128,-1,36
 619 503 619 503 553.5 590.5 c 128,-1,37
 488 678 488 678 390.5 678 c 128,-1,38
 293 678 293 678 225 587.5 c 128,-1,39
 157 497 157 497 157 373 c 128,-1,40
 157 249 157 249 223 161 c 128,-1,41
 289 73 289 73 385.5 73 c 128,-1,34
 482 73 482 73 550.5 163 c 128,-1,35
1102 551 m 0,42,43
 1102 598 1102 598 1064 638 c 128,-1,44
 1026 678 1026 678 955 678 c 0,45,46
 862 678 862 678 798.5 601 c 128,-1,47
 735 524 735 524 717 422 c 1,48,49
 792 401 792 401 889.5 401 c 128,-1,50
 987 401 987 401 1044.5 439.5 c 128,-1,51
 1102 478 1102 478 1102 551 c 0,42,43
EndSplineSet
Validated: 1
EndChar

StartChar: Rcommaaccent
Encoding: 342 342 138
Width: 686
GlyphClass: 2
Flags: W
LayerCount: 2
Fore
SplineSet
504 533 m 0,0,1
 504 599 504 599 454 639 c 128,-1,2
 404 679 404 679 309 679 c 0,3,4
 262 679 262 679 212 661 c 1,5,6
 209 571 209 571 209 489.5 c 128,-1,7
 209 408 209 408 210 395 c 1,8,9
 258 404 258 404 300 404 c 128,-1,10
 342 404 342 404 395 395 c 1,11,12
 431 405 431 405 467.5 445.5 c 128,-1,13
 504 486 504 486 504 533 c 0,0,1
629 76 m 2,14,-1
 645 78 l 2,15,16
 654 78 654 78 654 54 c 128,-1,17
 654 30 654 30 633 10 c 128,-1,18
 612 -10 612 -10 586 -10 c 0,19,20
 541 -10 541 -10 500 48 c 0,21,22
 447 120 447 120 365 301 c 1,23,24
 320 295 320 295 263 295 c 1,25,-1
 211 299 l 1,26,27
 211 229 211 229 214 157.5 c 128,-1,28
 217 86 217 86 217 56 c 0,29,30
 217 -15 217 -15 166 -15 c 128,-1,31
 115 -15 115 -15 115 56 c 0,32,33
 115 96 115 96 118.5 197 c 128,-1,34
 122 298 122 298 122 394.5 c 128,-1,35
 122 491 122 491 116 627 c 1,36,37
 72 636 72 636 72 672 c 0,38,39
 72 715 72 715 155 740 c 128,-1,40
 238 765 238 765 303 765 c 0,41,42
 449 765 449 765 524.5 699.5 c 128,-1,43
 600 634 600 634 600 539 c 0,44,45
 600 478 600 478 559 419.5 c 128,-1,46
 518 361 518 361 452 330 c 1,47,48
 498 224 498 224 535.5 164 c 128,-1,49
 573 104 573 104 592 90 c 128,-1,50
 611 76 611 76 629 76 c 2,14,-1
246 -63.5 m 128,-1,52
 258 -47 258 -47 280.5 -47 c 128,-1,53
 303 -47 303 -47 315.5 -61.5 c 128,-1,54
 328 -76 328 -76 328 -97 c 0,55,56
 328 -141 328 -141 287 -188.5 c 128,-1,57
 246 -236 246 -236 219 -236 c 0,58,59
 205 -236 205 -236 196 -228 c 128,-1,60
 187 -220 187 -220 187 -210.5 c 128,-1,61
 187 -201 187 -201 216 -148 c 0,62,63
 221 -139 221 -139 227.5 -109.5 c 128,-1,51
 234 -80 234 -80 246 -63.5 c 128,-1,52
EndSplineSet
Validated: 1
EndChar

StartChar: rcommaaccent
Encoding: 343 343 139
Width: 563
GlyphClass: 2
Flags: W
LayerCount: 2
Fore
SplineSet
192 355 m 1,0,1
 192 355 192 355 195 57 c 0,2,3
 195 -12 195 -12 144 -12 c 0,4,5
 82 -12 82 -12 82 92.5 c 128,-1,6
 82 197 82 197 109 385 c 1,7,8
 109 450 109 450 97.5 561.5 c 128,-1,9
 86 673 86 673 86 698 c 128,-1,10
 86 723 86 723 100 741.5 c 128,-1,11
 114 760 114 760 138.5 760 c 128,-1,12
 163 760 163 760 177 741.5 c 128,-1,13
 191 723 191 723 191 700 c 128,-1,14
 191 677 191 677 190.5 644.5 c 128,-1,15
 190 612 190 612 190 590 c 1,16,17
 219 659 219 659 279 711.5 c 128,-1,18
 339 764 339 764 401.5 764 c 128,-1,19
 464 764 464 764 497 739.5 c 128,-1,20
 530 715 530 715 530 686.5 c 128,-1,21
 530 658 530 658 514.5 641.5 c 128,-1,22
 499 625 499 625 476 625 c 128,-1,23
 453 625 453 625 425.5 650 c 128,-1,24
 398 675 398 675 381 675 c 0,25,26
 335 675 335 675 272 568.5 c 128,-1,27
 209 462 209 462 192 355 c 1,0,1
99 -63.5 m 128,-1,29
 111 -47 111 -47 133.5 -47 c 128,-1,30
 156 -47 156 -47 168.5 -61.5 c 128,-1,31
 181 -76 181 -76 181 -97 c 0,32,33
 181 -141 181 -141 140 -188.5 c 128,-1,34
 99 -236 99 -236 72 -236 c 0,35,36
 58 -236 58 -236 49 -228 c 128,-1,37
 40 -220 40 -220 40 -210.5 c 128,-1,38
 40 -201 40 -201 69 -148 c 0,39,40
 74 -139 74 -139 80.5 -109.5 c 128,-1,28
 87 -80 87 -80 99 -63.5 c 128,-1,29
EndSplineSet
Validated: 1
EndChar

StartChar: rcaron
Encoding: 345 345 141
Width: 563
GlyphClass: 2
Flags: W
LayerCount: 2
Fore
SplineSet
192 355 m 1,0,1
 192 355 192 355 195 57 c 0,2,3
 195 -12 195 -12 144 -12 c 0,4,5
 82 -12 82 -12 82 92.5 c 128,-1,6
 82 197 82 197 109 385 c 1,7,8
 109 450 109 450 97.5 561.5 c 128,-1,9
 86 673 86 673 86 698 c 128,-1,10
 86 723 86 723 100 741.5 c 128,-1,11
 114 760 114 760 138.5 760 c 128,-1,12
 163 760 163 760 177 741.5 c 128,-1,13
 191 723 191 723 191 700 c 128,-1,14
 191 677 191 677 190.5 644.5 c 128,-1,15
 190 612 190 612 190 590 c 1,16,17
 219 659 219 659 279 711.5 c 128,-1,18
 339 764 339 764 401.5 764 c 128,-1,19
 464 764 464 764 497 739.5 c 128,-1,20
 530 715 530 715 530 686.5 c 128,-1,21
 530 658 530 658 514.5 641.5 c 128,-1,22
 499 625 499 625 476 625 c 128,-1,23
 453 625 453 625 425.5 650 c 128,-1,24
 398 675 398 675 381 675 c 0,25,26
 335 675 335 675 272 568.5 c 128,-1,27
 209 462 209 462 192 355 c 1,0,1
222 981 m 0,28,29
 286 904 286 904 300 904 c 0,30,31
 316 904 316 904 385 984 c 0,32,33
 407 1010 407 1010 426 1010 c 128,-1,34
 445 1010 445 1010 456 999.5 c 128,-1,35
 467 989 467 989 467 971 c 128,-1,36
 467 953 467 953 440.5 931 c 128,-1,37
 414 909 414 909 388 879 c 128,-1,38
 362 849 362 849 342.5 833 c 128,-1,39
 323 817 323 817 301.5 817 c 128,-1,40
 280 817 280 817 261 833 c 128,-1,41
 242 849 242 849 215.5 879 c 128,-1,42
 189 909 189 909 163 930.5 c 128,-1,43
 137 952 137 952 137 970.5 c 128,-1,44
 137 989 137 989 148 999.5 c 128,-1,45
 159 1010 159 1010 171 1010 c 128,-1,46
 183 1010 183 1010 188.5 1008 c 128,-1,47
 194 1006 194 1006 198 1004 c 128,-1,48
 202 1002 202 1002 207 997 c 2,49,-1
 214 990 l 2,50,51
 217 987 217 987 222 981 c 0,28,29
EndSplineSet
Validated: 1
EndChar

StartChar: circumflex
Encoding: 710 710 142
Width: 480
GlyphClass: 2
Flags: W
LayerCount: 2
Fore
SplineSet
323 592 m 0,0,1
 254 673 254 673 240 673 c 0,2,3
 224 673 224 673 160 596 c 0,4,5
 155 590 155 590 152 588 c 2,6,-1
 145 580 l 2,7,8
 132 567 132 567 114.5 567 c 128,-1,9
 97 567 97 567 86 577.5 c 128,-1,10
 75 588 75 588 75 606.5 c 128,-1,11
 75 625 75 625 101 646.5 c 128,-1,12
 127 668 127 668 153.5 698 c 128,-1,13
 180 728 180 728 199 744 c 128,-1,14
 218 760 218 760 239.5 760 c 128,-1,15
 261 760 261 760 280.5 744 c 128,-1,16
 300 728 300 728 326 698 c 128,-1,17
 352 668 352 668 378.5 646 c 128,-1,18
 405 624 405 624 405 606 c 128,-1,19
 405 588 405 588 394 577.5 c 128,-1,20
 383 567 383 567 370 567 c 128,-1,21
 357 567 357 567 348 572 c 0,22,23
 335 579 335 579 323 592 c 0,0,1
EndSplineSet
Validated: 1
EndChar

StartChar: caron
Encoding: 711 711 143
Width: 480
GlyphClass: 2
Flags: W
LayerCount: 2
Fore
SplineSet
160 731 m 0,0,1
 224 654 224 654 238 654 c 0,2,3
 254 654 254 654 323 734 c 0,4,5
 345 760 345 760 364 760 c 128,-1,6
 383 760 383 760 394 749.5 c 128,-1,7
 405 739 405 739 405 721 c 128,-1,8
 405 703 405 703 378.5 681 c 128,-1,9
 352 659 352 659 326 629 c 128,-1,10
 300 599 300 599 280.5 583 c 128,-1,11
 261 567 261 567 239.5 567 c 128,-1,12
 218 567 218 567 199 583 c 128,-1,13
 180 599 180 599 153.5 629 c 128,-1,14
 127 659 127 659 101 680.5 c 128,-1,15
 75 702 75 702 75 720.5 c 128,-1,16
 75 739 75 739 86 749.5 c 128,-1,17
 97 760 97 760 109 760 c 128,-1,18
 121 760 121 760 126.5 758 c 128,-1,19
 132 756 132 756 136 754 c 128,-1,20
 140 752 140 752 145 747 c 2,21,-1
 152 740 l 2,22,23
 155 737 155 737 160 731 c 0,0,1
EndSplineSet
Validated: 1
EndChar

StartChar: breve
Encoding: 728 728 144
Width: 425
GlyphClass: 2
Flags: W
LayerCount: 2
Fore
SplineSet
333 762 m 0,0,1
 372 762 372 762 372 719.5 c 128,-1,2
 372 677 372 677 326 633.5 c 128,-1,3
 280 590 280 590 209 590 c 128,-1,4
 138 590 138 590 92.5 633.5 c 128,-1,5
 47 677 47 677 47 719.5 c 128,-1,6
 47 762 47 762 85 762 c 0,7,8
 102 762 102 762 112 752 c 128,-1,9
 122 742 122 742 132.5 722.5 c 128,-1,10
 143 703 143 703 150 694 c 128,-1,11
 157 685 157 685 173 675.5 c 128,-1,12
 189 666 189 666 209 666 c 128,-1,13
 229 666 229 666 245.5 675.5 c 128,-1,14
 262 685 262 685 268.5 694 c 128,-1,15
 275 703 275 703 286 721 c 0,16,17
 306 762 306 762 333 762 c 0,0,1
EndSplineSet
Validated: 1
EndChar

StartChar: dotaccent
Encoding: 729 729 145
Width: 241
GlyphClass: 2
Flags: W
LayerCount: 2
Fore
SplineSet
162.5 743 m 128,-1,1
 176 726 176 726 176 700 c 128,-1,2
 176 674 176 674 159 652.5 c 128,-1,3
 142 631 142 631 117.5 631 c 128,-1,4
 93 631 93 631 79 649 c 128,-1,5
 65 667 65 667 65 693 c 128,-1,6
 65 719 65 719 81.5 739.5 c 128,-1,7
 98 760 98 760 123.5 760 c 128,-1,0
 149 760 149 760 162.5 743 c 128,-1,1
EndSplineSet
Validated: 1
EndChar

StartChar: ring
Encoding: 730 730 146
Width: 216
GlyphClass: 2
Flags: W
LayerCount: 2
Fore
SplineSet
181.5 736 m 128,-1,1
 211 706 211 706 211 663.5 c 128,-1,2
 211 621 211 621 182.5 593 c 128,-1,3
 154 565 154 565 108 565 c 128,-1,4
 62 565 62 565 33.5 593 c 128,-1,5
 5 621 5 621 5 664 c 128,-1,6
 5 707 5 707 34.5 736.5 c 128,-1,7
 64 766 64 766 108 766 c 128,-1,0
 152 766 152 766 181.5 736 c 128,-1,1
146 664 m 128,-1,9
 146 679 146 679 134 692 c 128,-1,10
 122 705 122 705 107.5 705 c 128,-1,11
 93 705 93 705 81.5 692.5 c 128,-1,12
 70 680 70 680 70 664.5 c 128,-1,13
 70 649 70 649 81 637 c 128,-1,14
 92 625 92 625 107.5 625 c 128,-1,15
 123 625 123 625 134.5 637 c 128,-1,8
 146 649 146 649 146 664 c 128,-1,9
EndSplineSet
Validated: 1
EndChar

StartChar: ogonek
Encoding: 731 731 147
Width: 365
GlyphClass: 2
Flags: W
LayerCount: 2
Fore
SplineSet
319 -154 m 0,0,1
 319 -181 319 -181 285 -205.5 c 128,-1,2
 251 -230 251 -230 201.5 -230 c 128,-1,3
 152 -230 152 -230 115.5 -200.5 c 128,-1,4
 79 -171 79 -171 79 -122 c 0,5,6
 79 -45 79 -45 179 3 c 1,7,-1
 256 3 l 1,8,9
 163 -63 163 -63 163 -115 c 0,10,11
 163 -133 163 -133 177 -142.5 c 128,-1,12
 191 -152 191 -152 210.5 -152 c 128,-1,13
 230 -152 230 -152 255.5 -140 c 128,-1,14
 281 -128 281 -128 293 -128 c 128,-1,15
 305 -128 305 -128 312 -136.5 c 128,-1,16
 319 -145 319 -145 319 -154 c 0,0,1
EndSplineSet
Validated: 1
EndChar

StartChar: tilde
Encoding: 732 732 148
Width: 567
GlyphClass: 2
Flags: W
LayerCount: 2
Fore
SplineSet
482 665 m 0,0,1
 482 629 482 629 451 602 c 128,-1,2
 420 575 420 575 381 575 c 128,-1,3
 342 575 342 575 288 606 c 0,4,5
 244 628 244 628 222 628 c 128,-1,6
 200 628 200 628 175.5 598.5 c 128,-1,7
 151 569 151 569 130.5 569 c 128,-1,8
 110 569 110 569 97.5 581.5 c 128,-1,9
 85 594 85 594 85 612 c 0,10,11
 85 648 85 648 122 676.5 c 128,-1,12
 159 705 159 705 208 705 c 128,-1,13
 257 705 257 705 310 677.5 c 128,-1,14
 363 650 363 650 380.5 650 c 128,-1,15
 398 650 398 650 418.5 675 c 128,-1,16
 439 700 439 700 452.5 700 c 128,-1,17
 466 700 466 700 474 689.5 c 128,-1,18
 482 679 482 679 482 665 c 0,0,1
EndSplineSet
Validated: 1
EndChar

StartChar: Omega
Encoding: 937 937 149
Width: 876
GlyphClass: 2
Flags: W
LayerCount: 2
Fore
SplineSet
216 0 m 1,0,-1
 99 -6 l 2,1,2
 73 -6 73 -6 58 6.5 c 128,-1,3
 43 19 43 19 43 39.5 c 128,-1,4
 43 60 43 60 58 72.5 c 128,-1,5
 73 85 73 85 97 85 c 128,-1,6
 121 85 121 85 168 82.5 c 128,-1,7
 215 80 215 80 242 80 c 1,8,9
 118 217 118 217 118 375 c 0,10,11
 118 513 118 513 213.5 613 c 128,-1,12
 309 713 309 713 439 713 c 128,-1,13
 569 713 569 713 664 614.5 c 128,-1,14
 759 516 759 516 759 378 c 0,15,16
 759 216 759 216 635 79 c 1,17,-1
 778 84 l 2,18,19
 804 84 804 84 819 71.5 c 128,-1,20
 834 59 834 59 834 38.5 c 128,-1,21
 834 18 834 18 819 5.5 c 128,-1,22
 804 -7 804 -7 778 -7 c 2,23,-1
 661 -1 l 1,24,-1
 554 -7 l 2,25,26
 528 -7 528 -7 511 5.5 c 128,-1,27
 494 18 494 18 494 41 c 128,-1,28
 494 64 494 64 523 79 c 0,29,30
 582 114 582 114 623 201.5 c 128,-1,31
 664 289 664 289 664 385.5 c 128,-1,32
 664 482 664 482 600.5 554 c 128,-1,33
 537 626 537 626 439.5 626 c 128,-1,34
 342 626 342 626 277.5 552.5 c 128,-1,35
 213 479 213 479 213 381.5 c 128,-1,36
 213 284 213 284 253 198.5 c 128,-1,37
 293 113 293 113 354 80 c 0,38,39
 383 65 383 65 383 42 c 128,-1,40
 383 19 383 19 366 6.5 c 128,-1,41
 349 -6 349 -6 323 -6 c 2,42,-1
 216 0 l 1,0,-1
EndSplineSet
Validated: 1
EndChar

StartChar: endash
Encoding: 8211 8211 150
Width: 620
GlyphClass: 2
Flags: W
LayerCount: 2
Fore
SplineSet
310 336 m 1,0,-1
 130 333 l 2,1,2
 108 333 108 333 94.5 345 c 128,-1,3
 81 357 81 357 81 375 c 128,-1,4
 81 393 81 393 94.5 405 c 128,-1,5
 108 417 108 417 130 417 c 2,6,-1
 310 414 l 1,7,-1
 490 417 l 2,8,9
 512 417 512 417 525.5 405 c 128,-1,10
 539 393 539 393 539 375 c 128,-1,11
 539 357 539 357 525.5 345 c 128,-1,12
 512 333 512 333 490 333 c 2,13,14
 490 333 490 333 310 336 c 1,0,-1
EndSplineSet
Validated: 1
EndChar

StartChar: emdash
Encoding: 8212 8212 151
Width: 880
GlyphClass: 2
Flags: W
LayerCount: 2
Fore
SplineSet
440 336 m 1,0,-1
 120 333 l 2,1,2
 98 333 98 333 84.5 345 c 128,-1,3
 71 357 71 357 71 375 c 128,-1,4
 71 393 71 393 84.5 405 c 128,-1,5
 98 417 98 417 120 417 c 2,6,-1
 440 414 l 1,7,-1
 760 417 l 2,8,9
 782 417 782 417 795.5 405 c 128,-1,10
 809 393 809 393 809 375 c 128,-1,11
 809 357 809 357 795.5 345 c 128,-1,12
 782 333 782 333 760 333 c 2,13,14
 760 333 760 333 440 336 c 1,0,-1
EndSplineSet
Validated: 1
EndChar

StartChar: quoteleft
Encoding: 8216 8216 152
Width: 264
GlyphClass: 2
Flags: W
LayerCount: 2
Fore
SplineSet
170 636 m 2,0,-1
 176 565 l 2,1,2
 176 541 176 541 160.5 520.5 c 128,-1,3
 145 500 145 500 118 500 c 128,-1,4
 91 500 91 500 78 517 c 128,-1,5
 65 534 65 534 65 558 c 0,6,7
 65 627 65 627 102.5 693 c 128,-1,8
 140 759 140 759 177 759 c 0,9,10
 189 759 189 759 197.5 752 c 128,-1,11
 206 745 206 745 206 734 c 128,-1,12
 206 723 206 723 188 692.5 c 128,-1,13
 170 662 170 662 170 636 c 2,0,-1
EndSplineSet
Validated: 1
EndChar

StartChar: quoteright
Encoding: 8217 8217 153
Width: 265
GlyphClass: 2
Flags: W
LayerCount: 2
Fore
SplineSet
99 625 m 2,0,-1
 93 696 l 2,1,2
 93 720 93 720 108.5 740.5 c 128,-1,3
 124 761 124 761 151 761 c 128,-1,4
 178 761 178 761 191 744 c 128,-1,5
 204 727 204 727 204 703 c 0,6,7
 204 634 204 634 166.5 568 c 128,-1,8
 129 502 129 502 92 502 c 0,9,10
 80 502 80 502 71.5 509 c 128,-1,11
 63 516 63 516 63 527 c 128,-1,12
 63 538 63 538 81 568.5 c 128,-1,13
 99 599 99 599 99 625 c 2,0,-1
EndSplineSet
Validated: 1
EndChar

StartChar: quotesinglbase
Encoding: 8218 8218 154
Width: 256
GlyphClass: 2
Flags: W
LayerCount: 2
Fore
SplineSet
79 -35 m 1,0,-1
 72 36 l 2,1,2
 72 63 72 63 88.5 83.5 c 128,-1,3
 105 104 105 104 130.5 104 c 128,-1,4
 156 104 156 104 169 87 c 128,-1,5
 182 70 182 70 182 45 c 0,6,7
 182 -18 182 -18 157 -79.5 c 128,-1,8
 132 -141 132 -141 105 -141 c 0,9,10
 92 -141 92 -141 84 -133.5 c 128,-1,11
 76 -126 76 -126 76 -113 c 2,12,-1
 79 -35 l 1,0,-1
EndSplineSet
Validated: 1
EndChar

StartChar: quotedblleft
Encoding: 8220 8220 155
Width: 463
GlyphClass: 2
Flags: W
LayerCount: 2
Fore
SplineSet
170 637 m 2,0,-1
 176 566 l 2,1,2
 176 542 176 542 160.5 521.5 c 128,-1,3
 145 501 145 501 118 501 c 128,-1,4
 91 501 91 501 78 518 c 128,-1,5
 65 535 65 535 65 559 c 0,6,7
 65 628 65 628 102.5 694 c 128,-1,8
 140 760 140 760 177 760 c 0,9,10
 189 760 189 760 197.5 753 c 128,-1,11
 206 746 206 746 206 735 c 128,-1,12
 206 724 206 724 188 693.5 c 128,-1,13
 170 663 170 663 170 637 c 2,0,-1
369 637 m 2,14,-1
 375 566 l 2,15,16
 375 542 375 542 359.5 521.5 c 128,-1,17
 344 501 344 501 317 501 c 128,-1,18
 290 501 290 501 277 518 c 128,-1,19
 264 535 264 535 264 559 c 0,20,21
 264 628 264 628 301.5 694 c 128,-1,22
 339 760 339 760 376 760 c 0,23,24
 388 760 388 760 396.5 753 c 128,-1,25
 405 746 405 746 405 735 c 128,-1,26
 405 724 405 724 387 693.5 c 128,-1,27
 369 663 369 663 369 637 c 2,14,-1
EndSplineSet
Validated: 1
EndChar

StartChar: quotedblright
Encoding: 8221 8221 156
Width: 464
GlyphClass: 2
Flags: W
LayerCount: 2
Fore
SplineSet
298 624 m 2,0,-1
 292 695 l 2,1,2
 292 719 292 719 307.5 739.5 c 128,-1,3
 323 760 323 760 350 760 c 128,-1,4
 377 760 377 760 390 743 c 128,-1,5
 403 726 403 726 403 702 c 0,6,7
 403 633 403 633 365.5 567 c 128,-1,8
 328 501 328 501 291 501 c 0,9,10
 279 501 279 501 270.5 508 c 128,-1,11
 262 515 262 515 262 526 c 128,-1,12
 262 537 262 537 280 567.5 c 128,-1,13
 298 598 298 598 298 624 c 2,0,-1
99 624 m 2,14,-1
 93 695 l 2,15,16
 93 719 93 719 108.5 739.5 c 128,-1,17
 124 760 124 760 151 760 c 128,-1,18
 178 760 178 760 191 743 c 128,-1,19
 204 726 204 726 204 702 c 0,20,21
 204 633 204 633 166.5 567 c 128,-1,22
 129 501 129 501 92 501 c 0,23,24
 80 501 80 501 71.5 508 c 128,-1,25
 63 515 63 515 63 526 c 128,-1,26
 63 537 63 537 81 567.5 c 128,-1,27
 99 598 99 598 99 624 c 2,14,-1
EndSplineSet
Validated: 1
EndChar

StartChar: quotedblbase
Encoding: 8222 8222 157
Width: 462
GlyphClass: 2
Flags: W
LayerCount: 2
Fore
SplineSet
79 -32 m 1,0,-1
 72 39 l 2,1,2
 72 66 72 66 88.5 86.5 c 128,-1,3
 105 107 105 107 130.5 107 c 128,-1,4
 156 107 156 107 169 90 c 128,-1,5
 182 73 182 73 182 48 c 0,6,7
 182 -15 182 -15 157 -76.5 c 128,-1,8
 132 -138 132 -138 105 -138 c 0,9,10
 92 -138 92 -138 84 -130.5 c 128,-1,11
 76 -123 76 -123 76 -110 c 2,12,-1
 79 -32 l 1,0,-1
285 -32 m 1,13,-1
 278 39 l 2,14,15
 278 66 278 66 294.5 86.5 c 128,-1,16
 311 107 311 107 336.5 107 c 128,-1,17
 362 107 362 107 375 90 c 128,-1,18
 388 73 388 73 388 48 c 0,19,20
 388 -15 388 -15 363 -76.5 c 128,-1,21
 338 -138 338 -138 311 -138 c 0,22,23
 298 -138 298 -138 290 -130.5 c 128,-1,24
 282 -123 282 -123 282 -110 c 2,25,-1
 285 -32 l 1,13,-1
EndSplineSet
Validated: 1
EndChar

StartChar: dagger
Encoding: 8224 8224 158
Width: 596
GlyphClass: 2
Flags: W
LayerCount: 2
Fore
SplineSet
335 539 m 1,0,-1
 492 542 l 2,1,2
 514 542 514 542 527.5 531.5 c 128,-1,3
 541 521 541 521 541 502.5 c 128,-1,4
 541 484 541 484 527.5 473.5 c 128,-1,5
 514 463 514 463 492 463 c 2,6,-1
 334 466 l 1,7,-1
 339 -26 l 2,8,9
 339 -52 339 -52 327 -67.5 c 128,-1,10
 315 -83 315 -83 294.5 -83 c 128,-1,11
 274 -83 274 -83 262 -67.5 c 128,-1,12
 250 -52 250 -52 250 -26 c 2,13,-1
 254 466 l 1,14,-1
 105 463 l 2,15,16
 83 463 83 463 69 473.5 c 128,-1,17
 55 484 55 484 55 502 c 128,-1,18
 55 520 55 520 69 531 c 128,-1,19
 83 542 83 542 105 542 c 2,20,-1
 253 539 l 1,21,-1
 250 703 l 2,22,23
 250 729 250 729 262 744.5 c 128,-1,24
 274 760 274 760 294.5 760 c 128,-1,25
 315 760 315 760 327 744.5 c 128,-1,26
 339 729 339 729 339 703 c 2,27,-1
 335 539 l 1,0,-1
EndSplineSet
Validated: 1
EndChar

StartChar: daggerdbl
Encoding: 8225 8225 159
Width: 617
GlyphClass: 2
Flags: W
LayerCount: 2
Fore
SplineSet
345 295 m 1,0,-1
 502 298 l 2,1,2
 524 298 524 298 537.5 287 c 128,-1,3
 551 276 551 276 551 258 c 128,-1,4
 551 240 551 240 537.5 229 c 128,-1,5
 524 218 524 218 502 218 c 2,6,-1
 345 221 l 1,7,-1
 350 -27 l 2,8,9
 350 -53 350 -53 338 -68.5 c 128,-1,10
 326 -84 326 -84 305 -84 c 128,-1,11
 284 -84 284 -84 272 -69 c 128,-1,12
 260 -54 260 -54 260 -28 c 2,13,-1
 265 221 l 1,14,-1
 115 218 l 2,15,16
 93 218 93 218 79 229 c 128,-1,17
 65 240 65 240 65 258 c 128,-1,18
 65 276 65 276 79 287 c 128,-1,19
 93 298 93 298 115 298 c 2,20,-1
 266 295 l 1,21,22
 266 428 266 428 265 467 c 1,23,-1
 116 464 l 2,24,25
 94 464 94 464 80 474.5 c 128,-1,26
 66 485 66 485 66 503 c 128,-1,27
 66 521 66 521 80 532 c 128,-1,28
 94 543 94 543 116 543 c 2,29,-1
 264 540 l 1,30,-1
 261 704 l 2,31,32
 261 730 261 730 273 745.5 c 128,-1,33
 285 761 285 761 305.5 761 c 128,-1,34
 326 761 326 761 338 745.5 c 128,-1,35
 350 730 350 730 350 704 c 2,36,-1
 346 540 l 1,37,-1
 503 543 l 2,38,39
 525 543 525 543 538.5 532.5 c 128,-1,40
 552 522 552 522 552 503.5 c 128,-1,41
 552 485 552 485 538.5 474.5 c 128,-1,42
 525 464 525 464 503 464 c 2,43,-1
 345 467 l 1,44,-1
 345 295 l 1,0,-1
EndSplineSet
Validated: 1
EndChar

StartChar: bullet
Encoding: 8226 8226 160
Width: 333
GlyphClass: 2
Flags: W
LayerCount: 2
Fore
SplineSet
244.5 478 m 128,-1,1
 268 446 268 446 268 397 c 128,-1,2
 268 348 268 348 237 308 c 128,-1,3
 206 268 206 268 161 268 c 128,-1,4
 116 268 116 268 91 301.5 c 128,-1,5
 66 335 66 335 66 383.5 c 128,-1,6
 66 432 66 432 97 471 c 128,-1,7
 128 510 128 510 174.5 510 c 128,-1,0
 221 510 221 510 244.5 478 c 128,-1,1
EndSplineSet
Validated: 1
EndChar

